<svg width="200" height="45" viewBox="0 0 200 45" fill="none" xmlns="http://www.w3.org/2000/svg">
<g clip-path="url(#clip0_3697_8090)">
<path d="M62.6358 23.9434V23.416C62.6358 22.0907 62.2068 21.0764 61.3494 20.3731C60.5178 19.6429 59.4263 19.2777 58.075 19.2777C57.0355 19.2777 56.2168 19.4671 55.6192 19.8457C55.0475 20.1973 54.5017 20.7383 53.982 21.4686C53.8261 21.685 53.6572 21.8337 53.4752 21.9148C53.2935 21.996 53.0465 22.0366 52.7346 22.0366H51.5652C51.2793 22.0366 51.0195 21.9284 50.7857 21.712C50.5776 21.4956 50.4869 21.2387 50.5127 20.9412C50.5908 20.1297 50.9674 19.3318 51.6431 18.5474C52.3448 17.736 53.2674 17.0733 54.4107 16.5594C55.5543 16.0455 56.7757 15.7886 58.075 15.7886C60.4917 15.7886 62.4406 16.4918 63.9219 17.8983C65.4292 19.3048 66.183 21.2792 66.183 23.8217V36.1959C66.183 36.4935 66.0789 36.7506 65.8711 36.9669C65.663 37.1831 65.4163 37.2914 65.1304 37.2914H63.6881C63.4022 37.2914 63.1555 37.1831 62.9475 36.9669C62.7397 36.7506 62.6358 36.4935 62.6358 36.1959V34.5325C62.22 35.5063 61.3363 36.2772 59.9849 36.8452C58.6336 37.4133 57.2823 37.6971 55.9309 37.6971C54.6056 37.6971 53.4234 37.4536 52.3837 36.9669C51.3443 36.4528 50.5387 35.7632 49.9669 34.8976C49.4212 34.0321 49.1484 33.0585 49.1484 31.9765C49.1484 29.9479 49.8762 28.3657 51.3314 27.2296C52.7866 26.0666 54.7226 25.2823 57.1394 24.8766L62.6358 23.9434ZM62.6358 27.1893L58.036 27.9599C56.3467 28.2304 55.0346 28.6768 54.099 29.2989C53.1635 29.8939 52.6956 30.6512 52.6956 31.571C52.6956 32.247 52.9944 32.8557 53.5922 33.3967C54.1898 33.9375 55.0995 34.208 56.3209 34.208C58.192 34.208 59.7122 33.6536 60.8815 32.5445C62.0509 31.4357 62.6358 29.9885 62.6358 28.2034V27.1893Z" fill="#363FF9"/>
<path d="M75.4173 36.1959C75.4173 36.4935 75.3134 36.7506 75.1053 36.9669C74.8976 37.1831 74.6506 37.2914 74.3647 37.2914H72.9226C72.6367 37.2914 72.3898 37.1831 72.182 36.9669C71.974 36.7506 71.8701 36.4935 71.8701 36.1959V9.58115C71.8701 9.28363 71.974 9.02667 72.182 8.81028C72.3898 8.5939 72.6367 8.48572 72.9226 8.48572H74.3647C74.6506 8.48572 74.8976 8.5939 75.1053 8.81028C75.3134 9.02667 75.4173 9.28363 75.4173 9.58115V36.1959Z" fill="#363FF9"/>
<path d="M89.4584 34.208C92.0572 34.208 93.8112 33.1532 94.7209 31.0433C94.9027 30.6378 95.0847 30.3537 95.2666 30.1914C95.4484 30.0291 95.6954 29.9479 96.0073 29.9479H97.1766C97.4625 29.9479 97.7092 30.0561 97.9173 30.2727C98.125 30.4619 98.2289 30.6918 98.2289 30.9623C98.2289 31.8819 97.8783 32.869 97.1766 33.9241C96.4749 34.9789 95.4615 35.8714 94.136 36.6017C92.8107 37.332 91.2516 37.6971 89.4584 37.6971C87.6134 37.6971 86.0151 37.2914 84.664 36.4801C83.3126 35.6685 82.273 34.5597 81.5455 33.1532C80.8177 31.7196 80.4151 30.1238 80.337 28.3657C80.3109 28.0412 80.298 27.4191 80.298 26.4993C80.298 25.8503 80.3109 25.3905 80.337 25.12C80.571 22.3611 81.4674 20.1162 83.0267 18.3852C84.5859 16.6541 86.7299 15.7886 89.4584 15.7886C91.2516 15.7886 92.7978 16.1537 94.0971 16.884C95.4224 17.5872 96.4229 18.4663 97.0985 19.5212C97.8002 20.549 98.1771 21.5227 98.2289 22.4423C98.255 22.7398 98.1511 22.9968 97.9173 23.2131C97.7092 23.4295 97.4625 23.5377 97.1766 23.5377H96.0073C95.6954 23.5377 95.4484 23.4566 95.2666 23.2943C95.0847 23.132 94.9027 22.848 94.7209 22.4423C93.8112 20.3326 92.0572 19.2777 89.4584 19.2777C88.0292 19.2777 86.7817 19.7781 85.7163 20.7789C84.6508 21.7796 84.0401 23.2943 83.8842 25.3229C83.8584 25.6204 83.8452 26.1072 83.8452 26.7835C83.8452 27.4055 83.8584 27.8653 83.8842 28.1628C84.0662 30.1914 84.6769 31.706 85.7163 32.7068C86.7817 33.7076 88.0292 34.208 89.4584 34.208Z" fill="#363FF9"/>
<path d="M120.903 36.1959C120.903 36.4935 120.8 36.7506 120.592 36.9669C120.384 37.1831 120.137 37.2914 119.851 37.2914H118.409C118.123 37.2914 117.876 37.1831 117.668 36.9669C117.46 36.7506 117.356 36.4935 117.356 36.1959V25.4852C117.356 23.4566 116.875 21.9149 115.914 20.86C114.953 19.8051 113.614 19.2777 111.899 19.2777C110.21 19.2777 108.872 19.8051 107.884 20.86C106.923 21.9149 106.442 23.4566 106.442 25.4852V36.1959C106.442 36.4935 106.338 36.7506 106.13 36.9669C105.922 37.1831 105.675 37.2914 105.389 37.2914H103.947C103.661 37.2914 103.414 37.1831 103.206 36.9669C102.999 36.7506 102.895 36.4935 102.895 36.1959V9.58115C102.895 9.28363 102.999 9.02667 103.206 8.81028C103.414 8.5939 103.661 8.48572 103.947 8.48572H105.389C105.675 8.48572 105.922 8.5939 106.13 8.81028C106.338 9.02667 106.442 9.28363 106.442 9.58115V18.5474C107.013 17.763 107.793 17.1139 108.781 16.6C109.794 16.059 111.028 15.7886 112.484 15.7886C114.121 15.7886 115.576 16.1537 116.85 16.884C118.123 17.6143 119.11 18.6691 119.812 20.0486C120.54 21.4009 120.903 23.0103 120.903 24.8766V36.1959Z" fill="#363FF9"/>
<path d="M134.563 15.7886C137.344 15.7886 139.54 16.7082 141.151 18.5474C142.762 20.3867 143.568 22.8886 143.568 26.0532V27.1486C143.568 27.4461 143.464 27.703 143.256 27.9195C143.048 28.1358 142.801 28.2441 142.515 28.2441H129.106V28.4873C129.158 30.2727 129.678 31.679 130.665 32.7068C131.679 33.7076 132.978 34.208 134.563 34.208C135.863 34.208 136.863 34.0321 137.565 33.6806C138.292 33.3291 138.942 32.8287 139.514 32.1794C139.721 31.9631 139.903 31.8142 140.059 31.7332C140.241 31.652 140.475 31.6113 140.761 31.6113H141.93C142.242 31.6113 142.502 31.7196 142.71 31.9361C142.918 32.1524 143.009 32.4093 142.983 32.7068C142.879 33.4371 142.489 34.1946 141.813 34.9789C141.164 35.7362 140.215 36.3855 138.968 36.9262C137.746 37.4403 136.278 37.6971 134.563 37.6971C132.9 37.6971 131.419 37.305 130.119 36.5205C128.82 35.7092 127.781 34.6001 127.001 33.1938C126.247 31.7872 125.792 30.205 125.637 28.4469C125.585 27.6354 125.559 27.0134 125.559 26.5806C125.559 26.1478 125.585 25.5257 125.637 24.7143C125.792 23.0373 126.247 21.5227 127.001 20.1703C127.781 18.8179 128.807 17.7495 130.08 16.9652C131.38 16.1808 132.874 15.7886 134.563 15.7886ZM140.059 24.836V24.7143C140.059 23.0644 139.553 21.7526 138.539 20.7789C137.552 19.7781 136.226 19.2777 134.563 19.2777C133.056 19.2777 131.77 19.7781 130.704 20.7789C129.664 21.7796 129.132 23.0914 129.106 24.7143V24.836H140.059Z" fill="#363FF9"/>
<path d="M151.818 18.5474C152.441 17.709 153.143 17.0463 153.922 16.5594C154.702 16.0455 155.741 15.7886 157.041 15.7886C160.081 15.7886 162.212 16.9652 163.434 19.3183C164.187 18.1823 165.045 17.3168 166.006 16.7217C166.968 16.0996 168.228 15.7886 169.787 15.7886C172.334 15.7886 174.218 16.5865 175.44 18.1823C176.687 19.7781 177.311 22.0366 177.311 24.9577V36.1959C177.311 36.4935 177.207 36.7506 176.999 36.9669C176.791 37.1831 176.544 37.2914 176.258 37.2914H174.816C174.53 37.2914 174.283 37.1831 174.075 36.9669C173.867 36.7506 173.764 36.4935 173.764 36.1959V25.3634C173.764 21.3063 172.23 19.2777 169.164 19.2777C167.76 19.2777 166.643 19.7646 165.811 20.7383C164.98 21.712 164.564 23.1591 164.564 25.0794V36.1959C164.564 36.4935 164.46 36.7506 164.252 36.9669C164.044 37.1831 163.797 37.2914 163.512 37.2914H162.069C161.783 37.2914 161.537 37.1831 161.329 36.9669C161.121 36.7506 161.017 36.4935 161.017 36.1959V25.3634C161.017 21.3063 159.484 19.2777 156.417 19.2777C155.014 19.2777 153.896 19.7646 153.065 20.7383C152.233 21.712 151.818 23.1591 151.818 25.0794V36.1959C151.818 36.4935 151.713 36.7506 151.506 36.9669C151.298 37.1831 151.051 37.2914 150.765 37.2914H149.323C149.037 37.2914 148.79 37.1831 148.582 36.9669C148.374 36.7506 148.27 36.4935 148.27 36.1959V17.2897C148.27 16.9922 148.374 16.7352 148.582 16.5189C148.79 16.3025 149.037 16.1943 149.323 16.1943H150.765C151.051 16.1943 151.298 16.3025 151.506 16.5189C151.713 16.7352 151.818 16.9922 151.818 17.2897V18.5474Z" fill="#363FF9"/>
<path d="M188.228 44.0262C187.994 44.6755 187.617 45 187.098 45H185.499C185.239 45 185.018 44.9054 184.837 44.7161C184.655 44.5266 184.564 44.2967 184.564 44.0262C184.564 43.9182 184.577 43.8233 184.603 43.7423L188.345 35.2628L180.627 17.452C180.601 17.3708 180.588 17.2762 180.588 17.168C180.588 16.8975 180.679 16.6676 180.861 16.4783C181.043 16.2889 181.263 16.1943 181.523 16.1943H183.121C183.641 16.1943 184.018 16.5189 184.252 17.168L190.255 30.9623L196.336 17.168C196.57 16.5189 196.946 16.1943 197.466 16.1943H199.064C199.324 16.1943 199.545 16.2889 199.727 16.4783C199.909 16.6676 200 16.8975 200 17.168C200 17.2762 199.987 17.3708 199.961 17.452L188.228 44.0262Z" fill="#363FF9"/>
<path d="M34.4105 23.8697L21.3215 0.384387C21.2582 0.268421 21.1664 0.171821 21.0554 0.104336C20.9445 0.0368509 20.8183 0.000866965 20.6897 1.5471e-05C20.5611 -0.000836023 20.4345 0.0334749 20.3228 0.099486C20.2111 0.165497 20.1181 0.260874 20.0533 0.375992L16.1333 7.4132C16.005 7.64355 15.9374 7.90485 15.9374 8.17084C15.9374 8.43683 16.005 8.69814 16.1333 8.92849L24.6682 24.2496C24.7966 24.4802 24.9815 24.6716 25.2042 24.8046C25.4268 24.9376 25.6793 25.0075 25.9363 25.0072H33.7764C33.9047 25.0068 34.0307 24.9716 34.1416 24.9049C34.2528 24.8383 34.345 24.7426 34.4093 24.6274C34.4733 24.5123 34.5073 24.3817 34.5076 24.2487C34.5076 24.1158 34.4742 23.9851 34.4105 23.8697Z" fill="url(#paint0_radial_3697_8090)"/>
<path d="M0.100929 36.144L13.1898 12.6587C13.254 12.5436 13.3464 12.4481 13.4575 12.3817C13.5686 12.3153 13.6946 12.2803 13.8229 12.2803C13.9512 12.2803 14.0772 12.3153 14.1883 12.3817C14.2995 12.4481 14.3918 12.5436 14.456 12.6587L18.378 19.6896C18.5064 19.9203 18.5739 20.182 18.5739 20.4483C18.5739 20.7146 18.5064 20.9762 18.378 21.207L9.84314 36.5282C9.71513 36.7586 9.53066 36.9501 9.30835 37.0831C9.08603 37.216 8.83375 37.286 8.57701 37.2857H0.735015C0.605832 37.2865 0.478788 37.2515 0.366796 37.1849C0.2548 37.1181 0.161868 37.0219 0.0974421 36.9059C0.0330158 36.7899 -0.000606523 36.6583 8.28266e-06 36.5246C0.00062309 36.3906 0.0354399 36.2595 0.100929 36.144Z" fill="url(#paint1_radial_3697_8090)"/>
<path d="M14.4541 37.2806H40.6318C40.7603 37.2806 40.8863 37.2453 40.9975 37.1787C41.1087 37.1121 41.2009 37.0162 41.2649 36.901C41.3289 36.7858 41.3627 36.6549 41.3625 36.522C41.3623 36.3888 41.3284 36.2582 41.264 36.1432L37.3479 29.1081C37.2194 28.8774 37.0345 28.6861 36.8119 28.5531C36.5893 28.4199 36.3367 28.3503 36.0798 28.3505H19.0102C18.7532 28.3503 18.5007 28.4199 18.278 28.5531C18.0554 28.6861 17.8705 28.8774 17.742 29.1081L13.822 36.1432C13.7576 36.2582 13.7236 36.3888 13.7235 36.522C13.7233 36.6549 13.7569 36.7858 13.8209 36.901C13.885 37.0162 13.9773 37.1121 14.0884 37.1787C14.1996 37.2453 14.3256 37.2806 14.4541 37.2806Z" fill="url(#paint2_radial_3697_8090)"/>
</g>
<defs>
<radialGradient id="paint0_radial_3697_8090" cx="0" cy="0" r="1" gradientUnits="userSpaceOnUse" gradientTransform="translate(21.914) rotate(95.047) scale(35.9814 46.0094)">
<stop stop-color="#05D5FF"/>
<stop offset="0.770833" stop-color="#363FF9"/>
<stop offset="1" stop-color="#5533FF"/>
</radialGradient>
<radialGradient id="paint1_radial_3697_8090" cx="0" cy="0" r="1" gradientUnits="userSpaceOnUse" gradientTransform="translate(21.914 -3.23193e-06) rotate(95.047) scale(35.9814 46.0094)">
<stop stop-color="#05D5FF"/>
<stop offset="0.770833" stop-color="#363FF9"/>
<stop offset="1" stop-color="#5533FF"/>
</radialGradient>
<radialGradient id="paint2_radial_3697_8090" cx="0" cy="0" r="1" gradientUnits="userSpaceOnUse" gradientTransform="translate(21.914 2.51326e-06) rotate(95.047) scale(35.9814 46.0094)">
<stop stop-color="#05D5FF"/>
<stop offset="0.770833" stop-color="#363FF9"/>
<stop offset="1" stop-color="#5533FF"/>
</radialGradient>
<clipPath id="clip0_3697_8090">
<rect width="200" height="45" fill="white"/>
</clipPath>
</defs>
</svg>
