<svg width="170" height="45" viewBox="0 0 170 45" fill="none" xmlns="http://www.w3.org/2000/svg">
<path fill-rule="evenodd" clip-rule="evenodd" d="M44.9658 22.5C44.9658 34.9264 34.8823 45 22.4437 45C10.6427 45 0.961485 35.9326 0 24.3913H29.7691V20.6087H0C0.961485 9.06732 10.6427 0 22.4437 0C34.8823 0 44.9658 10.0736 44.9658 22.5ZM128.464 40.9234C136.268 40.9234 141.386 36.7143 141.386 30.3751C141.386 24.4922 137.535 21.7029 131.707 20.7394L126.538 19.8772C122.586 19.2179 119.95 17.4936 119.95 13.69C119.95 9.8358 122.89 6.89436 128.464 6.89436C133.886 6.89436 136.673 9.63291 136.977 13.5379H140.879C140.575 8.36508 136.623 3.75007 128.515 3.75007C120.508 3.75007 116.099 8.26362 116.099 13.8422C116.099 19.7758 120.102 22.5144 125.575 23.4272L130.795 24.2386C135.153 24.9993 137.586 26.7743 137.586 30.5272C137.586 34.9394 133.987 37.7793 128.515 37.7793C122.839 37.7793 119.291 35.0408 118.987 30.3751H115.136C115.44 36.4608 120.102 40.9234 128.464 40.9234ZM70.9317 40.2136H56.7428V4.5108H70.4249C76.4555 4.5108 80.6617 8.06077 80.6617 13.7408C80.6617 17.8486 78.3304 20.5872 74.5806 21.5V21.6522C79.0398 22.5144 81.7765 25.5572 81.7765 30.3244C81.7765 36.4608 77.2662 40.2136 70.9317 40.2136ZM69.9182 20.1815C74.2258 20.1815 76.8608 17.8486 76.8608 14.1972V13.69C76.8608 10.0386 74.2258 7.7565 69.9182 7.7565H60.5433V20.1815H69.9182ZM70.3743 36.9679C75.0873 36.9679 77.9757 34.3815 77.9757 30.4258V29.9186C77.9757 25.8108 75.0366 23.3258 70.3236 23.3258H60.5433V36.9679H70.3743ZM112.468 40.2136H108.414L105.373 30.5272H91.1842L88.1438 40.2136H84.2922L95.9985 4.5108H100.61L112.468 40.2136ZM98.4815 8.41579H98.1775L92.1976 27.3322H104.411L98.4815 8.41579ZM147.095 40.2136V4.5108H170V7.80721H150.895V20.0801H168.48V23.3258H150.895V36.9172H170V40.2136H147.095Z" fill="#0052FF"/>
</svg>
