<svg width="260" height="61" viewBox="0 0 260 61" fill="none" xmlns="http://www.w3.org/2000/svg">
<g clip-path="url(#clip0_3535_6250)">
<path d="M30.0985 60.1971C46.7215 60.1971 60.1971 46.7215 60.1971 30.0985C60.1971 13.4756 46.7215 0 30.0985 0C13.4756 0 0 13.4756 0 30.0985C0 46.7215 13.4756 60.1971 30.0985 60.1971Z" fill="url(#paint0_linear_3535_6250)"/>
<path fill-rule="evenodd" clip-rule="evenodd" d="M13.4771 24.293C13.4771 21.5448 15.7096 19.3169 18.4635 19.3169H41.7337C44.4877 19.3169 46.7202 21.5448 46.7202 24.293V35.9039C46.7202 38.6521 44.4877 40.88 41.7337 40.88H18.4635C15.7096 40.88 13.4771 38.6521 13.4771 35.9039V24.293ZM30.0986 30.0985C30.0986 33.7628 27.1219 36.7333 23.45 36.7333C19.7781 36.7333 16.8014 33.7628 16.8014 30.0985C16.8014 26.4342 19.7781 23.4637 23.45 23.4637C27.1219 23.4637 30.0986 26.4342 30.0986 30.0985ZM30.0986 30.0985C30.0986 26.4342 33.0753 23.4637 36.7473 23.4637C40.4192 23.4637 43.3959 26.4342 43.3959 30.0985C43.3959 33.7628 40.4192 36.7333 36.7473 36.7333C33.0753 36.7333 30.0986 33.7628 30.0986 30.0985Z" fill="#F1F0FA"/>
</g>
<path d="M73.0049 49.3063H104.471V40.9872H80.0864V34.106H102.354V25.8156H80.0864V18.8557H104.471V10.6726H73.0049V49.3063Z" fill="#49158B"/>
<path d="M143.749 10.6726H134.1L119.586 26.1232H115.974V10.6726H108.893V49.2991H115.974V33.5409H119.379L135.337 49.3063H145.974L126.317 29.3993L143.749 10.6726Z" fill="#49158B"/>
<path d="M173.005 32.5681C173.005 37.7326 172.04 41.9315 163.642 41.9315C154.815 41.9315 154.279 37.7326 154.279 32.5681V10.6726H146.639V34.2276C146.639 42.7827 150.459 49.7497 162.161 49.7497H165.037C178.327 49.7497 180.559 42.7898 180.559 34.2276V10.6726H173.005V32.5681Z" fill="#49158B"/>
<path d="M215.029 28.4265C216.674 26.5452 217.668 24.1132 217.668 21.4451C217.668 15.5009 212.725 10.6726 206.645 10.6726H183.598V49.2419H207.411C214.034 49.2419 219.421 43.9772 219.421 37.4894C219.421 33.8413 217.711 30.5796 215.029 28.4265ZM190.751 17.8686H206.037C208.298 17.8686 210.136 19.7069 210.136 21.9673C210.136 23.6769 209.084 25.1432 207.589 25.7584C207.532 25.7584 207.468 25.7512 207.411 25.7512H190.751V17.8686ZM207.411 42.7755H190.215V32.2248H207.411C210.379 32.2248 212.797 34.5853 212.797 37.5109C212.797 40.4365 210.379 42.7755 207.411 42.7755Z" fill="#49158B"/>
<path d="M245.172 10.4221H236.008C227.833 10.4221 221.18 17.0745 221.18 25.2504V34.4135C221.18 42.5894 227.833 49.2417 236.008 49.2417H245.172C253.347 49.2417 260 42.5894 260 34.4135V25.2504C260 17.0745 253.347 10.4221 245.172 10.4221ZM252.453 34.02C252.453 38.2547 249.006 41.7024 244.771 41.7024H236.395C232.16 41.7024 228.712 38.2547 228.712 34.02V25.6438C228.712 21.4092 232.16 17.9614 236.395 17.9614H244.771C249.006 17.9614 252.453 21.4092 252.453 25.6438V34.02Z" fill="#49158B"/>
<defs>
<linearGradient id="paint0_linear_3535_6250" x1="0" y1="0" x2="60.1971" y2="60.1971" gradientUnits="userSpaceOnUse">
<stop stop-color="#661CC4"/>
<stop offset="1"/>
</linearGradient>
<clipPath id="clip0_3535_6250">
<rect width="60.1971" height="60.1971" fill="white"/>
</clipPath>
</defs>
</svg>
