<svg width="223" height="45" viewBox="0 0 223 45" fill="none" xmlns="http://www.w3.org/2000/svg">
<path d="M74.9806 25.3965H85.3267V26.2324C85.3267 28.1335 85.1051 29.816 84.6618 31.2801C84.2294 32.6349 83.4996 33.9023 82.4726 35.0823C80.1483 37.7263 77.1915 39.0483 73.6023 39.0483C70.0995 39.0483 67.0995 37.77 64.6022 35.2134C62.1049 32.6458 60.8562 29.5647 60.8562 25.9702C60.8562 22.2991 62.1265 19.1852 64.667 16.6286C67.2076 14.061 70.2995 12.7772 73.9428 12.7772C75.8996 12.7772 77.7266 13.1815 79.4239 13.99C81.0456 14.7985 82.6402 16.1096 84.2078 17.9233L81.5158 20.5291C79.4618 17.7649 76.959 16.3828 74.0077 16.3828C71.359 16.3828 69.1374 17.306 67.3427 19.1524C65.5481 20.9661 64.6508 23.2387 64.6508 25.9702C64.6508 28.789 65.6508 31.1107 67.6509 32.9354C69.5211 34.6289 71.5482 35.4756 73.732 35.4756C75.5915 35.4756 77.2617 34.8419 78.7428 33.5745C80.2239 32.2962 81.051 30.7666 81.2239 28.9857H74.9806V25.3965Z" fill="#151515"/>
<path d="M92.0516 25.8063C92.0516 22.2445 93.3435 19.1852 95.9273 16.6286C98.5003 14.0719 101.592 12.7936 105.203 12.7936C108.771 12.7936 111.83 14.0829 114.381 16.6614C116.944 19.2399 118.225 22.3373 118.225 25.9538C118.225 29.5921 116.938 32.6786 114.365 35.2134C111.781 37.7591 108.663 39.032 105.008 39.032C101.776 39.032 98.8733 37.9011 96.3003 35.6395C93.4678 33.1375 92.0516 29.8597 92.0516 25.8063ZM95.8624 25.8554C95.8624 28.6524 96.7922 30.9523 98.6516 32.7551C100.5 34.5578 102.635 35.4592 105.057 35.4592C107.684 35.4592 109.9 34.5415 111.706 32.7059C113.511 30.8485 114.414 28.5869 114.414 25.921C114.414 23.2223 113.522 20.9607 111.738 19.1361C109.965 17.3005 107.771 16.3828 105.154 16.3828C102.549 16.3828 100.349 17.3005 98.5543 19.1361C96.7597 20.9497 95.8624 23.1895 95.8624 25.8554Z" fill="#151515"/>
<path d="M124.796 13.3592V38.6386H128.887V28.9375H135.076C141.16 28.9375 144.202 26.3175 144.202 21.1129C144.202 15.9437 141.16 13.3592 135.146 13.3592H124.796ZM128.887 16.8997H134.831C136.614 16.8997 137.943 17.2183 138.782 17.891C139.621 18.5283 140.076 19.5905 140.076 21.1129C140.076 22.6354 139.656 23.7329 138.817 24.4056C137.978 25.0429 136.649 25.397 134.831 25.397H128.887V16.8997Z" fill="#151515"/>
<path d="M150.922 13.3592V38.6386H168.475V35.0981H154.978V13.3592H150.922Z" fill="#151515"/>
<path d="M174.846 13.3592V29.0437C174.846 32.3364 175.755 34.8502 177.608 36.6205C179.356 38.2845 181.909 39.1343 185.23 39.1343C188.517 39.1343 191.07 38.2845 192.888 36.5851C194.706 34.8502 195.615 32.3364 195.615 29.0437V13.3592H191.524V29.1145C191.524 31.3097 191 32.9029 190.021 33.9651C189.007 34.9918 187.398 35.5229 185.23 35.5229C183.027 35.5229 181.419 34.9918 180.44 33.9651C179.426 32.9029 178.936 31.3097 178.936 29.1145V13.3592H174.846Z" fill="#151515"/>
<path d="M212.545 12.8635C209.853 12.8635 207.65 13.4654 205.902 14.7046C204.014 15.9792 203.105 17.7494 203.105 19.98C203.105 22.2105 204.049 23.91 205.972 25.0783C206.706 25.5032 208.629 26.2113 211.706 27.2027C214.469 28.0524 216.077 28.6189 216.566 28.8667C218.105 29.6456 218.909 30.7078 218.909 32.0532C218.909 33.1154 218.35 33.9297 217.301 34.567C216.252 35.1689 214.783 35.4875 212.965 35.4875C210.902 35.4875 209.398 35.0981 208.419 34.3899C207.336 33.5756 206.671 32.1948 206.391 30.2829H202.335C202.51 33.5048 203.664 35.8416 205.762 37.3286C207.475 38.5324 209.888 39.1343 212.965 39.1343C216.147 39.1343 218.629 38.4616 220.378 37.187C222.126 35.877 223 34.0713 223 31.8054C223 29.4686 221.916 27.6629 219.748 26.3529C218.769 25.7864 216.601 24.9367 213.21 23.8746C210.902 23.131 209.468 22.6 208.944 22.3167C207.755 21.6794 207.196 20.7943 207.196 19.7321C207.196 18.5283 207.685 17.6432 208.734 17.1121C209.573 16.6519 210.762 16.4394 212.336 16.4394C214.154 16.4394 215.552 16.7581 216.462 17.4662C217.371 18.1389 218.035 19.2719 218.385 20.8297H222.441C222.196 18.0681 221.182 16.0146 219.434 14.7046C217.79 13.4654 215.483 12.8635 212.545 12.8635Z" fill="#151515"/>
<path d="M31.7104 10.9652V10.9676H19.4918C11.8867 10.9676 5.72152 17.2756 5.72152 25.0568C5.72152 32.8379 11.8867 39.1459 19.4918 39.1459H21.0433H22.498H28.4618C29.9883 39.1459 31.2256 37.8798 31.2256 36.3182C31.2256 34.7565 29.9883 33.4904 28.4618 33.4904H22.595H22.498H20.5584C15.5267 33.4904 11.443 29.7383 11.443 25.0823C11.443 20.4263 15.5267 16.6129 20.5584 16.6129L26.7467 16.6326C26.7467 16.629 26.7468 16.6253 26.7468 16.6216H34.4241C34.4241 19.9107 31.5861 22.5768 28.0853 22.5768C27.968 22.5768 27.8578 22.5734 27.7527 22.5676V22.5764H19.6372C18.2716 22.5764 17.1645 23.709 17.1645 25.1063C17.1645 26.5037 18.2716 27.6366 19.6372 27.6366H22.0132H22.498H22.595H28.4618C33.1482 27.6366 36.947 31.5235 36.947 36.3182C36.947 41.113 33.1482 45 28.4618 45H22.498H19.4918C8.72681 45 0 36.0711 0 25.0568C0 14.0426 8.72681 5.11364 19.4918 5.11364H25.8921H31.7104H37.3348C37.3348 8.31342 34.8254 10.912 31.7104 10.9652ZM52.9031 8.06579H49.4974V11.7062C49.4974 12.0191 49.2393 12.2727 48.921 12.2727H45.8457C45.5273 12.2727 45.2691 12.0191 45.2691 11.7062V8.06579H41.9477C41.6291 8.06579 41.371 7.81216 41.371 7.49932V4.76155C41.371 4.4487 41.6291 4.19534 41.9477 4.19534H45.2691V0.566478C45.2691 0.253629 45.5273 0 45.8457 0H48.921C49.2393 0 49.4974 0.253629 49.4974 0.566478V4.19534H52.9031C53.2215 4.19534 53.4796 4.4487 53.4796 4.76155V7.49932C53.4796 7.81216 53.2215 8.06579 52.9031 8.06579Z" fill="#00E678"/>
</svg>
