<svg width="200" height="39" viewBox="0 0 200 39" fill="none" xmlns="http://www.w3.org/2000/svg">
<g clip-path="url(#clip0_4900_33)">
<path fill-rule="evenodd" clip-rule="evenodd" d="M1.13279 0C0.507168 0 0 0.512426 0 1.14453V37.847C0 38.4791 0.50717 38.9915 1.13279 38.9915H37.4588C38.0844 38.9915 38.5916 38.4791 38.5916 37.847V1.14453C38.5916 0.512424 38.0844 0 37.4588 0H1.13279ZM6.07466 7.25349H9.90316C9.96046 7.25349 10.011 7.29144 10.0275 7.34689C10.2945 8.24652 10.4226 8.79205 10.6101 9.72116C10.6163 9.75176 10.643 9.77404 10.6739 9.77404H27.4398C27.4712 9.77404 27.498 9.75121 27.5038 9.72015C27.6758 8.79644 27.806 8.25589 28.0768 7.34679C28.0934 7.29138 28.144 7.25349 28.2012 7.25349H32.0298C30.7758 10.0797 30.531 11.918 30.2784 15.2987H32.0298V17.0861H30.146C29.9716 22.8944 29.952 26.0807 29.983 32.1297H26.534C26.534 29.4895 26.568 27.3305 26.6032 25.1035V25.1029V25.1025C26.6402 22.7461 26.6786 20.3131 26.6792 17.1526C26.6792 17.1163 26.6492 17.0861 26.6132 17.0861H11.4826C11.4461 17.0861 11.4158 17.1174 11.4167 17.1542C11.5604 23.1377 11.568 26.1844 11.5603 32.1297H8.11116C8.13852 26.2514 8.13692 23.1066 7.94824 17.0861H6.07466V15.2987H7.8464C7.52608 11.6905 7.19784 9.85409 6.07466 7.25349ZM11.0491 12.9888L11.2528 15.1236C11.256 15.1573 11.284 15.183 11.3175 15.183H18.4433C18.4792 15.183 18.5083 15.1536 18.5083 15.1173V12.9825C18.5083 12.9462 18.4792 12.9168 18.4433 12.9168H11.1138C11.0754 12.9168 11.0454 12.9502 11.0491 12.9888ZM26.857 15.1235L27.0564 12.9887C27.06 12.9501 27.03 12.9168 26.9918 12.9168H19.8176C19.7817 12.9168 19.7526 12.9462 19.7526 12.9825V15.1173C19.7526 15.1536 19.7817 15.183 19.8176 15.183H26.7922C26.8258 15.183 26.8538 15.1572 26.857 15.1235Z" fill="black"/>
<path d="M69.842 17.4305H89.5108V20.7617H69.842V17.4305ZM89.0224 6.67084H93.329V31.5215H89.0224V6.67084ZM65.9794 6.67084H70.2416V31.5215H65.9794V6.67084Z" fill="black"/>
<path d="M103.959 25.3567V22.0637H119.41V25.3567H103.959ZM97.6986 31.5215L109.464 6.67084H113.993L125.847 31.5215H121.23L110.929 9.08316H112.528L102.272 31.5215H97.6986Z" fill="black"/>
<path d="M131.081 6.67084H135.343V31.5215H131.081V6.67084Z" fill="black"/>
<path d="M151.813 19.4217L151.768 17.3922L169.306 31.5215H163.312L147.506 18.5027L161.492 6.67084H167.397L151.813 19.4217ZM143.244 6.67084H147.506V31.5215H143.244V6.67084Z" fill="black"/>
<path d="M184.549 31.9428C181.56 31.9428 178.896 31.4194 176.557 30.3727C174.249 29.3262 172.428 27.8456 171.096 25.9312C169.794 24.0165 169.143 21.7446 169.143 19.1153C169.143 16.4605 169.794 14.1758 171.096 12.2613C172.428 10.3468 174.249 8.86617 176.557 7.81956C178.896 6.77294 181.56 6.24963 184.549 6.24963C187.568 6.24963 190.232 6.77294 192.541 7.81956C194.85 8.86617 196.67 10.3468 198.002 12.2613C199.334 14.1758 200 16.4605 200 19.1153C200 21.7446 199.334 24.0165 198.002 25.9312C196.67 27.8456 194.85 29.3262 192.541 30.3727C190.232 31.4194 187.568 31.9428 184.549 31.9428ZM184.549 28.6114C186.68 28.6114 188.575 28.254 190.232 27.5392C191.89 26.8245 193.207 25.7651 194.184 24.3613C195.161 22.9573 195.649 21.2085 195.649 19.1153C195.649 17.0221 195.161 15.2735 194.184 13.8695C193.207 12.4655 191.89 11.4061 190.232 10.6914C188.575 9.95108 186.68 9.58094 184.549 9.58094C182.477 9.58094 180.598 9.95108 178.911 10.6914C177.223 11.4061 175.891 12.4655 174.915 13.8695C173.938 15.2735 173.45 17.0221 173.45 19.1153C173.45 21.2085 173.938 22.9573 174.915 24.3613C175.891 25.7651 177.223 26.8245 178.911 27.5392C180.598 28.254 182.477 28.6114 184.549 28.6114Z" fill="black"/>
</g>
<defs>
<clipPath id="clip0_4900_33">
<rect width="200" height="39" fill="white"/>
</clipPath>
</defs>
</svg>
