<svg width="339" height="45" viewBox="0 0 339 45" fill="none" xmlns="http://www.w3.org/2000/svg">
<g clip-path="url(#clip0_4899_146)">
<path d="M27.5726 0.567729L24.327 12.6544C23.7437 12.5423 23.1454 12.4826 22.5247 12.4826C21.6273 12.4826 20.7598 12.6021 19.9297 12.8187C18.4715 13.2072 17.1478 13.9168 16.0335 14.8655L7.18667 6.02839C8.33085 4.95269 9.59469 4.01145 10.9557 3.19721L11.6363 2.80129C13.2217 1.92729 14.9193 1.23257 16.7066 0.761952C18.5687 0.268924 20.5205 0 22.5322 0C24.2672 0 25.9573 0.194223 27.5801 0.567729H27.5726Z" fill="#00ACEB"/>
<path d="M89.5305 17.4577C89.9119 19.0787 90.1064 20.7595 90.1064 22.4925C90.1064 24.5095 89.8371 26.4592 89.3436 28.3118C88.865 30.0971 88.1695 31.7928 87.302 33.3616L86.8982 34.0637C86.083 35.4084 85.1333 36.6708 84.0713 37.8212L75.2245 28.9841C76.1668 27.871 76.8847 26.5488 77.2661 25.0847C77.4904 24.2629 77.6026 23.3889 77.6026 22.4925C77.6026 21.8949 77.5577 21.3122 77.4456 20.752L89.5305 17.4577Z" fill="#21BCEC"/>
<path d="M64.2239 31.9348L60.9633 44.0214C59.4602 43.5508 58.0243 42.9382 56.6708 42.1912L56.0052 41.8103C54.4123 40.8541 52.954 39.7112 51.6379 38.4114C51.6379 38.4039 51.6304 38.4039 51.6304 38.4039L50.9723 37.7166C50.4638 37.1713 49.9851 36.5886 49.5364 35.991L58.2636 27.2809L60.1931 29.2903C60.2828 29.3874 60.38 29.4846 60.4772 29.5817C61.5092 30.62 62.788 31.4417 64.2089 31.9422L64.2239 31.9348Z" fill="#009CDD"/>
<path d="M40.5624 9.00896L31.8352 17.7117H31.8278L29.9058 15.7097C29.8086 15.6125 29.7189 15.5154 29.6217 15.4183C28.5822 14.38 27.3034 13.5583 25.89 13.0578L29.1356 0.978584C30.6387 1.4492 32.082 2.06175 33.4281 2.80129L34.0937 3.18974C35.6866 4.14591 37.1598 5.28884 38.461 6.58864C38.4685 6.58864 38.4685 6.59611 38.4685 6.59611L39.1266 7.27589C39.6351 7.83615 40.1212 8.41135 40.5699 9.00896H40.5624Z" fill="#009CDD"/>
<path d="M74.0653 30.1195L82.9122 38.9641C81.768 40.0398 80.5042 40.9811 79.1431 41.7953L78.4626 42.1912C76.8772 43.0652 75.1796 43.76 73.3923 44.2306C71.5302 44.7236 69.5783 44.9925 67.5667 44.9925C65.8317 44.9925 64.1416 44.7983 62.5188 44.4248L65.7793 32.3381C66.3627 32.4502 66.9609 32.51 67.5741 32.51C68.4715 32.51 69.3465 32.3904 70.1691 32.1738C71.6274 31.7854 72.9511 31.0757 74.0653 30.1121V30.1195Z" fill="#00ACEB"/>
<path d="M28.0063 30.8889L36.8233 39.8904C35.9782 40.5926 35.0659 41.2276 34.1236 41.7953L33.4132 42.1987C31.8352 43.0802 30.1377 43.7674 28.3653 44.238C26.5032 44.7311 24.5513 45 22.5322 45C20.513 45 18.5612 44.7311 16.7066 44.238C14.9267 43.76 13.2366 43.0727 11.6662 42.2062L10.9408 41.7878C9.36286 40.8466 7.91207 39.7037 6.61832 38.4114C5.32457 37.119 4.18039 35.6549 3.22316 34.0787L2.82681 33.384C2.0715 32.0468 1.46575 30.6051 1.00957 29.1036L13.0871 25.8018C13.5806 27.2361 14.4033 28.5209 15.4577 29.5817C16.6841 30.8068 18.2322 31.7181 19.9522 32.1738C20.7823 32.3979 21.6498 32.51 22.5472 32.51C23.4446 32.51 24.3195 32.3979 25.1496 32.1738C26.1816 31.8974 27.1538 31.4641 28.0288 30.8889H28.0063Z" fill="#FFA726"/>
<path d="M6.03501 7.17132L14.8819 16.0085C13.9396 17.1215 13.2217 18.4437 12.8403 19.9079C12.6159 20.7296 12.5038 21.6036 12.5038 22.5C12.5038 23.0976 12.5486 23.6803 12.6608 24.2405L0.575831 27.5349C0.194436 25.9138 0 24.2256 0 22.5C0 20.4831 0.26922 18.5334 0.770268 16.6733C1.24888 14.8954 1.93689 13.1997 2.80437 11.631L3.2082 10.9288C4.02334 9.58417 4.97309 8.32172 6.03501 7.17132Z" fill="#21BCEC"/>
<path d="M89.1192 15.9039L77.0417 19.1982C76.5407 17.7565 75.7255 16.4716 74.6636 15.4183C73.4372 14.1932 71.8892 13.2819 70.1691 12.8187C69.3391 12.6021 68.4716 12.4826 67.5742 12.4826C66.6768 12.4826 65.8018 12.6021 64.9792 12.8187C63.9472 13.1026 62.975 13.5359 62.0926 14.1111L53.2756 5.10956C54.1207 4.40737 55.033 3.77241 55.9753 3.20468L56.6857 2.79382C58.2637 1.91982 59.9612 1.23257 61.7336 0.761952C63.5957 0.268924 65.5475 0 67.5667 0C69.5858 0 71.5377 0.268924 73.3923 0.761952C75.1721 1.24004 76.8697 1.92729 78.4402 2.79382L79.1581 3.21215C80.7435 4.15339 82.1868 5.29631 83.4806 6.58865C84.7743 7.88098 85.9185 9.34512 86.8757 10.9213L87.2721 11.6086C88.0274 12.9681 88.6406 14.3949 89.0968 15.9039H89.1192Z" fill="#FFA726"/>
<path d="M107.12 33.4363V11.4069H110.627L119.765 25.9363V11.4069H124.133V33.4363H120.618L111.509 18.9143V33.4363H107.12Z" fill="black"/>
<path d="M138.349 33.5857C137.878 33.5857 137.339 33.5334 136.726 33.4363C136.12 33.3541 135.53 33.1599 134.954 32.8386C134.4 32.5174 133.944 32.0468 133.57 31.4118C133.219 30.7545 133.039 29.8655 133.039 28.7301V16.4343C133.039 15.4631 133.189 14.6489 133.481 13.9915C133.772 13.3342 134.169 12.8187 134.662 12.4452C135.156 12.0717 135.694 11.8028 136.285 11.6384C136.876 11.4816 137.452 11.3994 138.027 11.3994C139.501 11.3994 140.802 11.4218 141.916 11.4592C143.053 11.4965 144.077 11.5488 144.982 11.6086C145.887 11.6459 146.71 11.7057 147.458 11.7878V15.4781H139.321C138.715 15.4781 138.237 15.6275 137.908 15.9263C137.571 16.2251 137.407 16.6808 137.407 17.2933V20.4756L146.044 20.7146V24.1957L137.407 24.4348V27.4676C137.407 27.9831 137.489 28.3939 137.646 28.6853C137.826 28.9617 138.05 29.1633 138.327 29.2829C138.618 29.38 138.925 29.4323 139.239 29.4323H147.465V33.1225C146.598 33.2196 145.64 33.3018 144.578 33.3615C143.539 33.4213 142.477 33.4736 141.393 33.511C140.331 33.5483 139.321 33.5707 138.357 33.5707L138.349 33.5857Z" fill="black"/>
<path d="M160.515 33.4363V15.366H154.525V11.4069H170.895V15.366H164.875V33.4363H160.515Z" fill="black"/>
<path d="M178.553 33.4363V11.4069H182.92V20.5802H191.146V11.4069H195.543V33.4363H191.146V24.5393H182.92V33.4363H178.553Z" fill="black"/>
<path d="M209.909 33.5857C209.438 33.5857 208.9 33.5334 208.286 33.4363C207.681 33.3541 207.09 33.1599 206.514 32.8386C205.961 32.5174 205.504 32.0468 205.131 31.4118C204.779 30.7545 204.6 29.8655 204.6 28.7301V16.4343C204.6 15.4631 204.749 14.6489 205.041 13.9915C205.332 13.3342 205.729 12.8187 206.222 12.4452C206.716 12.0717 207.254 11.8028 207.845 11.6384C208.436 11.4816 209.012 11.3994 209.588 11.3994C211.061 11.3994 212.362 11.4218 213.476 11.4592C214.613 11.4965 215.638 11.5488 216.542 11.6086C217.447 11.6459 218.27 11.7057 219.018 11.7878V15.4781H210.881C210.276 15.4781 209.797 15.6275 209.468 15.9263C209.131 16.2251 208.967 16.6808 208.967 17.2933V20.4756L217.604 20.7146V24.1957L208.967 24.4348V27.4676C208.967 27.9831 209.049 28.3939 209.206 28.6853C209.386 28.9617 209.61 29.1633 209.887 29.2829C210.178 29.38 210.485 29.4323 210.799 29.4323H219.025V33.1225C218.158 33.2196 217.193 33.3018 216.139 33.3615C215.099 33.4213 214.037 33.4736 212.953 33.511C211.891 33.5483 210.881 33.5707 209.917 33.5707L209.909 33.5857Z" fill="black"/>
<path d="M227.498 33.4363V11.4069H236.525C237.392 11.4069 238.192 11.5189 238.94 11.7356C239.688 11.9373 240.346 12.2883 240.914 12.8038C241.483 13.3192 241.924 14.0364 242.238 14.9477C242.574 15.8591 242.739 17.0319 242.739 18.4587C242.739 19.4671 242.642 20.3337 242.447 21.0508C242.253 21.7679 241.984 22.3506 241.655 22.8063C241.341 23.262 240.974 23.628 240.563 23.9044C240.151 24.1808 239.725 24.4124 239.292 24.5916L243.36 33.4363H238.91L235.403 25.2789H234.58C234.288 25.2565 233.982 25.249 233.668 25.249H232.726C232.411 25.249 232.127 25.2415 231.873 25.2191V33.4363H227.506H227.498ZM231.866 21.7381H235.762C236.158 21.7381 236.51 21.6858 236.824 21.5886C237.138 21.4915 237.414 21.3197 237.646 21.0807C237.886 20.8192 238.058 20.4831 238.177 20.0722C238.312 19.6539 238.387 19.116 238.387 18.4661C238.387 17.8536 238.319 17.3456 238.177 16.9497C238.058 16.5314 237.886 16.2176 237.646 15.9935C237.407 15.7545 237.138 15.5976 236.824 15.5154C236.51 15.4183 236.158 15.366 235.762 15.366H231.866V21.7381Z" fill="black"/>
<path d="M250.703 33.4363L253.239 11.4069H257.426L262.444 28.2893L267.425 11.4069H271.583L274.148 33.4363H269.93L268.046 17.2112L268.726 17.2709L264.449 33.4363H260.35L256.013 17.2709L256.753 17.241L254.921 33.4363H250.703Z" fill="black"/>
<path d="M287.003 11.4069H282.636V33.4363H287.003V11.4069Z" fill="black"/>
<path d="M296.239 33.4363V11.4069H299.746L308.892 25.9363V11.4069H313.252V33.4363H309.745L300.636 18.9143V33.4363H296.239Z" fill="black"/>
<path d="M322.166 33.4363V11.4069H331.395C332.868 11.4069 334.094 11.6758 335.081 12.2136C336.061 12.7291 336.839 13.4836 337.415 14.4771C338.005 15.4482 338.417 16.6135 338.656 17.9582C338.895 19.3103 339.007 20.7968 339.007 22.4253C339.007 24.9054 338.723 26.9597 338.155 28.5882C337.602 30.2166 336.771 31.4343 335.65 32.2485C334.528 33.0403 333.115 33.4363 331.402 33.4363H322.174H322.166ZM326.534 29.4771H330.953C331.858 29.4771 332.576 29.2156 333.107 28.7002C333.638 28.1624 334.019 27.3705 334.259 26.3172C334.513 25.2639 334.64 23.9641 334.64 22.4178C334.64 20.991 334.558 19.8182 334.401 18.9069C334.244 17.9731 334.012 17.2485 333.69 16.7331C333.399 16.2176 333.01 15.8591 332.539 15.6648C332.09 15.4631 331.559 15.366 330.946 15.366H326.526V29.4771H326.534Z" fill="black"/>
</g>
<defs>
<clipPath id="clip0_4899_146">
<rect width="339" height="45" fill="white"/>
</clipPath>
</defs>
</svg>
