<svg width="200" height="38" viewBox="0 0 200 38" fill="none" xmlns="http://www.w3.org/2000/svg">
<g clip-path="url(#clip0_3697_7821)">
<path d="M67.305 16.6147C66.12 14.5391 64.44 11.2645 63.325 8.90684H63.255C63.36 11.5114 63.395 14.7456 63.395 16.9623V26.2167H59.59V5.10834H65.455L69.995 13.3754C71.425 15.9799 73.035 19.1436 74.15 21.4661H74.185C74.15 19.0378 74.115 16.4333 74.115 14.3577V5.10834H77.92V26.2167H72.715L67.3 16.6096L67.305 16.6147Z" fill="#2B2624"/>
<path d="M101.5 16.0152C101.5 11.9698 99.125 8.73051 94.725 8.73051C90.325 8.73051 87.95 11.9698 87.95 16.0152C87.95 20.4484 90.29 23.5114 94.725 23.5114C99.16 23.5114 101.5 20.4484 101.5 16.0152ZM84.005 16.0504C84.005 9.75319 88.195 5.10834 94.725 5.10834C101.255 5.10834 105.48 9.75319 105.48 16.0504C105.48 22.3477 101.465 27.1336 94.725 27.1336C87.985 27.1336 84.005 22.3829 84.005 16.0504Z" fill="#2B2624"/>
<path d="M110.95 19.6726L114.79 18.8968C115.35 21.8892 117.375 23.6474 120.585 23.6474C123.275 23.6474 124.67 22.5895 124.67 20.9018C124.67 19.2142 123.45 18.2973 119.5 17.6978C113.705 16.7809 111.85 14.4232 111.85 11.2242C111.85 7.49626 114.575 5.1033 119.67 5.1033C125.19 5.1033 127.425 8.09575 128.225 11.9648L124.315 12.7759C123.65 9.995 122.465 8.51893 119.495 8.51893C117.155 8.51893 115.865 9.57183 115.865 11.1587C115.865 12.5643 116.635 13.587 121.245 14.3628C127.145 15.3149 128.72 17.7734 128.72 20.7658C128.72 24.5643 126.1 27.1336 120.34 27.1336C113.985 27.0983 111.435 23.7583 110.945 19.6726" fill="#2B2624"/>
<path d="M133.725 5.10834H150.625V8.90684H144.165V26.2167H140.185V8.90684H133.725V5.10834Z" fill="#2B2624"/>
<path d="M160.56 8.65998V14.2922H165.31C167.72 14.2922 169.08 13.2343 169.08 11.3351C169.08 9.64739 168.1 8.65998 165.52 8.65998H160.56ZM164.05 17.8439H160.56V26.2167H156.58V5.10834H165.695C170.62 5.10834 172.995 7.3955 172.995 11.2293C172.995 14.6096 171.285 16.7557 168.21 17.5265L174.355 26.1462V26.2167H169.535L164.05 17.8439Z" fill="#2B2624"/>
<path d="M186.03 17.7028H192.56L191.65 15.2393C190.88 13.2343 190.08 11.0529 189.415 9.04789H189.17C188.505 11.0529 187.705 13.2343 186.935 15.2393L186.025 17.7028H186.03ZM193.785 20.9774H184.775L182.82 26.2217H178.7L187.08 5.10834H191.62L200 26.2217H195.705L193.785 20.9774Z" fill="#2B2624"/>
<path d="M0 22.0152L15.6 12.9421L0 3.86399V22.0152ZM19.485 15.199L0 26.5341L19.485 37.8691L38.965 26.5341V3.86399L19.485 15.199ZM19.24 0L10.3 5.34006L19.48 10.6801L28.66 5.34006L19.235 0H19.24Z" fill="#FF4240"/>
</g>
<defs>
<clipPath id="clip0_3697_7821">
<rect width="200" height="37.8641" fill="white"/>
</clipPath>
</defs>
</svg>
