<svg width="227" height="45" viewBox="0 0 227 45" fill="none" xmlns="http://www.w3.org/2000/svg">
<path d="M19.2107 0.140484C14.1947 0.942005 9.72168 3.34657 6.0502 7.2249C2.06844 11.4135 0 16.5846 0 22.4021C0 28.4006 2.04259 33.6493 6.0502 37.8379C9.17872 41.1474 12.6951 43.2675 17.0129 44.431C19.8571 45.2067 25.1574 45.1808 28.0533 44.4052C34.6981 42.6211 40.2571 37.993 43.0236 31.9169L43.9027 29.9778L45.816 29.8226C46.8502 29.7451 48.1689 29.5382 48.7377 29.3314L49.7719 28.9953V26.539V24.0827L48.3499 24.1861C45.0145 24.4188 45.1179 24.4447 45.0403 23.4622C44.9886 22.9968 45.0403 22.5055 45.1696 22.3762C45.273 22.2728 46.2297 21.9884 47.2898 21.7816C48.324 21.5489 49.3324 21.2386 49.5392 21.0835C49.7978 20.8766 49.9012 20.1527 49.9012 18.653C49.9012 16.0675 49.6943 15.8089 48.0396 16.1709C47.4449 16.3002 46.359 16.4812 45.6867 16.5588C44.2905 16.7139 44.4715 16.9207 43.3339 13.8439C42.7651 12.2926 41.2913 9.83631 39.8175 8.02642C37.1544 4.74277 32.0867 1.61425 27.7947 0.554173C25.7004 0.0629196 21.1757 -0.169781 19.2107 0.140484ZM27.1483 6.26825C29.5529 6.96635 32.0867 8.46597 34.0776 10.3534C35.9133 12.0857 37.9301 14.9299 37.6457 15.3953C37.5681 15.4987 36.7666 15.447 35.8875 15.2143C34.1035 14.7747 28.2084 14.6196 26.5795 14.9816C25.0282 15.3177 24.8213 15.6797 24.8213 18.1101C24.8213 20.8508 24.9764 21.0318 27.0707 20.5664C27.8981 20.3854 29.9149 20.2561 31.5438 20.2561C33.9742 20.2819 34.9567 20.4112 36.8441 20.98C38.1111 21.342 39.2487 21.8074 39.3521 21.9626C39.5073 22.2211 39.378 23.2812 39.1453 23.7466C39.0936 23.8242 38.1886 23.6949 37.1803 23.4105C33.0175 22.3504 27.6913 22.2728 25.6487 23.2295C24.9764 23.5656 24.9506 23.669 24.873 25.815C24.7696 28.7884 24.8989 28.9177 27.4586 28.4264C31.1301 27.7025 37.7491 28.4523 37.7491 29.5899C37.7491 30.3915 35.7324 33.158 33.8708 34.8903C30.6388 37.9671 25.778 39.7253 21.4601 39.3892C19.1331 39.2082 15.927 38.2257 14.0396 37.1398C11.1179 35.4591 8.19621 32.0721 6.80001 28.7367C5.42966 25.5048 5.32624 20.4629 6.54145 17.0241C8.55818 11.2584 14.0396 6.68193 20.038 5.75114C21.486 5.54429 25.7263 5.8287 27.1483 6.26825Z" fill="black"/>
<path d="M74.6449 11.8013C71.594 12.3443 69.0601 14.3869 67.9484 17.2051C67.4571 18.4462 67.3795 19.1443 67.3537 22.2728C67.3537 25.453 67.4313 26.0736 67.9484 27.3663C68.7757 29.4348 70.4563 31.193 72.4472 32.1238C73.9468 32.796 74.3088 32.8477 77.0495 32.8477C80.4883 32.8477 82.143 32.3565 83.9788 30.8051C87.4693 27.8059 88.1674 19.6873 85.3491 15.3952C84.4183 13.999 82.8153 12.7838 81.083 12.215C79.5575 11.6979 76.3514 11.491 74.6449 11.8013ZM79.1955 15.5245C80.2556 15.9641 81.5484 17.412 81.9879 18.7047C82.2206 19.2994 82.3499 20.7732 82.3499 22.4279C82.3499 24.9618 82.2982 25.272 81.5742 26.6682C80.5142 28.7367 79.1955 29.4606 76.7651 29.3314C73.5332 29.1504 72.1111 27.2888 71.9301 22.8933C71.8008 20.1268 72.2404 18.0842 73.2229 16.8431C74.3864 15.3694 77.2822 14.723 79.1955 15.5245Z" fill="black"/>
<path d="M149.859 11.8013C147.092 12.2926 144.688 14.1025 143.55 16.5587C142.076 19.6614 142.128 25.453 143.653 28.3747C145.282 31.5291 149.005 33.2614 153.401 32.9253C159.296 32.4858 162.373 28.7367 162.373 22.0401C162.373 17.1276 160.02 13.3009 156.297 12.1633C154.668 11.672 151.513 11.4911 149.859 11.8013ZM154.9 15.7572C155.78 16.2226 156.219 16.688 156.814 17.8774C157.538 19.2994 157.589 19.5838 157.589 22.247C157.589 24.9101 157.538 25.2203 156.814 26.6683C156.193 27.9352 155.831 28.323 154.875 28.8143C152.548 29.9778 149.6 29.3314 148.307 27.3664C146.653 24.8842 146.704 19.377 148.385 17.0241C149.652 15.2143 152.729 14.6196 154.9 15.7572Z" fill="black"/>
<path d="M113.066 17.231C110.713 17.7223 108.929 19.2736 108.05 21.6006C107.611 22.79 107.533 23.4622 107.611 25.5048C107.688 27.625 107.818 28.1421 108.464 29.3573C110.351 32.8219 114.824 33.9079 119.84 32.1497C121.779 31.4774 121.754 31.5033 121.107 29.7451L120.694 28.685L119.116 29.1763C116.789 29.9002 114.023 29.7451 113.092 28.8402C112.73 28.4782 112.291 27.7284 112.084 27.1596L111.748 26.1512L116.893 26.0736L122.038 26.0219V24.393C122.038 21.1352 120.745 18.7048 118.496 17.6964C117.203 17.1276 114.592 16.8949 113.066 17.231ZM116.583 20.463C117.229 20.7991 117.513 21.2645 118.005 22.7124C118.134 23.152 117.875 23.1778 115.057 23.1778C111.618 23.1778 111.515 23.1261 112.549 21.6006C113.532 20.1269 115.083 19.6873 116.583 20.463Z" fill="black"/>
<path d="M133.932 17.1276C133.725 17.1534 133.104 17.2569 132.587 17.3603C132.044 17.4378 131.088 17.9032 130.441 18.4204C129.226 19.3253 129.2 19.3253 128.916 17.9291C128.761 17.2569 128.709 17.231 126.951 17.231H125.141V24.9877V32.7443H127.338H129.536V27.3664V21.9884L130.312 21.2386C130.932 20.6439 131.372 20.4629 132.587 20.3854C133.854 20.3078 134.139 20.3595 134.578 20.8508C135.043 21.3679 135.095 21.8591 135.173 27.082L135.25 32.7443H137.448H139.62V27.1078C139.62 24.031 139.491 21.0576 139.361 20.5405C139.025 19.4029 138.017 18.1359 137.06 17.6447C136.362 17.2827 134.578 16.9983 133.932 17.1276Z" fill="black"/>
<path d="M170.44 17.2569C168.604 17.5672 167.26 18.2911 166.174 19.5839C164.933 21.006 164.441 22.5831 164.441 25.0136C164.441 30.1847 166.975 32.8219 171.939 32.8478C174.008 32.8736 176.438 32.4082 176.723 31.9687C176.8 31.8394 176.723 31.1672 176.542 30.4174C176.257 29.1763 176.206 29.0987 175.585 29.228C173.646 29.6934 171.81 29.6676 170.905 29.1763C169.664 28.5041 168.837 26.8493 168.837 24.9877C168.863 21.3162 171.345 19.5063 174.732 20.6957L175.766 21.0577L176.283 19.739C176.748 18.498 176.774 18.3687 176.387 18.0584C175.43 17.3086 172.456 16.8949 170.44 17.2569Z" fill="black"/>
<path d="M184.479 17.1276C184.195 17.2052 183.523 17.3862 182.954 17.5154C182.385 17.6706 181.454 18.2653 180.704 18.9634C179.05 20.5147 178.403 22.2211 178.403 24.9877C178.403 28.504 179.67 30.9086 182.23 32.1497C183.523 32.7961 183.988 32.8736 186.16 32.8736C188.047 32.8736 189.056 32.7185 190.504 32.2531C191.538 31.917 192.417 31.5809 192.469 31.4774C192.52 31.3999 192.339 30.7276 192.081 30.0037L191.564 28.6592L190.012 29.1504C188.228 29.7193 185.565 29.7968 184.609 29.3056C183.807 28.8919 182.799 27.4181 182.799 26.6424V26.0219H187.84H192.882V24.1345C192.856 19.8166 190.762 17.3862 186.78 17.1276C185.798 17.05 184.764 17.05 184.479 17.1276ZM187.453 20.463C188.254 20.8767 188.564 21.3162 188.849 22.4538L189.004 23.1778H185.901C184.195 23.1778 182.799 23.1261 182.799 23.0485C182.799 22.6348 183.574 21.1869 183.988 20.8249C184.893 20.0493 186.341 19.8941 187.453 20.463Z" fill="black"/>
<path d="M199.217 17.2568C196.786 17.7222 195.416 18.2911 195.597 18.7047C195.675 18.9374 195.856 19.6097 196.011 20.2044L196.295 21.3162L197.355 20.9283C197.95 20.7215 199.32 20.4888 200.38 20.4112C202.216 20.2819 202.371 20.3078 203.173 20.98C203.742 21.4454 204 21.9108 204 22.4021C204 23.126 204 23.126 201.751 23.307C199.01 23.5397 197.536 23.9534 196.373 24.8584C195.158 25.7633 194.615 26.9009 194.615 28.4781C194.615 30.8051 195.804 32.2013 198.234 32.7702C199.941 33.1838 201.596 32.8994 203.069 31.9686C203.742 31.5291 204.31 31.193 204.388 31.193C204.44 31.193 204.543 31.5291 204.647 31.9686L204.828 32.7443H206.741H208.654V28.142C208.654 25.634 208.525 22.8675 208.396 22.0143C207.904 18.9116 205.965 17.3344 202.449 17.1276C201.389 17.05 199.941 17.1017 199.217 17.2568ZM204 27.2888C204 28.7367 203.948 28.8401 203.173 29.3314C201.311 30.4432 199.398 30.2363 198.829 28.866C198.131 27.2112 199.837 25.7633 202.526 25.7633H204V27.2888Z" fill="black"/>
<path d="M220.806 17.1534C219.41 17.3861 218.298 17.8257 217.367 18.5755C216.359 19.3512 216.359 19.3512 216.049 17.9291C215.894 17.2569 215.842 17.231 214.084 17.231H212.274V24.9877V32.7443H214.472H216.669V27.3664C216.669 22.1177 216.695 21.9626 217.264 21.4455C218.169 20.6181 218.867 20.3337 220.108 20.3337C222.151 20.3337 222.228 20.5147 222.306 27.082L222.383 32.7443H224.581H226.779L226.701 26.5907C226.624 20.9801 226.572 20.3854 226.081 19.4287C225.253 17.8257 222.901 16.8173 220.806 17.1534Z" fill="black"/>
<path d="M90.4168 17.412C90.3133 17.4896 90.2358 22.5055 90.2358 28.5299V39.4926L92.5111 39.415L94.7605 39.3375L94.8381 36.0538L94.9156 32.7702L96.5187 32.9253C99.3886 33.1839 102.646 31.9687 103.913 30.1846C105.62 27.8059 106.085 24.3154 105.103 21.3937C104.534 19.6614 102.957 18.0067 101.457 17.5413C99.1301 16.869 96.3118 17.3086 94.9673 18.5755L94.3985 19.0926L94.0107 18.1618C93.6229 17.231 93.597 17.231 92.0974 17.231C91.27 17.231 90.4943 17.3086 90.4168 17.412ZM99.5179 20.7215C100.526 21.2386 101.095 22.7641 101.095 24.9359C101.095 28.1679 99.6213 29.9002 96.9065 29.9002C94.8122 29.9002 94.8898 30.0553 94.8898 25.8409V22.0918L95.7689 21.2128C96.4928 20.4888 96.8548 20.3337 97.708 20.3337C98.3027 20.3337 99.1301 20.5147 99.5179 20.7215Z" fill="black"/>
</svg>
