<svg width="200" height="55" viewBox="0 0 200 55" fill="none" xmlns="http://www.w3.org/2000/svg">
<path d="M76.0368 15.0993C72.3293 15.0993 69.4308 17.2563 69.4308 20.3571C69.4308 23.4579 71.8575 24.469 74.8909 25.0757L78.7331 25.6823C83.7887 26.4912 87.294 28.8505 87.294 34.378C87.294 40.1751 82.5754 43.5455 76.5086 43.5455C71.0486 43.5455 65.9256 40.3099 65.1841 34.0409C65.1167 33.5017 65.5211 33.0298 66.0604 33.0298H68.3523C68.7567 33.0298 69.1612 33.3669 69.2286 33.7713C69.7004 38.2203 73.1382 39.9729 76.5086 39.9729C80.2161 39.9729 83.1147 38.1528 83.1147 34.4454C83.1147 31.1424 80.7554 29.9965 77.6546 29.3898L73.8797 28.7157C68.6219 27.8394 65.3189 25.2779 65.3189 20.4919C65.3189 14.897 70.1723 11.4592 76.0368 11.4592C80.688 11.4592 85.8784 14.0881 86.8895 20.3571C86.9569 20.8964 86.5525 21.3682 86.0132 21.3682H83.5865C83.1821 21.3682 82.7776 21.0312 82.7102 20.6267C82.0361 16.6496 79.0028 15.0993 76.0368 15.0993Z" fill="#101010"/>
<path d="M102.393 18.5374C108.055 18.5374 112.032 21.5707 113.448 26.4915C113.583 27.0308 113.178 27.6375 112.572 27.6375H109.943C109.538 27.6375 109.269 27.3678 109.134 27.0308C108.123 24.1996 105.898 22.6493 102.393 22.6493C97.6745 22.6493 95.0455 26.4915 95.0455 31.1427C95.0455 35.7264 97.6745 39.6361 102.393 39.6361C105.831 39.6361 108.123 38.0183 109.134 35.2546C109.269 34.9175 109.606 34.6479 109.943 34.6479H112.572C113.178 34.6479 113.583 35.1872 113.381 35.7938C111.898 40.9169 107.988 43.748 102.326 43.748C95.0456 43.748 90.4618 38.1531 90.4618 31.2101C90.5292 24.1996 95.1804 18.5374 102.393 18.5374Z" fill="#101010"/>
<path d="M117.762 39.5685H123.424V23.795H118.368C117.897 23.795 117.492 23.3906 117.492 22.9187V20.6942C117.492 20.2224 117.897 19.8179 118.368 19.8179H125.244C126.66 19.8179 127.873 21.0313 127.873 22.4468V23.0535C129.154 20.0201 131.85 19.2787 136.029 19.2787C137.647 19.2787 138.726 19.5483 139.332 19.7505C139.669 19.8853 139.872 20.2224 139.872 20.5594V22.9187C139.872 23.5254 139.332 23.9298 138.726 23.7276C137.984 23.458 136.906 23.2557 135.557 23.2557C131.109 23.2557 127.94 26.2891 127.94 31.6144V39.5685H135.22C135.692 39.5685 136.097 39.973 136.097 40.4448V42.6693C136.097 43.1411 135.692 43.5456 135.22 43.5456H117.762C117.29 43.5456 116.885 43.1411 116.885 42.6693V40.4448C116.885 39.973 117.29 39.5685 117.762 39.5685Z" fill="#101010"/>
<path d="M143.242 31.0753C143.242 24.1996 147.826 18.5374 155.241 18.5374C162.656 18.5374 167.239 24.1322 167.239 31.0753C167.239 37.9509 162.656 43.6132 155.241 43.6132C147.759 43.5458 143.242 37.9509 143.242 31.0753ZM155.173 39.5013C159.959 39.5013 162.656 35.659 162.656 31.0079C162.656 26.4241 159.892 22.5144 155.173 22.5144C150.387 22.5144 147.691 26.3567 147.691 31.0079C147.691 35.659 150.455 39.5013 155.173 39.5013Z" fill="#101010"/>
<path d="M177.081 39.7707H183.957C184.429 39.7707 184.833 40.1751 184.833 40.647V42.7367C184.833 43.2085 184.429 43.613 183.957 43.613H173.711C173.239 43.613 172.835 43.2085 172.835 42.7367V15.6386H169.397C168.925 15.6386 168.521 15.2341 168.521 14.7623V12.6726C168.521 12.2008 168.925 11.7963 169.397 11.7963H174.452C175.868 11.7963 177.081 13.0097 177.081 14.4252V39.7707Z" fill="#101010"/>
<path d="M192.248 39.7707H199.124C199.595 39.7707 200 40.1751 200 40.647V42.7367C200 43.2085 199.595 43.613 199.124 43.613H188.877C188.406 43.613 188.001 43.2085 188.001 42.7367V15.6386H184.563C184.091 15.6386 183.687 15.2341 183.687 14.7623V12.6726C183.687 12.2008 184.091 11.7963 184.563 11.7963H189.619C191.035 11.7963 192.248 13.0097 192.248 14.4252V39.7707Z" fill="#101010"/>
<path d="M51.5672 37.1419V4.85339C51.4998 2.15706 49.3428 0 46.6464 0H13.0772C5.7971 0.134816 0 6.06673 0 13.3468C0 15.7735 0.674082 17.9306 1.6852 19.7506C2.56151 21.301 3.90967 22.7166 5.19043 23.7951C5.59488 24.1321 5.39265 23.9973 6.53859 24.6714C8.08898 25.6151 9.909 26.087 9.909 26.087V45.3657C9.97641 46.3094 10.0438 47.1857 10.3134 47.9946C11.0549 50.6909 12.9424 52.7806 15.5039 53.7917C16.5824 54.1962 17.7958 54.4658 19.0765 54.5332L45.8375 54.668C51.1628 54.668 55.5443 50.3539 55.5443 44.9612C55.5443 41.7931 53.9939 38.8945 51.5672 37.1419Z" fill="#FFEEDA"/>
<path d="M52.2413 45.1633C52.1065 48.6011 49.2753 51.3649 45.8375 51.3649L27.3677 51.2975C28.8507 49.6123 29.727 47.3878 29.727 44.9611C29.727 41.1862 27.5025 38.5573 27.5025 38.5573H45.9049C49.4102 38.5573 52.3087 41.4559 52.3087 44.9611L52.2413 45.1633Z" fill="#EBC28E"/>
<path d="M6.94304 21.0988C4.78598 19.0765 3.303 16.4476 3.303 13.3468V13.0098C3.50522 7.75194 7.81935 3.43782 13.0772 3.303H46.7139C47.5902 3.37041 48.2642 3.97708 48.2642 4.85339V33.367C49.0057 33.5019 49.4102 33.6367 50.1517 33.8389C50.7583 34.0411 51.5672 34.513 51.5672 34.513V4.85339C51.4998 2.15706 49.3428 0 46.6464 0H13.0772C5.7971 0.134816 0 6.06673 0 13.3468C0 17.5935 1.95484 21.2336 5.05561 23.7277C5.25784 23.9299 5.46006 24.1321 6.06673 24.1321C7.07786 24.1321 7.75194 23.3232 7.68453 22.5143C7.68453 21.7728 7.4149 21.5032 6.94304 21.0988Z" fill="#101010"/>
<path d="M45.8378 35.2545H19.4812C17.7286 35.2545 16.313 36.6701 16.313 38.4901V42.265C16.3805 44.0176 17.8634 45.5006 19.616 45.5006H21.5709V42.265H19.616V38.5575C19.616 38.5575 20.0879 38.5575 20.6946 38.5575C23.9976 38.5575 26.4917 41.6583 26.4917 44.9613C26.4917 47.9273 23.7954 51.6347 19.3464 51.3651C15.3693 51.0954 13.2123 47.5902 13.2123 44.9613V12.8076C13.2123 11.392 11.9989 10.1787 10.5834 10.1787H7.95444V13.4817H9.90927V45.0287C9.77446 51.4325 14.493 54.6681 19.3464 54.6681L45.9052 54.7355C51.2305 54.7355 55.612 50.4214 55.612 45.0287C55.5446 39.6361 51.2305 35.2545 45.8378 35.2545ZM52.2416 45.1635C52.1068 48.6013 49.2756 51.3651 45.8378 51.3651L27.368 51.2977C28.851 49.6125 29.7273 47.388 29.7273 44.9613C29.7273 41.1864 27.5028 38.5575 27.5028 38.5575H45.9052C49.4104 38.5575 52.309 41.4561 52.309 44.9613L52.2416 45.1635Z" fill="#101010"/>
<path d="M38.7595 14.021H18.8741V10.7854H38.7595C39.6358 10.7854 40.3773 11.5269 40.3773 12.4032C40.3773 13.2795 39.7032 14.021 38.7595 14.021Z" fill="#101010"/>
<path d="M38.7595 29.5248H18.8741V26.2218H38.7595C39.6358 26.2218 40.3773 26.9633 40.3773 27.8396C40.3773 28.7833 39.7032 29.5248 38.7595 29.5248Z" fill="#101010"/>
<path d="M42.2647 21.7728H18.8741V18.4698H42.2647C43.141 18.4698 43.8825 19.2113 43.8825 20.0876C43.8825 21.0314 43.141 21.7728 42.2647 21.7728Z" fill="#101010"/>
</svg>
