<svg width="202" height="49" viewBox="0 0 202 49" fill="none" xmlns="http://www.w3.org/2000/svg">
<path d="M2.61775 24.4322C2.61775 36.4677 12.4672 46.2242 24.6174 46.2242C36.7677 46.2242 46.6177 36.4677 46.6177 24.4322C46.6177 12.3967 36.7677 2.64011 24.6174 2.64011C12.4672 2.64011 2.61775 12.3966 2.61775 24.4322Z" fill="#0C0C4F" stroke="#EC796B" stroke-width="4"/>
<path fill-rule="evenodd" clip-rule="evenodd" d="M14.6618 19.1649L15.219 17.4598C15.3322 17.1129 15.6085 16.8431 15.9599 16.7367L17.6897 16.2097C17.9292 16.1373 17.9311 15.8027 17.6936 15.7264L15.9716 15.1745C15.6221 15.0623 15.3497 14.7886 15.2416 14.4405L14.7103 12.727C14.6372 12.4905 14.2994 12.4879 14.2224 12.7238L13.6652 14.429C13.5519 14.7751 13.2756 15.045 12.9242 15.152L11.1944 15.6783C10.955 15.7514 10.9524 16.0854 11.1905 16.1617L12.9126 16.7136C13.262 16.8258 13.5345 17.1001 13.6425 17.4482L14.1739 19.161C14.247 19.3982 14.5848 19.4008 14.6618 19.1649Z" fill="#FAFAFA"/>
<path fill-rule="evenodd" clip-rule="evenodd" d="M42.0029 18.1725C41.29 17.3826 40.1769 16.9378 39.0949 16.7554C38.0043 16.5803 36.8606 16.5965 35.784 16.786C33.6054 17.151 31.6263 18.0446 29.9001 19.1469C29.0036 19.6879 28.2392 20.3139 27.4472 20.9514C27.0656 21.2739 26.7177 21.6172 26.3553 21.9556L25.3653 22.9314C24.2895 24.0453 23.2291 25.0599 22.2032 25.9008C21.1731 26.7379 20.21 27.3736 19.2609 27.8176C18.3125 28.2638 17.2976 28.5263 15.9747 28.5683C14.6635 28.6141 13.1122 28.3797 11.4529 27.9928C9.78457 27.6075 8.03268 27.0585 6.075 26.586C6.75808 28.4632 7.78671 30.122 9.10737 31.6383C10.4435 33.1284 12.112 34.4866 14.2553 35.3798C16.3677 36.2928 19.0222 36.6206 21.5043 36.1261C23.993 35.6515 26.177 34.5107 27.9423 33.1915C29.7121 31.8588 31.144 30.3407 32.3511 28.7622C32.6843 28.3261 32.8606 28.0821 33.1017 27.7412L33.7683 26.7632C34.2314 26.1583 34.6531 25.4696 35.1117 24.8702C36.0106 23.615 36.8966 22.3612 37.9263 21.2061C38.4446 20.6202 38.9911 20.0598 39.6363 19.5212C39.9583 19.2583 40.3057 19.0011 40.6909 18.7693C41.0817 18.5194 41.4946 18.3237 42.0029 18.1725Z" fill="#EC796B"/>
<path fill-rule="evenodd" clip-rule="evenodd" d="M42.0029 18.1724C41.2369 16.2575 39.8126 14.6456 37.9011 13.4562C36.0009 12.2798 33.362 11.6794 30.7471 12.1912C29.4551 12.4387 28.2035 12.9152 27.1052 13.5497C26.0118 14.1817 25.032 14.9425 24.1838 15.7587C23.7604 16.1682 23.376 16.5953 22.9942 17.0249L22.0045 18.2748L20.476 20.2867C18.5273 22.8753 16.4289 25.909 12.9853 26.8079C9.6046 27.6903 8.13834 26.9088 6.075 26.5859C6.45228 27.5508 6.9196 28.4878 7.55317 29.3121C8.17491 30.1531 8.90928 30.9429 9.82231 31.6199C10.2837 31.9451 10.7709 32.266 11.3119 32.5383C11.8505 32.8012 12.4313 33.0327 13.0512 33.2071C14.2844 33.5419 15.6727 33.6591 17.0169 33.4791C18.3617 33.3013 19.6471 32.8791 20.7707 32.3184C21.9026 31.7631 22.8886 31.0867 23.7691 30.3729C25.5192 28.9332 26.8805 27.3424 28.0304 25.7345C28.6088 24.9305 29.1339 24.1114 29.6194 23.2921L30.1909 22.3166C30.3657 22.0315 30.5424 21.7446 30.722 21.4774C31.446 20.4039 32.1543 19.5432 33.0146 18.8971C33.8629 18.2343 35.0443 17.7446 36.6229 17.6309C38.1949 17.5158 40.0097 17.7284 42.0029 18.1724Z" fill="#FAFAFA"/>
<path fill-rule="evenodd" clip-rule="evenodd" d="M33.498 34.0827C33.498 35.489 34.6497 36.6299 36.0694 36.6299C37.4894 36.6299 38.6394 35.489 38.6394 34.0827C38.6394 32.6764 37.4894 31.5356 36.0694 31.5356C34.6497 31.5356 33.498 32.6764 33.498 34.0827Z" fill="#EC796B"/>
<path d="M199.313 18.1803V15.6084C199.313 15.5064 199.23 15.4238 199.127 15.4238H184.333C184.23 15.4238 184.146 15.5064 184.146 15.6084V18.1803H190.159V34.8191H193.3V18.1803H199.313Z" fill="#0C0C4F"/>
<path d="M168.684 15.4238C168.581 15.4238 168.498 15.5064 168.498 15.6084V34.6343C168.498 34.7362 168.581 34.8191 168.684 34.8191H181.134C181.237 34.8191 181.32 34.7362 181.32 34.6343V32.0897H171.639V25.9942H179.638V23.3196H171.639V18.153H180.631V15.6084C180.631 15.5064 180.547 15.4238 180.444 15.4238H168.684Z" fill="#0C0C4F"/>
<path d="M161.465 34.7062L161.533 34.8191H163.946C164.049 34.8191 164.132 34.7362 164.132 34.6343V15.6084C164.132 15.5064 164.049 15.4238 163.946 15.4238H161.046V28.856C160.543 28.0621 159.958 27.188 159.292 26.2342C158.445 24.9928 157.533 23.7335 156.556 22.4563C155.599 21.1609 154.622 19.911 153.627 18.7064C152.65 17.4828 151.727 16.4126 150.857 15.4965L150.789 15.4238H148.517C148.414 15.4238 148.331 15.5064 148.331 15.6084V34.6343C148.331 34.7362 148.414 34.8191 148.517 34.8191H151.417V20.4295C151.814 20.8934 152.236 21.4074 152.683 21.9718C153.288 22.7344 153.912 23.5518 154.554 24.4241L154.555 24.425L154.555 24.4259C155.197 25.2795 155.839 26.1696 156.481 27.0962L156.482 27.0974L156.483 27.0987C157.143 28.0257 157.776 28.9436 158.381 29.8522L158.382 29.8531L158.383 29.8539C158.988 30.7437 159.547 31.606 160.059 32.4406L160.06 32.4421L160.061 32.4438C160.594 33.2801 161.062 34.0343 161.465 34.7062Z" fill="#0C0C4F"/>
<path d="M144.537 15.8101L144.608 15.7328C144.717 15.6143 144.632 15.4238 144.47 15.4238H141.031L140.961 15.5039C140.504 16.0284 139.937 16.6449 139.258 17.3536C138.597 18.0448 137.89 18.7726 137.137 19.5369C136.384 20.3009 135.622 21.0649 134.851 21.8289C134.234 22.4255 133.658 22.9754 133.123 23.4785V15.4238H130.169C130.066 15.4238 129.982 15.5064 129.982 15.6084V34.6343C129.982 34.7362 130.066 34.8191 130.169 34.8191H133.123V26.0202C133.772 26.4408 134.435 26.9331 135.113 27.4974L135.114 27.4982L135.115 27.499C135.935 28.1673 136.738 28.8993 137.523 29.6951L137.525 29.697L137.527 29.6988C138.329 30.4759 139.087 31.2981 139.798 32.1656L139.799 32.1664L139.8 32.1675C140.511 33.0169 141.14 33.8651 141.686 34.7124L141.754 34.8191H145.107C145.25 34.8191 145.34 34.6655 145.269 34.5423L145.229 34.4733C144.725 33.6058 144.094 32.6954 143.335 31.7416C142.595 30.7892 141.8 29.8556 140.95 28.9404C140.1 28.025 139.231 27.1643 138.344 26.3583C137.54 25.6282 136.771 25.0014 136.039 24.4786C136.662 23.8765 137.322 23.2299 138.02 22.5388C138.793 21.7732 139.566 20.9984 140.339 20.2146C141.13 19.4125 141.885 18.6376 142.603 17.8901L142.603 17.889L142.605 17.888C143.322 17.1226 143.966 16.43 144.537 15.8101Z" fill="#0C0C4F"/>
<path fill-rule="evenodd" clip-rule="evenodd" d="M112.15 15.2784C112.047 15.2784 111.964 15.3611 111.964 15.463V34.646C111.964 34.7481 112.047 34.8308 112.15 34.8308H114.812V27.7777H118.701C119.138 28.2966 119.565 28.8395 119.981 29.4063L119.982 29.4085L119.984 29.4106C120.665 30.2946 121.293 31.2166 121.871 32.1772L121.871 32.178L121.872 32.1792C122.395 33.0291 122.851 33.8685 123.241 34.6975L123.304 34.8308H126.454C126.589 34.8308 126.679 34.6929 126.623 34.5712C126.261 33.785 125.868 33.0149 125.432 32.2649C124.839 31.2166 124.189 30.1786 123.482 29.1511C123.078 28.564 122.665 27.9936 122.244 27.4399C123.419 27.0841 124.348 26.4406 125.021 25.5067L125.021 25.5059C125.828 24.3757 126.228 23.0463 126.228 21.528C126.228 20.4847 126.045 19.53 125.675 18.6674C125.303 17.7922 124.743 17.0664 123.997 16.4938C123.257 15.9181 122.344 15.5518 121.27 15.3876C121.019 15.3418 120.76 15.3144 120.493 15.3051C120.233 15.2873 120.005 15.2783 119.812 15.2783C118.995 15.2783 118.179 15.2782 117.362 15.2781C115.625 15.278 113.887 15.2778 112.15 15.2784ZM123.327 21.528C123.327 22.0319 123.242 22.5278 123.072 23.0166C122.905 23.486 122.64 23.8975 122.273 24.253C121.925 24.5897 121.466 24.8285 120.884 24.9621C120.7 25.0035 120.502 25.0329 120.289 25.0498L120.288 25.0498L120.288 25.0499C120.079 25.0672 119.893 25.0756 119.732 25.0756H114.812V17.9804H119.732C119.893 17.9804 120.079 17.9888 120.288 18.0061L120.293 18.0065L120.298 18.0067C120.505 18.0149 120.697 18.0436 120.875 18.0916L120.881 18.0932L120.887 18.0945C121.466 18.2192 121.923 18.4571 122.271 18.8011L122.271 18.802L122.273 18.8029C122.639 19.1579 122.905 19.5736 123.072 20.0521V20.0527L123.072 20.0533C123.242 20.5327 123.327 21.0239 123.327 21.528Z" fill="#0C0C4F"/>
<path fill-rule="evenodd" clip-rule="evenodd" d="M104.975 32.2584L104.975 32.2592L104.975 32.2601C105.252 33.0452 105.547 33.8484 105.86 34.6697L105.917 34.8191H109.068C109.197 34.8191 109.287 34.6918 109.243 34.5712C108.555 32.6979 107.86 30.8269 107.151 28.9612C106.507 27.2478 105.872 25.6252 105.246 24.0934C104.639 22.5616 104.031 21.1024 103.423 19.7158C102.814 18.3066 102.172 16.9113 101.504 15.5285C101.473 15.4645 101.407 15.4238 101.336 15.4238H98.8223C98.7506 15.4238 98.6851 15.4645 98.6543 15.5285C97.9857 16.9114 97.3443 18.3067 96.7346 19.7159C96.1269 21.102 95.5103 22.5608 94.8846 24.0922L94.884 24.0933L94.8837 24.0944C94.2763 25.6257 93.6506 27.2479 93.0068 28.9611C92.2977 30.8269 91.6028 32.6979 90.9146 34.5712C90.8703 34.6918 90.9603 34.8191 91.0897 34.8191H94.1063L94.1066 34.8188H94.1654L94.2346 34.7453C94.9623 33.9715 95.7757 33.2119 96.6751 32.467L96.676 32.4664L96.6768 32.4655C97.5797 31.702 98.5211 30.9939 99.5008 30.3409L99.5031 30.3395L99.5051 30.3378C100.47 29.6624 101.442 29.0562 102.419 28.5192L102.42 28.5186L102.421 28.5179C102.773 28.3195 103.12 28.1346 103.461 27.9633L104.121 29.8291L104.121 29.8305C104.415 30.6491 104.699 31.4583 104.975 32.2584ZM101.585 23.0583L101.585 23.0599L101.586 23.0615C101.851 23.727 102.117 24.4037 102.382 25.0916C102.363 25.1003 102.342 25.1093 102.322 25.1186C101.388 25.54 100.384 26.0847 99.3103 26.7517C98.2826 27.3902 97.2628 28.0839 96.2514 28.8327L96.6797 27.6212C97.2463 26.0465 97.8128 24.5261 98.3794 23.0598C98.9003 21.7375 99.4428 20.4656 100.007 19.2441C100.554 20.4651 101.08 21.7365 101.585 23.0583Z" fill="#0C0C4F"/>
<path d="M91.6837 18.1803V15.6084C91.6837 15.5064 91.6003 15.4238 91.4971 15.4238H76.7031C76.6003 15.4238 76.5168 15.5064 76.5168 15.6084V18.1803H82.5294V34.6343C82.5294 34.7362 82.6129 34.8191 82.716 34.8191H85.4846C85.5874 34.8191 85.6708 34.7362 85.6708 34.6343V18.1803H91.6837Z" fill="#0C0C4F"/>
<path d="M62.9423 34.5831L62.9414 34.5828C61.802 34.1017 60.8543 33.4148 60.1029 32.5216L60.102 32.5205L60.1012 32.5196C59.3574 31.6151 58.8743 30.5487 58.65 29.326C58.6389 29.2649 58.6529 29.2018 58.6892 29.1511C58.7254 29.1004 58.7809 29.0664 58.8429 29.0567L61.3489 28.6655C61.4674 28.647 61.5809 28.7208 61.6106 28.836C61.9151 30.008 62.542 30.9177 63.4923 31.5772C64.4569 32.2309 65.5943 32.5612 66.9143 32.5612C67.7706 32.5612 68.5357 32.4302 69.2132 32.1724C69.8983 31.9058 70.4303 31.5319 70.8186 31.0553C71.2006 30.5866 71.3934 30.0315 71.3934 29.3791C71.3934 28.9741 71.3209 28.6426 71.1863 28.3761C71.1851 28.3737 71.184 28.3713 71.1829 28.3689C71.052 28.0851 70.8691 27.8479 70.6334 27.6548C70.6311 27.653 70.6289 27.6511 70.6269 27.6492C70.3903 27.44 70.1186 27.2631 69.8109 27.1191C69.496 26.9718 69.1677 26.8503 68.8257 26.7548L68.8226 26.7539L63.824 25.2833C63.2674 25.118 62.7294 24.9112 62.21 24.6631L62.2086 24.6624L62.2069 24.6616C61.6794 24.4004 61.2069 24.0776 60.7903 23.6932L60.7891 23.692L60.7883 23.6913C60.366 23.292 60.0312 22.8174 59.7834 22.2698L59.7829 22.2684C59.5309 21.7023 59.4089 21.0442 59.4089 20.3002C59.4089 19.1074 59.72 18.0775 60.3529 17.2229L60.3531 17.2225C60.9886 16.3675 61.8454 15.7177 62.9152 15.2715C63.9837 14.8259 65.1823 14.6102 66.5074 14.6194C67.8503 14.6285 69.0583 14.8671 70.1269 15.3405C71.2037 15.8044 72.0969 16.4742 72.802 17.3496C73.518 18.227 73.9954 19.2739 74.238 20.4846C74.2503 20.5455 74.2371 20.6088 74.2017 20.6601C74.1663 20.7113 74.1114 20.7462 74.0497 20.7569L71.4757 21.2021C71.4146 21.2126 71.352 21.1987 71.3014 21.1633C71.2506 21.1279 71.2163 21.074 71.206 21.0135C71.076 20.258 70.7874 19.6173 70.3434 19.0846L70.3409 19.0815C69.902 18.5359 69.3517 18.118 68.686 17.8268L68.6837 17.8258C68.0166 17.5254 67.2817 17.3695 66.476 17.3608H66.4757C65.7034 17.3521 65.0132 17.4738 64.4012 17.7214C63.7874 17.9697 63.3086 18.3123 62.9554 18.7455L62.954 18.7472C62.6074 19.1639 62.4351 19.6424 62.4351 20.1923C62.4351 20.7383 62.5923 21.1594 62.8897 21.4778C63.2106 21.8123 63.6052 22.0823 64.0772 22.2866C64.5774 22.49 65.0629 22.6576 65.534 22.7897L65.5352 22.79L69.2654 23.8553C69.7003 23.9745 70.1969 24.1387 70.7546 24.3469C71.3383 24.5615 71.9012 24.8638 72.4429 25.2523C73.0006 25.6431 73.4586 26.1648 73.8183 26.8118C74.188 27.4673 74.3652 28.2825 74.3652 29.2442C74.3652 30.2109 74.168 31.0799 73.7674 31.8452C73.3789 32.6057 72.8332 33.2444 72.1332 33.7598L72.1314 33.7609C71.4354 34.2642 70.6294 34.644 69.7169 34.9024C68.8037 35.1698 67.8283 35.3028 66.7917 35.3028C65.376 35.3028 64.0914 35.0645 62.9423 34.5831Z" fill="#0C0C4F"/>
</svg>
