<svg width="200" height="62" viewBox="0 0 200 62" fill="none" xmlns="http://www.w3.org/2000/svg">
<path d="M44.8514 18.6321C45.102 21.1794 44.5591 23.6432 43.4734 25.94C43.1393 26.6499 43.3481 27.0257 43.6822 27.6103C44.6844 29.406 44.3086 30.784 42.5129 31.7445C40.2579 32.9555 37.9612 34.1665 35.6644 35.294C34.8292 35.7116 34.5369 36.0457 35.038 37.0061C40.2579 47.5712 32.1566 58.6374 22.0927 60.9759C12.7387 63.1474 3.0923 57.0505 0.67027 47.8218C-0.415467 43.7294 -0.164912 39.8458 1.29666 35.9622C1.54721 35.294 1.63073 34.7512 1.29666 33.9995C0.377956 32.0786 0.795547 30.8676 2.67471 29.8653C4.67915 28.7796 6.72534 27.6939 8.8133 26.7752C9.89904 26.2741 9.98255 25.7312 9.5232 24.729C5.55609 15.709 10.9848 6.73078 18.4597 2.34608C29.9852 -4.37714 42.6799 4.51755 44.5591 14.2892C44.8514 15.7508 44.7679 17.1706 44.8514 18.6321ZM41.9283 29.1137C39.5063 28.3202 39.7986 27.2345 40.5502 25.8147C41.5942 23.852 42.3459 21.6805 42.3876 19.4673C42.5964 6.18792 29.2753 -0.911134 19.6707 4.76811C10.3584 10.2386 7.51877 21.263 15.8706 29.1137C18.6685 31.7445 22.0092 33.5819 25.0576 35.8787C27.9807 38.0919 30.1522 40.9733 29.6093 44.6898C28.8159 50.4108 22.3015 55.3384 16.3717 54.1691C7.60228 52.4153 5.30553 43.2283 8.27043 37.4655C8.77154 36.5468 9.27265 35.9204 10.3166 36.8391C11.0683 37.4655 11.5276 37.382 11.5694 36.2545C11.6112 33.9577 11.7364 31.661 11.8617 29.3642C11.9035 28.4038 11.6112 28.195 10.8177 28.6126C8.43747 29.8653 6.0572 31.0764 3.38461 32.4962C5.47257 33.3313 5.1385 34.25 4.38683 35.7951C1.67249 41.3909 2.42415 46.9031 5.68137 51.9977C10.776 59.9319 23.1367 60.9759 30.1105 53.0834C32.6995 50.1603 33.9523 46.7778 33.827 43.0612C33.66 38.6765 31.1127 35.3775 27.939 32.4544C25.1411 29.8653 21.5498 28.4455 19.0443 25.3554C14.7849 20.1355 14.8684 15.1244 19.9212 10.5726C23.9301 6.98134 29.317 6.8143 33.4512 10.155C37.4601 13.4122 38.6293 19.3003 36.1238 23.7267C35.7062 24.4784 35.3721 25.3554 34.2864 24.4367C33.7853 24.0608 33.3259 24.1026 33.3259 24.8542C33.2006 27.4015 33.1171 29.9906 33.0336 32.5379C32.9918 33.3313 33.3259 33.5401 34.0358 33.1643C36.4578 31.8698 38.9634 30.617 41.9283 29.1137ZM14.4508 31.4104C14.3255 33.7907 14.2837 35.5863 14.1585 37.3402C14.0332 38.9688 13.198 40.1381 11.4024 40.0963C10.4837 40.0546 10.2331 40.3886 10.0661 41.1821C9.18913 45.4415 11.6529 49.7844 15.7453 51.0372C19.6289 52.2482 23.9301 50.4108 25.9763 46.6525C27.4796 43.8964 26.7697 40.5557 23.9719 38.3007C21.007 36.0039 17.5827 34.2918 14.4508 31.4104ZM30.361 30.7423C30.4445 28.4873 30.5698 26.6499 30.6116 24.7707C30.6533 23.2256 31.2379 21.9311 32.783 21.597C34.4534 21.263 34.704 20.219 34.704 18.8827C34.7875 15.6255 32.6995 12.243 29.8599 10.9902C27.2708 9.82096 23.6795 10.6561 21.2575 12.9947C18.0003 16.0848 17.7498 19.6344 20.3806 22.808C23.0949 26.107 26.9368 27.7774 30.361 30.7423Z" fill="url(#paint0_linear_3697_8024)"/>
<path d="M182.423 47.7148L185.995 26.4069H190.232L189.798 29.0098H189.99C190.246 28.5928 190.585 28.1691 191.009 27.7386C191.439 27.3014 191.974 26.9382 192.613 26.649C193.252 26.3531 194.002 26.2051 194.863 26.2051C196 26.2051 196.992 26.5011 197.839 27.0929C198.687 27.6781 199.299 28.5626 199.675 29.7463C200.059 30.9234 200.103 32.3997 199.807 34.1754C199.524 35.904 199.003 37.3635 198.243 38.554C197.489 39.7378 196.585 40.6357 195.529 41.2478C194.48 41.8531 193.366 42.1558 192.189 42.1558C191.355 42.1558 190.669 42.0179 190.131 41.7421C189.6 41.4664 189.186 41.12 188.89 40.703C188.594 40.2792 188.386 39.8521 188.265 39.4217H188.103L186.731 47.7148H182.423ZM188.91 34.1552C188.763 35.0767 188.756 35.8804 188.89 36.5665C189.032 37.2525 189.314 37.7873 189.738 38.1706C190.162 38.5473 190.72 38.7356 191.413 38.7356C192.112 38.7356 192.734 38.5439 193.279 38.1605C193.824 37.7704 194.278 37.2324 194.641 36.5463C195.004 35.8535 195.263 35.0565 195.418 34.1552C195.559 33.2607 195.562 32.4737 195.428 31.7944C195.293 31.1151 195.018 30.5837 194.601 30.2003C194.184 29.817 193.619 29.6253 192.906 29.6253C192.213 29.6253 191.591 29.8102 191.039 30.1802C190.494 30.5501 190.04 31.0747 189.677 31.754C189.314 32.4334 189.058 33.2338 188.91 34.1552Z" fill="black"/>
<path d="M171.26 42.1961C170.278 42.1961 169.427 42.0246 168.707 41.6816C167.994 41.3318 167.47 40.8139 167.133 40.1279C166.797 39.4418 166.713 38.591 166.881 37.5754C167.029 36.7145 167.308 35.9948 167.719 35.4163C168.136 34.8312 168.643 34.3604 169.242 34.0039C169.841 33.6474 170.503 33.375 171.23 33.1867C171.963 32.9984 172.719 32.8706 173.5 32.8033C174.401 32.7091 175.134 32.6183 175.699 32.5309C176.271 32.4435 176.698 32.319 176.98 32.1576C177.263 31.9895 177.434 31.7406 177.495 31.411V31.3505C177.596 30.7182 177.478 30.2272 177.142 29.8775C176.812 29.521 176.284 29.3428 175.558 29.3428C174.791 29.3428 174.139 29.5109 173.601 29.8472C173.069 30.1835 172.689 30.6106 172.46 31.1285L168.546 30.8057C168.896 29.864 169.424 29.0502 170.13 28.3641C170.843 27.6714 171.7 27.14 172.703 26.7701C173.705 26.3934 174.828 26.2051 176.072 26.2051C176.933 26.2051 177.737 26.306 178.484 26.5078C179.237 26.7096 179.886 27.0223 180.431 27.4461C180.982 27.8698 181.379 28.4146 181.621 29.0805C181.87 29.7396 181.921 30.5299 181.773 31.4514L180.027 41.9036H175.951L176.314 39.7546H176.193C175.864 40.2389 175.46 40.666 174.983 41.0359C174.505 41.3991 173.957 41.685 173.338 41.8935C172.719 42.0952 172.027 42.1961 171.26 42.1961ZM172.985 39.23C173.611 39.23 174.186 39.1055 174.71 38.8567C175.242 38.6011 175.679 38.2581 176.022 37.8276C176.372 37.3971 176.594 36.9095 176.688 36.3647L176.95 34.7202C176.816 34.8076 176.62 34.885 176.365 34.9522C176.116 35.0195 175.844 35.0834 175.548 35.1439C175.258 35.1977 174.966 35.2482 174.67 35.2953C174.374 35.3356 174.108 35.376 173.873 35.4163C173.355 35.4903 172.891 35.608 172.481 35.7695C172.07 35.9309 171.737 36.1495 171.482 36.4252C171.226 36.6943 171.068 37.0306 171.008 37.4341C170.913 38.0193 171.051 38.4666 171.421 38.776C171.798 39.0786 172.319 39.23 172.985 39.23Z" fill="black"/>
<path d="M145.773 41.9036L144.138 26.4069H148.487L149.153 36.8187H149.294L153.531 26.4069H157.799L158.606 36.7582H158.737L162.833 26.4069H167.171L160.382 41.9036H155.831L154.782 32.1576H154.59L150.313 41.9036H145.773Z" fill="black"/>
<path d="M137.81 27.2443C137.844 26.4035 137.598 25.7545 137.073 25.2971C136.555 24.8397 135.772 24.611 134.723 24.611C134.01 24.611 133.391 24.7119 132.866 24.9137C132.342 25.1088 131.921 25.3812 131.605 25.7309C131.296 26.0739 131.104 26.4708 131.03 26.9214C130.956 27.2913 130.98 27.6142 131.101 27.89C131.229 28.1657 131.427 28.4045 131.696 28.6063C131.972 28.8013 132.298 28.9728 132.675 29.1208C133.051 29.2621 133.451 29.3831 133.875 29.484L135.651 29.9279C136.518 30.1297 137.299 30.3987 137.991 30.735C138.691 31.0713 139.276 31.485 139.747 31.976C140.224 32.467 140.561 33.0454 140.756 33.7113C140.951 34.3772 140.978 35.1406 140.837 36.0015C140.621 37.266 140.12 38.3623 139.333 39.2905C138.546 40.212 137.514 40.9283 136.236 41.4394C134.958 41.9439 133.478 42.1961 131.797 42.1961C130.129 42.1961 128.72 41.9405 127.57 41.4294C126.419 40.9182 125.582 40.1615 125.057 39.1593C124.54 38.1504 124.385 36.9028 124.593 35.4163H128.821C128.747 36.1091 128.848 36.6875 129.123 37.1516C129.406 37.609 129.826 37.9554 130.384 38.1908C130.943 38.4195 131.598 38.5338 132.352 38.5338C133.098 38.5338 133.761 38.4262 134.339 38.211C134.924 37.9957 135.399 37.6964 135.762 37.3131C136.125 36.9297 136.347 36.4891 136.428 35.9914C136.508 35.5273 136.438 35.1372 136.216 34.8211C135.994 34.505 135.637 34.2359 135.146 34.014C134.662 33.7853 134.06 33.5835 133.34 33.4086L131.181 32.8436C129.513 32.4199 128.252 31.7574 127.398 30.8561C126.544 29.9548 126.238 28.7408 126.48 27.214C126.695 25.963 127.216 24.87 128.044 23.9351C128.878 22.9934 129.927 22.2637 131.192 21.7458C132.463 21.2211 133.852 20.9588 135.358 20.9588C136.892 20.9588 138.187 21.2245 139.243 21.7559C140.298 22.2805 141.069 23.0136 141.553 23.9553C142.037 24.8969 142.185 25.9932 141.997 27.2443H137.81Z" fill="black"/>
<path d="M114.386 42.2062C112.792 42.2062 111.48 41.8699 110.451 41.1973C109.429 40.518 108.712 39.5764 108.302 38.3724C107.899 37.1685 107.828 35.7829 108.09 34.2158C108.346 32.6284 108.881 31.2361 109.694 30.0389C110.508 28.835 111.541 27.8967 112.792 27.2241C114.05 26.5448 115.462 26.2051 117.029 26.2051C118.381 26.2051 119.524 26.4506 120.459 26.9416C121.394 27.4326 122.08 28.122 122.518 29.0098C122.955 29.8977 123.103 30.9402 122.961 32.1374H118.916C118.923 31.3707 118.724 30.7485 118.321 30.271C117.917 29.7934 117.325 29.5546 116.545 29.5546C115.872 29.5546 115.253 29.7362 114.688 30.0995C114.13 30.4559 113.656 30.9772 113.266 31.6632C112.883 32.3493 112.614 33.18 112.459 34.1552C112.297 35.1439 112.294 35.9847 112.449 36.6775C112.603 37.3702 112.899 37.8982 113.337 38.2614C113.774 38.6246 114.325 38.8062 114.991 38.8062C115.489 38.8062 115.95 38.7053 116.373 38.5036C116.804 38.3018 117.18 38.0092 117.503 37.6258C117.826 37.2357 118.075 36.7683 118.25 36.2235H122.306C122.03 37.414 121.529 38.4565 120.802 39.351C120.083 40.2456 119.178 40.9451 118.088 41.4495C116.999 41.954 115.765 42.2062 114.386 42.2062Z" fill="black"/>
<path d="M95.5624 32.9445L94.0692 41.9036H89.7814L92.3642 26.4069H96.4502L96.0063 29.141H96.1778C96.6688 28.233 97.3616 27.5167 98.2561 26.992C99.1574 26.4674 100.183 26.2051 101.333 26.2051C102.409 26.2051 103.307 26.4405 104.027 26.9113C104.753 27.3822 105.265 28.0514 105.561 28.919C105.863 29.7867 105.914 30.8259 105.712 32.0365L104.057 41.9036H99.7594L101.283 32.8033C101.438 31.8549 101.316 31.1151 100.92 30.5837C100.529 30.0456 99.9006 29.7766 99.033 29.7766C98.4545 29.7766 97.9232 29.901 97.4389 30.1499C96.9546 30.3988 96.5477 30.762 96.2181 31.2395C95.8953 31.7103 95.6767 32.2787 95.5624 32.9445Z" fill="black"/>
<path d="M74.8093 47.7148C74.2577 47.7148 73.7533 47.6711 73.2959 47.5836C72.8386 47.5029 72.4619 47.3987 72.166 47.2709L73.6793 44.0626C74.1568 44.2173 74.5907 44.298 74.9808 44.3047C75.3776 44.3115 75.7408 44.2106 76.0704 44.0021C76.4 43.7936 76.7026 43.4505 76.9784 42.973L77.3618 42.3172L74.4562 26.4069H78.8146L80.1262 37.8074H80.2876L85.4229 26.4069H90.1344L81.2662 43.5783C80.829 44.4191 80.3111 45.1488 79.7125 45.7676C79.1206 46.3864 78.4178 46.864 77.6039 47.2003C76.7968 47.5433 75.8652 47.7148 74.8093 47.7148Z" fill="black"/>
<path d="M68.1985 27.2443C68.2322 26.4035 67.9867 25.7545 67.462 25.2971C66.9441 24.8397 66.1606 24.611 65.1113 24.611C64.3984 24.611 63.7796 24.7119 63.2549 24.9137C62.7303 25.1088 62.3099 25.3812 61.9938 25.7309C61.6844 26.0739 61.4927 26.4708 61.4188 26.9214C61.3448 27.2913 61.3683 27.6142 61.4894 27.89C61.6172 28.1657 61.8156 28.4045 62.0846 28.6063C62.3604 28.8013 62.6866 28.9728 63.0633 29.1208C63.4399 29.2621 63.8401 29.3831 64.2638 29.484L66.0395 29.9279C66.9072 30.1297 67.6874 30.3987 68.3801 30.735C69.0796 31.0713 69.6648 31.485 70.1356 31.976C70.6132 32.467 70.9495 33.0454 71.1445 33.7113C71.3396 34.3772 71.3665 35.1406 71.2252 36.0015C71.01 37.266 70.5089 38.3623 69.722 39.2905C68.935 40.212 67.9026 40.9283 66.6247 41.4394C65.3467 41.9439 63.867 42.1961 62.1855 42.1961C60.5175 42.1961 59.1084 41.9405 57.9582 41.4294C56.8081 40.9182 55.9707 40.1615 55.4461 39.1593C54.9282 38.1504 54.7735 36.9028 54.982 35.4163H59.2093C59.1353 36.1091 59.2362 36.6875 59.5119 37.1516C59.7944 37.609 60.2148 37.9554 60.7731 38.1908C61.3313 38.4195 61.9871 38.5338 62.7404 38.5338C63.487 38.5338 64.1495 38.4262 64.7279 38.211C65.3131 37.9957 65.7873 37.6964 66.1505 37.3131C66.5137 36.9297 66.7356 36.4891 66.8164 35.9914C66.8971 35.5273 66.8264 35.1372 66.6045 34.8211C66.3825 34.505 66.026 34.2359 65.5351 34.014C65.0508 33.7853 64.4488 33.5835 63.7291 33.4086L61.5701 32.8436C59.902 32.4199 58.6409 31.7574 57.7867 30.8561C56.9325 29.9548 56.6265 28.7408 56.8686 27.214C57.0839 25.963 57.6051 24.87 58.4324 23.9351C59.2664 22.9934 60.3157 22.2637 61.5802 21.7458C62.8514 21.2211 64.2403 20.9588 65.7469 20.9588C67.2804 20.9588 68.5752 21.2245 69.6312 21.7559C70.6872 22.2805 71.4573 23.0136 71.9415 23.9553C72.4258 24.8969 72.5738 25.9932 72.3855 27.2443H68.1985Z" fill="black"/>
<defs>
<linearGradient id="paint0_linear_3697_8024" x1="0.00212417" y1="30.7253" x2="44.8951" y2="30.7253" gradientUnits="userSpaceOnUse">
<stop stop-color="#A99FFF"/>
<stop offset="1" stop-color="#D076FF"/>
</linearGradient>
</defs>
</svg>
