<svg width="50" height="50" viewBox="0 0 50 50" fill="none" xmlns="http://www.w3.org/2000/svg">
    <path
        d="M29.2451 33C29.2451 33.25 29.4973 33.5 29.7579 33.5H35.6254C35.8776 33.5 36.1382 33.25 36.1382 33C36.1382 32.75 35.886 32.5 35.6254 32.5H29.7579C29.5057 32.5 29.2451 32.75 29.2451 33Z"
        fill="black" />
    <path
        d="M29.2451 35.0834C29.2451 35.3334 29.4973 35.5834 29.7579 35.5834H40.8961C41.1483 35.5834 41.4089 35.3334 41.4089 35.0834C41.4089 34.8334 41.1567 34.5834 40.8961 34.5834H29.7579C29.5057 34.5834 29.2451 34.8334 29.2451 35.0834Z"
        fill="black" />
    <path
        d="M40.8961 36.6667H29.7579C29.5057 36.6667 29.2451 36.9167 29.2451 37.1667C29.2451 37.4167 29.4973 37.6667 29.7579 37.6667H40.8961C41.1483 37.6667 41.4089 37.4167 41.4089 37.1667C41.4089 36.9167 41.2407 36.6667 40.8961 36.6667Z"
        fill="black" />
    <path
        d="M31.6661 0C32.0864 0 32.4311 0.333334 32.4311 0.750001C32.4311 1.16667 32.0864 1.5 31.6661 1.5C31.2458 1.5 30.9011 1.16667 30.9011 0.750001C30.9011 0.333334 31.2458 0 31.6661 0Z"
        fill="black" />
    <path
        d="M17.14 6.16669C17.5603 6.16669 17.9049 6.50002 17.9049 6.91669C17.9049 7.33335 17.5603 7.66669 17.14 7.66669C16.7197 7.66669 16.375 7.33335 16.375 6.91669C16.375 6.50002 16.7197 6.16669 17.14 6.16669Z"
        fill="black" />
    <path
        d="M47.6378 8.66669C48.0581 8.66669 48.4027 9.00002 48.4027 9.41669C48.4027 9.83336 48.0581 10.1667 47.6378 10.1667C47.2175 10.1667 46.8728 9.83336 46.8728 9.41669C46.8728 9.00002 47.2175 8.66669 47.6378 8.66669Z"
        fill="black" />
    <path
        d="M2.36189 10.1667C2.7822 10.1667 3.12685 10.5 3.12685 10.9167C3.12685 11.3334 2.7822 11.6667 2.36189 11.6667C1.94158 11.6667 1.59692 11.3334 1.59692 10.9167C1.59692 10.5 1.94158 10.1667 2.36189 10.1667Z"
        fill="black" />
    <path
        d="M39.6516 8.58334C41.4337 8.58334 42.8795 7.16667 42.8795 5.41667C42.8795 3.66667 41.4337 2.25 39.6516 2.25C37.8694 2.25 36.4236 3.66667 36.4236 5.41667C36.4236 7.16667 37.9535 8.58334 39.6516 8.58334ZM39.6516 3.33333C40.8452 3.33333 41.7783 4.25 41.7783 5.41667C41.7783 6.58334 40.8452 7.5 39.6516 7.5C38.4579 7.5 37.5248 6.58334 37.5248 5.41667C37.5248 4.25 38.4579 3.33333 39.6516 3.33333Z"
        fill="black" />
    <path
        d="M24.403 6.91673C25.79 6.91673 26.908 5.81673 26.908 4.4584C26.908 3.10006 25.79 2.00006 24.403 2.00006C23.016 2.00006 21.8979 3.10006 21.8979 4.4584C21.8979 5.81673 23.0832 6.91673 24.403 6.91673ZM24.403 2.84173C25.3277 2.84173 26.0506 3.55006 26.0506 4.4584C26.0506 5.36673 25.3277 6.07506 24.403 6.07506C23.4783 6.07506 22.7554 5.36673 22.7554 4.4584C22.7554 3.55006 23.4783 2.84173 24.403 2.84173Z"
        fill="black" />
    <path
        d="M9.75087 8.74998C11.1967 8.74998 12.3904 7.58332 12.3904 6.16665C12.3904 4.74998 11.1967 3.58331 9.75087 3.58331C8.30501 3.58331 7.11133 4.74998 7.11133 6.16665C7.11133 7.58332 8.30501 8.74998 9.75087 8.74998ZM9.75087 4.58331C10.5999 4.58331 11.3649 5.24998 11.3649 6.16665C11.3649 7.08332 10.684 7.74998 9.75087 7.74998C8.90185 7.74998 8.13688 7.08332 8.13688 6.16665C8.13688 5.24998 8.90185 4.58331 9.75087 4.58331Z"
        fill="black" />
    <path
        d="M6.38021 40.3333H43.628C43.8802 40.3333 44.1408 40.0833 44.1408 39.8333V15.5833C44.1408 15.3333 43.8886 15.0833 43.628 15.0833H6.38021C6.12802 15.0833 5.86743 15.3333 5.86743 15.5833V39.8333C5.86743 40.0833 6.11962 40.3333 6.38021 40.3333ZM6.97705 16.0833H43.1152V39.25H6.97705V16.0833Z"
        fill="black" />
    <path
        d="M46.3433 42.6666C47.2764 41.9166 47.8732 40.6666 47.8732 39.4166V15.75C47.8732 13.4166 45.9146 11.4166 43.4516 11.4166H6.54842C4.16947 11.4166 2.12677 13.3333 2.12677 15.75V39.4166C2.12677 40.75 2.7236 41.9166 3.65669 42.6666C1.61399 42.6666 0 44.3333 0 46.3333C0 48.3333 1.69805 50 3.74075 50H46.2592C48.302 50 50 48.3333 50 46.3333C50 44.3333 48.386 42.6666 46.3433 42.6666ZM3.22798 39.4166V15.75C3.22798 13.9166 4.7579 12.5 6.54842 12.5H43.4516C45.3262 12.5 46.772 14 46.772 15.75V39.4166C46.772 41.25 45.2421 42.6666 43.4516 42.6666H30.2707C30.0185 42.6666 29.7579 42.9166 29.7579 43.1666V44.75H20.2337V43.1666C20.2337 42.9166 19.9815 42.6666 19.7209 42.6666H6.54842C4.67384 42.6666 3.22798 41.1666 3.22798 39.4166ZM42.5185 43.6667V44.75H37.7522V43.6667H42.5185ZM12.2478 43.6667V44.75H7.48151V43.6667H12.2478ZM46.2592 48.9167H3.74075C2.29489 48.9167 1.10121 47.75 1.10121 46.3333C1.10121 44.9166 2.29489 43.75 3.74075 43.75H6.3803V45.3333C6.3803 45.5833 6.63248 45.8333 6.89307 45.8333H12.7606C13.0128 45.8333 13.2734 45.5833 13.2734 45.3333V43.75H19.1409V45.3333C19.1409 45.5833 19.3931 45.8333 19.6537 45.8333H30.2791C30.5313 45.8333 30.7919 45.5833 30.7919 45.3333V43.75H36.6594V45.3333C36.6594 45.5833 36.9116 45.8333 37.1722 45.8333H43.0397C43.2919 45.8333 43.5525 45.5833 43.5525 45.3333V43.75H46.192C47.6379 43.75 48.8315 44.9166 48.8315 46.3333C48.9156 47.75 47.7219 48.9167 46.2761 48.9167H46.2592Z"
        fill="black" />
    <path
        d="M23.489 32.947V30.8742H24.3672C24.4323 30.8742 24.4903 30.8604 24.5414 30.8327C24.5972 30.8005 24.639 30.759 24.6669 30.7084C24.6994 30.6531 24.7157 30.5932 24.7157 30.5287V28.7599C24.725 28.6125 24.7761 28.4882 24.869 28.3868C24.9666 28.2809 25.0595 28.1795 25.1478 28.0828C25.2407 27.9815 25.2872 27.8617 25.2872 27.7235C25.2872 27.5992 25.2407 27.4863 25.1478 27.385C25.0595 27.279 24.9666 27.1731 24.869 27.0671C24.7761 26.9566 24.725 26.8299 24.7157 26.6871V24.9183C24.7157 24.8538 24.6994 24.7963 24.6669 24.7456C24.639 24.6903 24.5972 24.6489 24.5414 24.6212C24.4903 24.589 24.4323 24.5729 24.3672 24.5729H23.489V22.5001H24.3672C24.8179 22.5001 25.2268 22.6106 25.5939 22.8317C25.9656 23.0482 26.2606 23.3407 26.479 23.7092C26.6974 24.0731 26.8066 24.4761 26.8066 24.9183V26.618C26.8066 26.7102 26.8531 26.7954 26.946 26.8737C27.0389 26.952 27.1481 27.0326 27.2736 27.1155C27.399 27.1938 27.5082 27.2813 27.6012 27.3781C27.6941 27.4748 27.7406 27.5899 27.7406 27.7235C27.7406 27.8663 27.6941 27.9861 27.6012 28.0828C27.5082 28.1795 27.399 28.2648 27.2736 28.3385C27.1481 28.4075 27.0389 28.4812 26.946 28.5596C26.8531 28.6379 26.8066 28.7323 26.8066 28.8428V30.5287C26.8066 30.9755 26.6974 31.3832 26.479 31.7517C26.2606 32.1156 25.9656 32.4057 25.5939 32.6222C25.2268 32.8387 24.8179 32.947 24.3672 32.947H23.489Z"
        fill="#0FA0A7" />
    <path
        d="M12.6202 32.947C12.1695 32.947 11.7583 32.8387 11.3865 32.6222C11.0195 32.4057 10.7267 32.1156 10.5083 31.7517C10.29 31.3832 10.1808 30.9755 10.1808 30.5287V28.8428C10.1808 28.7323 10.1343 28.6379 10.0414 28.5596C9.94845 28.4812 9.83925 28.4075 9.7138 28.3385C9.58834 28.2648 9.47915 28.1795 9.38622 28.0828C9.29329 27.9861 9.24683 27.8663 9.24683 27.7235C9.24683 27.5899 9.29329 27.4748 9.38622 27.3781C9.47915 27.2813 9.58834 27.1938 9.7138 27.1155C9.83925 27.0326 9.94845 26.952 10.0414 26.8737C10.1343 26.7954 10.1808 26.7102 10.1808 26.618V24.9183C10.1808 24.4761 10.29 24.0731 10.5083 23.7092C10.7267 23.3407 11.0195 23.0482 11.3865 22.8317C11.7583 22.6106 12.1695 22.5001 12.6202 22.5001H13.4984V24.5729H12.6202C12.5551 24.5729 12.4947 24.589 12.439 24.6212C12.3879 24.6489 12.346 24.6903 12.3135 24.7456C12.2856 24.7963 12.2717 24.8538 12.2717 24.9183V26.6871C12.2624 26.8299 12.209 26.9566 12.1114 27.0671C12.0185 27.1731 11.9255 27.279 11.8326 27.385C11.7443 27.4863 11.7002 27.5992 11.7002 27.7235C11.7002 27.8617 11.7443 27.9815 11.8326 28.0828C11.9255 28.1795 12.0185 28.2809 12.1114 28.3868C12.209 28.4882 12.2624 28.6125 12.2717 28.7599V30.5287C12.2717 30.5932 12.2856 30.6531 12.3135 30.7084C12.346 30.759 12.3879 30.8005 12.439 30.8327C12.4947 30.8604 12.5551 30.8742 12.6202 30.8742H13.4984V32.947H12.6202Z"
        fill="#0FA0A7" />
    <ellipse cx="15.3741" cy="27.7235" rx="1.05382" ry="1.04469" fill="#0FA0A7" />
    <ellipse cx="18.5358" cy="27.7235" rx="1.05382" ry="1.04469" fill="#0FA0A7" />
    <ellipse cx="21.6974" cy="27.7235" rx="1.05382" ry="1.04469" fill="#0FA0A7" />
    <path
        d="M38.6684 20.8296C38.6684 21.7464 37.8783 22.4925 36.9074 22.4925H31.7591C31.4824 22.4925 31.2572 22.7051 31.2572 22.9665C31.2572 23.2278 31.4824 23.4404 31.7591 23.4404H34.1626C35.1335 23.4404 35.9237 24.1866 35.9237 25.1034C35.9237 26.0201 35.1335 26.7663 34.1626 26.7663H30.6277C30.2806 26.7663 29.9981 26.4995 29.9981 26.1718C29.9981 25.8441 30.2806 25.5773 30.6277 25.5773H34.1626C34.4394 25.5773 34.6645 25.3647 34.6645 25.1034C34.6645 24.842 34.4394 24.6294 34.1626 24.6294H31.7591C30.7883 24.6294 29.9981 23.8833 29.9981 22.9665C29.9981 22.0497 30.7883 21.3036 31.7591 21.3036H36.9074C37.1842 21.3036 37.4093 21.091 37.4093 20.8296C37.4093 20.5683 37.1842 20.3556 36.9074 20.3556H34.3347C33.9877 20.3556 33.7052 20.0889 33.7052 19.7612C33.7052 19.4335 33.9877 19.1667 34.3347 19.1667H36.9074C37.8783 19.1667 38.6684 19.9128 38.6684 20.8296ZM30.6277 27.7223C29.9623 27.7223 29.4216 28.2328 29.4216 28.8612C29.4216 29.4895 29.9623 30 30.6277 30C31.2931 30 31.8337 29.4895 31.8337 28.8612C31.8337 28.2328 31.2916 27.7223 30.6277 27.7223ZM30.6277 29.3392C30.348 29.3392 30.1215 29.1239 30.1215 28.8612C30.1215 28.5971 30.3495 28.3832 30.6277 28.3832C30.9073 28.3832 31.1339 28.5985 31.1339 28.8612C31.1339 29.1252 30.9059 29.3392 30.6277 29.3392ZM31.9413 19.7612C31.9413 19.4335 32.2223 19.1667 32.5708 19.1667C32.9193 19.1667 33.2004 19.4321 33.2004 19.7612C33.2004 20.0902 32.9193 20.3556 32.5708 20.3556C32.2223 20.3556 31.9413 20.0889 31.9413 19.7612Z"
        fill="#11B2BA" />
</svg>