<svg width="49" height="50" viewBox="0 0 49 50" fill="none" xmlns="http://www.w3.org/2000/svg">
    <path
        d="M47.1137 24.7321C47.5386 24.7321 47.887 25.069 47.887 25.4902C47.887 25.9113 47.5386 26.2482 47.1137 26.2482C46.6888 26.2482 46.3403 25.9113 46.3403 25.4902C46.3403 25.069 46.6888 24.7321 47.1137 24.7321Z"
        fill="black" />
    <path
        d="M47.1137 45.2833C47.5386 45.2833 47.887 45.6202 47.887 46.0414C47.887 46.4625 47.5386 46.7994 47.1137 46.7994C46.6888 46.7994 46.3403 46.4625 46.3403 46.0414C46.3403 45.6202 46.6888 45.2833 47.1137 45.2833Z"
        fill="black" />
    <path
        d="M40.8252 37.866C40.1305 37.7627 39.414 37.6632 38.7193 37.56L38.0247 37.4567L37.5363 34.6346C39.129 34.5823 40.8344 35.1813 41.0909 35.3605L42.1577 32.2691C41.4255 31.9487 40.7089 31.8492 40.0143 31.7459C39.1006 31.6806 38.165 31.619 37.2513 31.5537L36.8756 29.3828L35.3205 29.6522L35.6962 31.823C33.7406 32.3853 32.3357 33.523 31.7602 35.4114C31.6538 36.1006 31.5475 36.7897 31.6602 37.441C31.9232 38.9606 32.7681 39.9322 34.4735 40.5312C35.7032 40.989 36.8359 41.0164 37.493 40.9026L37.9814 43.7247C37.5433 43.8005 36.8268 43.7011 36.3512 43.5599C35.6565 43.4566 34.6833 43.1779 33.9511 42.8576C33.6945 42.6784 33.4755 42.7163 33.4379 42.4993L32.4087 45.8078C34.1517 46.6238 36.22 46.7128 38.2507 46.5847L38.664 48.9726L40.2191 48.7033L39.8059 46.3154C40.4629 46.2016 41.1044 45.8669 41.7614 45.7531C42.381 45.4222 42.8034 45.1255 43.1663 44.6154C43.5292 44.1054 43.914 43.5916 44.0579 43.1195C44.1643 42.4303 44.2706 41.7411 44.1579 41.0898C44.0452 40.4386 43.9325 39.7873 43.6383 39.3911C43.0876 38.8157 42.2959 38.2821 40.869 37.8584L40.8252 37.866ZM37.0891 37.3951C36.6134 37.2539 36.1378 37.1127 35.8969 37.1544C35.6403 36.9753 35.3837 36.7961 35.3086 36.3619C35.1959 35.7107 35.5588 35.2007 36.6383 34.7901L37.0891 37.3951ZM39.0546 43.5388L38.6414 41.1509C39.117 41.2921 39.6146 41.4295 39.8712 41.6087C40.1278 41.7878 40.3843 41.967 40.4595 42.4011C40.7536 42.7974 40.1717 43.3453 39.0546 43.5388Z"
        fill="#11B2BA" />
    <path
        d="M34.2135 2.58069C34.6384 2.58069 34.9868 2.91759 34.9868 3.33873C34.9868 3.75986 34.6384 4.09676 34.2135 4.09676C33.7886 4.09676 33.4402 3.75986 33.4402 3.33873C33.4402 2.91759 33.7886 2.58069 34.2135 2.58069Z"
        fill="black" />
    <path
        d="M14.872 40.4825C15.2969 40.4825 15.6453 40.8194 15.6453 41.2405C15.6453 41.6616 15.2969 41.9985 14.872 41.9985C14.4471 41.9985 14.0986 41.6616 14.0986 41.2405C14.0986 40.8194 14.4471 40.4825 14.872 40.4825Z"
        fill="black" />
    <path
        d="M9.97694 3.6756C10.4018 3.6756 10.7503 4.0125 10.7503 4.43363C10.7503 4.85476 10.4018 5.19167 9.97694 5.19167C9.55204 5.19167 9.20361 4.85476 9.20361 4.43363C9.20361 4.0125 9.55204 3.6756 9.97694 3.6756Z"
        fill="black" />
    <path
        d="M5.67665 20.0155C6.10156 20.0155 6.44998 20.3524 6.44998 20.7735C6.44998 21.1947 6.10156 21.5316 5.67665 21.5316C5.25174 21.5316 4.90332 21.1947 4.90332 20.7735C4.90332 20.3524 5.25174 20.0155 5.67665 20.0155Z"
        fill="black" />
    <path
        d="M4.64833 46.2941C5.07324 46.2941 5.42166 46.631 5.42166 47.0522C5.42166 47.4733 5.07324 47.8102 4.64833 47.8102C4.22342 47.8102 3.875 47.4733 3.875 47.0522C3.875 46.631 4.22342 46.2941 4.64833 46.2941Z"
        fill="black" />
    <path
        d="M48.745 6.87624C48.745 6.53933 48.49 6.37088 48.2266 6.37088L34.7316 6.53933C34.4766 6.53933 34.3067 6.70779 34.2132 6.87624C34.1282 7.04469 34.2132 7.29737 34.2982 7.46582L38.1648 11.256L20.1148 28.9435L13.7497 22.5423C13.5797 22.3738 13.2313 22.3738 12.9764 22.5423L0.254669 35.092C0.0847066 35.2605 0.0847066 35.5974 0.254669 35.85L5.41303 40.9036C5.58299 41.0721 5.93142 41.0721 6.18636 40.9036L13.4947 33.7444L19.9448 40.0613C20.1148 40.2298 20.4632 40.2298 20.7182 40.0613C20.7182 40.0613 44.19 17.0676 44.275 16.9834L48.1416 20.7736C48.2266 20.8578 48.3966 20.942 48.4815 20.942C48.7365 20.942 48.9999 20.6893 48.9999 20.4366L48.745 6.87624ZM20.2083 38.8822L13.7582 32.5652C13.6732 32.481 13.5032 32.3968 13.4183 32.3968C13.4183 32.3968 13.2483 32.3968 13.0783 32.5652L5.76995 39.7244L1.38492 35.4289L13.4183 23.6372L19.8683 29.9542C20.0383 30.1227 20.3867 30.1227 20.6417 29.9542L39.0401 11.9298L43.4252 16.2253C42.9917 16.6465 20.3017 38.8822 20.2168 38.8822H20.2083ZM36.0233 7.55005L47.7167 7.38159L47.8867 19.089C45.2183 16.5622 39.2866 10.7506 36.0233 7.55005Z"
        fill="black" />
    <path
        d="M3.78167 13.6143C5.84671 13.6143 7.56333 11.9297 7.56333 9.90831C7.56333 7.88688 5.84671 6.20236 3.78167 6.20236C1.71662 6.20236 0 7.88688 0 9.90831C0 11.9297 1.71662 13.6143 3.78167 13.6143ZM3.78167 7.2973C5.24334 7.2973 6.45008 8.47647 6.45008 9.90831C6.45008 11.3402 5.24334 12.5193 3.78167 12.5193C2.31999 12.5193 1.11325 11.3402 1.11325 9.90831C1.11325 8.47647 2.31999 7.2973 3.78167 7.2973Z"
        fill="black" />
    <path
        d="M22.6134 43.5988C20.8118 43.5988 19.3501 45.0307 19.3501 46.7994C19.3501 48.5682 20.8118 50 22.6134 50C24.415 50 25.8767 48.5682 25.8767 46.7994C25.8767 45.0307 24.415 43.5988 22.6134 43.5988ZM22.6134 48.9051C21.4066 48.9051 20.4634 47.9786 20.4634 46.7994C20.4634 45.6202 21.4066 44.6938 22.6134 44.6938C23.8201 44.6938 24.7634 45.6202 24.7634 46.7994C24.7634 47.9786 23.8201 48.9051 22.6134 48.9051Z"
        fill="black" />
    <path
        d="M28.3791 7.88253C28.7053 5.82221 27.0448 4.7147 24.7743 3.97589L25.5109 1.18499L23.7125 0.761669L22.9955 3.47908C22.5227 3.36769 22.0372 3.26273 21.5546 3.15867L22.2768 0.423326L20.4796 0L19.7426 2.78999C19.3514 2.70583 18.9671 2.62267 18.5943 2.53504L18.5964 2.52626L16.1164 1.94121L15.638 3.75575C15.638 3.75575 16.9722 4.04468 16.9441 4.06246C17.6724 4.23417 17.804 4.68958 17.7822 5.05055L16.9431 8.23003C16.9933 8.24206 17.0583 8.25947 17.1301 8.28671C17.0701 8.27264 17.0063 8.25727 16.94 8.24229L15.764 12.6963C15.675 12.9053 15.4491 13.219 14.9399 13.0999C14.958 13.1245 13.6329 12.7917 13.6329 12.7917L12.74 14.7364L15.0803 15.2876C15.5157 15.3907 15.9423 15.4986 16.3625 15.6001L15.6183 18.423L17.4146 18.8463L18.1515 16.0534C18.6423 16.1792 19.1185 16.2953 19.5847 16.4047L18.8502 19.1845L20.6487 19.6078L21.3928 16.7902C24.4594 17.3385 26.7652 17.1175 27.7358 14.4971C28.5179 12.3875 27.6969 11.1706 26.0835 10.3771C27.2586 10.1211 28.1437 9.39096 28.3797 7.88276L28.3791 7.88238L28.3791 7.88253ZM24.2702 13.3255C23.7144 15.4352 19.9544 14.2948 18.7354 14.0088L19.7229 10.2689C20.9419 10.5564 24.851 11.1254 24.2703 13.3255H24.2702ZM24.8264 7.85196C24.3194 9.77092 21.1899 8.796 20.1747 8.55695L21.07 5.16512C22.0852 5.40418 25.3545 5.85036 24.8265 7.85196H24.8264Z"
        fill="#11B2BA" />
</svg>