<svg width="50" height="50" viewBox="0 0 50 50" fill="none" xmlns="http://www.w3.org/2000/svg">
    <g clip-path="url(#clip0_1341_7030)">
        <path
            d="M38.0128 1.6658C38.4331 1.6658 38.7777 2.01105 38.7777 2.4426C38.7777 2.87416 38.4331 3.2194 38.0128 3.2194C37.5925 3.2194 37.2478 2.87416 37.2478 2.4426C37.2478 2.01105 37.5925 1.6658 38.0128 1.6658Z"
            fill="#11B2BA" />
        <path
            d="M13.0128 1.13928C13.4331 1.13928 13.7777 1.48453 13.7777 1.91608C13.7777 2.34764 13.4331 2.69288 13.0128 2.69288C12.5925 2.69288 12.2478 2.34764 12.2478 1.91608C12.2478 1.48453 12.5925 1.13928 13.0128 1.13928Z"
            fill="#11B2BA" />
        <path
            d="M1.36189 8.74329C1.7822 8.74329 2.12685 9.08853 2.12685 9.52009C2.12685 9.95164 1.7822 10.2969 1.36189 10.2969C0.941577 10.2969 0.596924 9.95164 0.596924 9.52009C0.596924 9.08853 0.941577 8.74329 1.36189 8.74329Z"
            fill="#11B2BA" />
        <path
            d="M46.3432 42.4046C47.2763 41.6278 47.8731 40.3331 47.8731 39.0385V14.5261C47.8731 12.1094 45.9145 10.038 43.4514 10.038H36.7349L36.3902 6.24028C36.3902 5.98134 36.1381 5.72241 35.8775 5.72241C29.4131 5.54979 24.9915 0.284814 24.9915 0.198503C24.8233 -0.0604303 24.3946 -0.0604303 24.1424 0.198503C24.0584 0.284814 19.7208 5.6361 13.2564 5.72241C13.0042 5.72241 12.7436 5.98134 12.7436 6.24028L12.4074 10.038H6.53988C4.16092 10.038 2.11822 12.0231 2.11822 14.5261V39.0385C2.11822 40.4195 2.71506 41.6278 3.64815 42.4046C1.60544 42.4046 -0.00854492 44.1308 -0.00854492 46.2023C-0.00854492 48.2738 1.68951 50 3.73221 50H46.2507C48.2934 50 49.9915 48.2738 49.9915 46.2023C49.9915 44.1308 48.3775 42.4046 46.3348 42.4046H46.3432ZM43.1152 14.8628V38.8572H6.96859V14.8628H12.1552C12.3233 18.6604 14.282 22.1992 17.2578 24.4433L24.319 29.6219C24.319 29.7083 24.4871 29.7083 24.5711 29.7083C24.6552 29.7083 24.8233 29.7083 24.9074 29.6219L31.9686 24.4433C35.0284 22.1992 36.903 18.6604 37.0711 14.8628H43.1068H43.1152ZM24.5796 1.32055C25.8573 2.70152 29.7662 6.4129 35.3815 6.75814L35.9783 13.0589C36.323 17.2018 34.5325 21.1721 31.3045 23.5025L24.588 28.5085L17.8714 23.5888C14.7275 21.2584 12.8529 17.2881 13.1976 13.1452L13.7944 6.84445C19.4097 6.49921 23.3186 2.70152 24.5964 1.32055H24.5796ZM3.22784 39.0299V14.5175C3.22784 12.6187 4.75776 11.1514 6.54828 11.1514H12.3317C12.1636 12.8776 12.1636 13.1365 12.0796 13.827H6.38016C6.12797 13.827 5.86738 14.086 5.86738 14.3449V39.4614C5.86738 39.7203 6.11957 39.9793 6.38016 39.9793H43.628C43.8802 39.9793 44.1407 39.7203 44.1407 39.4614V14.3449C44.1407 14.086 43.8886 13.827 43.628 13.827H37.0796C37.0796 13.1365 36.9955 12.8776 36.8274 11.1514H43.4599C45.3344 11.1514 46.7803 12.705 46.7803 14.5175V39.0299C46.7803 40.9287 45.2504 42.396 43.4599 42.396H30.2789C30.0268 42.396 29.7662 42.6549 29.7662 42.9138V44.5538H20.242V42.9138C20.242 42.6549 19.9898 42.396 19.7292 42.396H6.54828C4.6737 42.396 3.22784 40.8424 3.22784 39.0299ZM37.7605 43.4403H42.5184V44.5624H37.7605V43.4403ZM7.48137 43.4403H12.2393V44.5624H7.48137V43.4403ZM46.2591 48.8779H3.74061C2.29475 48.8779 1.10107 47.6696 1.10107 46.2023C1.10107 44.735 2.29475 43.5267 3.74061 43.5267H6.38016V45.1666C6.38016 45.4255 6.63234 45.6844 6.89293 45.6844H12.7605C13.0126 45.6844 13.2732 45.4255 13.2732 45.1666V43.5267H19.1408V45.1666C19.1408 45.4255 19.3929 45.6844 19.6535 45.6844H30.2789C30.5311 45.6844 30.7917 45.4255 30.7917 45.1666V43.5267H36.6592V45.1666C36.6592 45.4255 36.9114 45.6844 37.172 45.6844H43.0395C43.2917 45.6844 43.5523 45.4255 43.5523 45.1666V43.5267H46.1919C47.6377 43.5267 48.8314 44.735 48.8314 46.2023C48.9155 47.6696 47.7218 48.8779 46.2759 48.8779H46.2591Z"
            fill="black" />
        <path
            d="M31 8.9955C31 10.0956 30.06 10.991 28.9051 10.991H22.7807C22.4515 10.991 22.1836 11.2461 22.1836 11.5597C22.1836 11.8734 22.4515 12.1285 22.7807 12.1285H25.6399C26.7948 12.1285 27.7348 13.0239 27.7348 14.124C27.7348 15.2241 26.7948 16.1195 25.6399 16.1195H21.4347C21.0219 16.1195 20.6858 15.7994 20.6858 15.4061C20.6858 15.0129 21.0219 14.6928 21.4347 14.6928H25.6399C25.9691 14.6928 26.237 14.4376 26.237 14.124C26.237 13.8104 25.9691 13.5553 25.6399 13.5553H22.7807C21.6258 13.5553 20.6858 12.6599 20.6858 11.5597C20.6858 10.4596 21.6258 9.56425 22.7807 9.56425H28.9051C29.2343 9.56425 29.5022 9.30912 29.5022 8.9955C29.5022 8.68188 29.2343 8.42675 28.9051 8.42675H25.8446C25.4318 8.42675 25.0957 8.10663 25.0957 7.71338C25.0957 7.32013 25.4318 7 25.8446 7H28.9051C30.06 7 31 7.89538 31 8.9955ZM21.4347 17.2667C20.6431 17.2667 20 17.8794 20 18.6334C20 19.3874 20.6431 20 21.4347 20C22.2263 20 22.8694 19.3874 22.8694 18.6334C22.8694 17.8794 22.2246 17.2667 21.4347 17.2667ZM21.4347 19.207C21.102 19.207 20.8325 18.9486 20.8325 18.6334C20.8325 18.3165 21.1038 18.0598 21.4347 18.0598C21.7674 18.0598 22.0369 18.3181 22.0369 18.6334C22.0369 18.9503 21.7657 19.207 21.4347 19.207ZM22.9974 7.71338C22.9974 7.32013 23.3317 7 23.7463 7C24.1608 7 24.4952 7.3185 24.4952 7.71338C24.4952 8.10825 24.1608 8.42675 23.7463 8.42675C23.3317 8.42675 22.9974 8.10663 22.9974 7.71338Z"
            fill="#11B2BA" />
        <path
            d="M19.0485 22.0266L24.2351 25.8243C24.3192 25.9106 24.4032 25.9106 24.5798 25.9106C24.6638 25.9106 24.832 25.9106 24.916 25.8243L30.1026 22.0266C32.7422 20.0414 34.188 16.7616 33.9275 13.4818C33.9275 13.2228 33.6753 12.9639 33.3306 12.9639C33.0784 12.9639 32.8178 13.2228 32.8178 13.5681C33.07 16.5027 31.8007 19.4372 29.4133 21.1635L24.563 24.7022L19.7126 21.0771C17.3336 19.3509 16.0559 16.4163 16.3081 13.4818C16.3081 13.2228 16.14 12.9639 15.7953 12.8776C15.5431 12.8776 15.2825 13.0502 15.1985 13.3955C14.9463 16.7616 16.3921 20.0414 19.0233 22.0266H19.0485Z"
            fill="#11B2BA" />
        <path
            d="M28.7407 30.2261C28.7407 30.4851 28.9929 30.744 29.2535 30.744H35.121C35.3732 30.744 35.6338 30.4851 35.6338 30.2261C35.6338 29.9672 35.3816 29.7083 35.121 29.7083H29.2535C29.0013 29.7083 28.7407 29.9672 28.7407 30.2261Z"
            fill="black" />
        <path
            d="M28.7407 32.3839C28.7407 32.6428 28.9929 32.9018 29.2535 32.9018H40.3917C40.6439 32.9018 40.9045 32.6428 40.9045 32.3839C40.9045 32.125 40.6523 31.866 40.3917 31.866H29.2535C29.0013 31.866 28.7407 32.125 28.7407 32.3839Z"
            fill="black" />
        <path
            d="M40.3917 34.0324H29.2535C29.0013 34.0324 28.7407 34.2914 28.7407 34.5503C28.7407 34.8092 28.9929 35.0682 29.2535 35.0682H40.3917C40.6439 35.0682 40.9045 34.8092 40.9045 34.5503C40.9045 34.2914 40.7364 34.0324 40.3917 34.0324Z"
            fill="black" />
        <path
            d="M40.3917 36.1902H29.2535C29.0013 36.1902 28.7407 36.4491 28.7407 36.7081C28.7407 36.967 28.9929 37.2259 29.2535 37.2259H40.3917C40.6439 37.2259 40.9045 36.967 40.9045 36.7081C40.9045 36.4491 40.7364 36.1902 40.3917 36.1902Z"
            fill="black" />
        <path
            d="M44.6455 7.09477C46.4276 7.09477 47.8734 5.62748 47.8734 3.81495C47.8734 2.00241 46.4276 0.535126 44.6455 0.535126C42.8633 0.535126 41.4175 2.00241 41.4175 3.81495C41.4175 5.62748 42.9474 7.09477 44.6455 7.09477ZM44.6455 1.6658C45.8391 1.6658 46.7722 2.61522 46.7722 3.82358C46.7722 5.03193 45.8391 5.98135 44.6455 5.98135C43.4518 5.98135 42.5187 5.03193 42.5187 3.82358C42.5187 2.61522 43.4518 1.6658 44.6455 1.6658Z"
            fill="#11B2BA" />
        <path
            d="M6.38027 8.13913C7.82613 8.13913 9.01981 6.93077 9.01981 5.46348C9.01981 3.9962 7.82613 2.78784 6.38027 2.78784C4.9344 2.78784 3.74072 3.9962 3.74072 5.46348C3.74072 6.93077 4.9344 8.13913 6.38027 8.13913ZM6.38027 3.82357C7.22929 3.82357 7.99425 4.51406 7.99425 5.46348C7.99425 6.41291 7.31335 7.10339 6.38027 7.10339C5.53124 7.10339 4.76628 6.41291 4.76628 5.46348C4.76628 4.51406 5.53124 3.82357 6.38027 3.82357Z"
            fill="#11B2BA" />
    </g>
    <defs>
        <clipPath id="clip0_1341_7030">
            <rect width="50" height="50" fill="white" />
        </clipPath>
    </defs>
</svg>