<svg width="52" height="50" viewBox="0 0 52 50" fill="none" xmlns="http://www.w3.org/2000/svg">
    <path
        d="M47.3636 12.5454C47.8182 12.5454 48.1909 12.909 48.1909 13.3636C48.1909 13.8181 47.8182 14.1818 47.3636 14.1818C46.9091 14.1818 46.5364 13.8181 46.5364 13.3636C46.5364 12.909 46.9091 12.5454 47.3636 12.5454Z"
        fill="black" />
    <path
        d="M47.3636 48.3636C47.8182 48.3636 48.1909 48.7273 48.1909 49.1818C48.1909 49.6364 47.8182 50 47.3636 50C46.9091 50 46.5364 49.6364 46.5364 49.1818C46.5364 48.7273 46.9091 48.3636 47.3636 48.3636Z"
        fill="black" />
    <path
        d="M41.3819 40.5455C40.9183 40.3637 40.4637 40.2728 40.4637 40.2728V39.2728C40.6455 39.2728 40.7364 39.3637 40.8274 39.3637C41.0092 39.4546 41.291 39.5455 41.4728 39.6364C41.5637 39.6364 41.5637 39.7273 41.5637 39.7273L42.1183 38.7273C41.9365 38.6364 41.6546 38.4546 41.3819 38.3637C41.1092 38.2728 40.8274 38.1819 40.4637 38.1819V37.4546H39.9092V38.1819C39.1728 38.2728 38.6183 38.5455 38.3455 39.1819C38.2546 39.3637 38.2546 39.6364 38.2546 39.8182C38.2546 40.3637 38.4365 40.7273 39.0819 41C39.4455 41.1819 39.9092 41.2728 40.091 41.3637V42.3637C39.9092 42.3637 39.7274 42.2728 39.5365 42.2728C39.2637 42.1819 38.9819 42.091 38.7092 41.9091C38.7092 41.8485 38.6789 41.8182 38.6183 41.8182L38.0637 42.9091C38.6183 43.2728 39.3546 43.4546 39.991 43.5455V44.3637H40.5455V43.5455C40.8183 43.5455 41.0092 43.4546 41.191 43.4546C41.6546 43.3637 41.9274 43.091 42.2001 42.7273C42.291 42.5455 42.3819 42.2728 42.3819 42C42.3819 41.7273 42.3819 41.5455 42.291 41.3637C42.1092 41 41.8274 40.7273 41.3728 40.5455H41.3819ZM40.091 40.1819C39.9092 40.091 39.8183 40.091 39.7274 40C39.6364 39.9091 39.6364 39.8182 39.6364 39.7273C39.6364 39.4546 39.8183 39.3637 40.191 39.2728L40.1001 40.1819H40.091ZM40.4637 42.3637V41.4546C40.6455 41.5455 40.7364 41.5455 40.9274 41.6364C41.0183 41.8182 41.0183 41.9091 41.0183 42C41.0183 42.2728 40.8364 42.3637 40.4637 42.3637Z"
        fill="#11B2BA" />
    <path
        d="M35.8636 0.636353C36.3182 0.636353 36.6909 0.999989 36.6909 1.45453C36.6909 1.90908 36.3182 2.27272 35.8636 2.27272C35.4091 2.27272 35.0364 1.90908 35.0364 1.45453C35.0364 0.999989 35.4091 0.636353 35.8636 0.636353Z"
        fill="black" />
    <path
        d="M24.6454 9.36359C24.3727 9.27268 24.0909 9.18177 23.8182 8.99996C23.7272 8.90905 23.6363 8.90905 23.6363 8.90905L23.0818 9.99996C23.6363 10.3636 24.3727 10.5454 25.0091 10.6363V11.4545H25.5636V10.6363C26.0272 10.6363 26.4818 10.5454 26.8545 10.2727C27.0363 10.1818 27.1272 9.99996 27.2182 9.81814C27.4 9.4545 27.4 8.81814 27.2182 8.4545C27.1272 8.18177 26.8545 7.90905 26.3909 7.72723C25.9272 7.54541 25.4727 7.4545 25.4727 7.4545V6.36359C25.5636 6.36359 25.7454 6.4545 25.8363 6.4545C26.0182 6.54541 26.3 6.63632 26.4818 6.72723C26.5727 6.72723 26.5727 6.81814 26.5727 6.81814L27.1272 5.81814C26.9454 5.72723 26.6636 5.54541 26.3909 5.4545C26.1182 5.36359 25.8363 5.27268 25.4727 5.27268V4.54541H24.9182V5.27268C24.1818 5.36359 23.6272 5.63632 23.3545 6.27268C23.2636 6.4545 23.2636 6.72723 23.2636 6.90905C23.2636 7.4545 23.4454 7.81814 24.0909 8.09086C24.4545 8.27268 24.9182 8.36359 25.1 8.4545V9.4545C25.0091 9.4545 24.8272 9.4545 24.6363 9.36359H24.6454ZM25.4727 8.63632C25.6545 8.72723 25.7454 8.72723 25.9363 8.81814C26.0272 8.90905 26.1182 8.99996 26.1182 9.09086C26.1182 9.36359 25.9363 9.4545 25.5636 9.4545L25.4727 8.63632ZM24.7363 7.09086C24.6454 6.99996 24.6454 6.90905 24.6454 6.81814C24.6454 6.54541 24.8272 6.4545 25.2 6.36359V7.27268C25.0182 7.18177 24.8363 7.09086 24.7363 7.09086Z"
        fill="#11B2BA" />
    <path
        d="M13.5182 2.90906C13.9727 2.90906 14.3455 3.27269 14.3455 3.72724C14.3455 4.18178 13.9727 4.54542 13.5182 4.54542C13.0636 4.54542 12.6909 4.18178 12.6909 3.72724C12.6909 3.27269 13.0636 2.90906 13.5182 2.90906Z"
        fill="black" />
    <path
        d="M11.491 40.5455C11.0274 40.3637 10.5729 40.2728 10.5729 40.2728V39.2728C10.7547 39.2728 10.8456 39.3637 10.9365 39.3637C11.1183 39.4546 11.4001 39.5455 11.5819 39.6364C11.6729 39.6364 11.6729 39.7273 11.6729 39.7273L12.2274 38.7273C12.0456 38.6364 11.7638 38.4546 11.491 38.3637C11.2183 38.2728 10.9365 38.1819 10.5729 38.1819V37.4546H10.0183V38.1819C9.28194 38.2728 8.7274 38.5455 8.45467 39.1819C8.36376 39.3637 8.36376 39.6364 8.36376 39.8182C8.36376 40.3637 8.54558 40.7273 9.19103 41C9.55467 41.1819 10.0183 41.2728 10.2001 41.3637V42.3637C10.0183 42.3637 9.83649 42.2728 9.64558 42.2728C9.37285 42.1819 9.09103 42.091 8.81831 41.9091C8.81831 41.8485 8.788 41.8182 8.7274 41.8182L8.17285 42.9091C8.7274 43.2728 9.46376 43.4546 10.1001 43.5455V44.3637H10.6547V43.5455C10.9274 43.5455 11.1183 43.4546 11.3001 43.4546C11.7638 43.3637 12.0365 43.091 12.3092 42.7273C12.4001 42.5455 12.491 42.2728 12.491 42C12.491 41.7273 12.491 41.5455 12.4001 41.3637C12.2183 41 11.9365 40.7273 11.4819 40.5455H11.491ZM10.2092 40.1819C10.0274 40.091 9.93649 40.091 9.84558 40C9.75467 39.9091 9.75467 39.8182 9.75467 39.6364C9.75467 39.3637 9.93649 39.2728 10.3092 39.1819V40.1819H10.2183H10.2092ZM10.5729 42.3637V41.4546C10.7547 41.5455 10.8456 41.5455 11.0365 41.6364C11.1274 41.7273 11.2183 41.8182 11.2183 41.9091C11.1274 42.2728 10.9456 42.3637 10.5729 42.3637Z"
        fill="#11B2BA" />
    <path
        d="M3.12732 46.6364C3.58187 46.6364 3.95459 47 3.95459 47.4545C3.95459 47.9091 3.58187 48.2727 3.12732 48.2727C2.67278 48.2727 2.30005 47.9091 2.30005 47.4545C2.30005 47 2.67278 46.6364 3.12732 46.6364Z"
        fill="black" />
    <path
        d="M0.827273 25C1.28182 25 1.65455 25.3636 1.65455 25.8182C1.65455 26.2727 1.28182 26.6364 0.827273 26.6364C0.372727 26.6364 0 26.2727 0 25.8182C0 25.3636 0.372727 25 0.827273 25Z"
        fill="black" />
    <path
        d="M44.4183 35.5454C47.0819 29.1818 46.2546 21.6363 41.9365 15.7272C39.4546 12.3636 36.0546 9.90903 32.1001 8.5454C32.4637 4.5454 29.2455 1.18176 25.2001 1.18176C21.1546 1.18176 18.0274 4.5454 18.391 8.5454C10.3001 11.3636 4.50918 18.9999 4.50918 27.8181C4.50918 30.4545 5.06372 33.0909 6.07282 35.5454C4.41827 36.8181 3.40918 38.8181 3.40918 40.909C3.40918 44.6363 6.53645 47.7272 10.3092 47.7272C12.1455 47.7272 13.9001 46.9999 15.1819 45.7272C21.4365 49.1818 29.0728 49.1818 35.4183 45.7272C36.7092 46.9999 38.4546 47.7272 40.291 47.7272C44.0637 47.7272 47.191 44.6363 47.191 40.909C47.1001 38.8181 46.1819 36.8181 44.4274 35.5454H44.4183ZM25.291 2.27267C28.7819 2.27267 31.4546 5.36358 30.991 8.81813C30.5274 11.5454 28.1365 13.6363 25.291 13.6363C22.2546 13.6363 19.591 11.1818 19.591 7.99994C19.5001 4.81813 22.0728 2.27267 25.291 2.27267ZM10.3001 46.5454C7.17282 46.5454 4.60009 43.9999 4.60009 40.909C4.60009 38.9999 5.51827 37.2727 7.08191 36.2727C8.00009 35.6363 9.10918 35.2727 10.3001 35.2727C13.4274 35.2727 16.0001 37.8181 16.0001 40.909C16.091 43.9999 13.5183 46.5454 10.3001 46.5454ZM15.9092 44.8181C16.7365 43.6363 17.2001 42.2727 17.2001 40.909C17.2001 37.1818 14.0728 34.0909 10.3001 34.0909C9.10918 34.0909 8.00009 34.3636 6.991 34.909C6.07282 32.6363 5.60918 30.2727 5.60918 27.8181C5.60918 19.6363 10.7637 12.4545 18.4819 9.63631C19.2183 12.5454 21.9728 14.7272 25.1001 14.7272C28.2274 14.7272 30.9819 12.5454 31.7183 9.63631C39.4455 12.3636 44.591 19.6363 44.591 27.8181C44.591 30.2727 44.1274 32.6363 43.2092 34.909C42.2001 34.3636 41.091 34.0909 39.991 34.0909C36.2183 34.0909 33.091 37.1818 33.091 40.909C33.091 42.2727 33.5546 43.7272 34.3819 44.8181C28.8637 47.909 21.7819 47.9999 15.9001 44.8181H15.9092ZM40.191 46.5454C37.0637 46.5454 34.491 43.9999 34.491 40.909C34.491 37.8181 37.0637 35.2727 40.191 35.2727C43.3183 35.2727 45.891 37.8181 45.891 40.909C45.9819 43.9999 43.4092 46.5454 40.191 46.5454Z"
        fill="black" />
    <path
        d="M25.2909 17.0909C19.3091 17.0909 14.3455 21.9091 14.3455 27.9091C14.3455 33.9091 19.2182 38.7273 25.2909 38.7273C31.3636 38.7273 36.2364 33.9091 36.2364 27.9091C36.2364 21.9091 31.2727 17.0909 25.2909 17.0909ZM25.2909 37.5455C19.8636 37.5455 15.5455 33.1819 15.5455 27.9091C15.5455 22.6364 19.8636 18.1819 25.2909 18.1819C30.7182 18.1819 35.0364 22.5455 35.0364 27.8182C35.0364 33.0909 30.6182 37.5455 25.2909 37.5455Z"
        fill="black" />
    <path
        d="M27.5908 25.9091C28.2363 25.3637 28.6908 24.4546 28.6908 23.5455C28.6908 21.8182 27.309 20.4546 25.5635 20.4546C23.8181 20.4546 22.4363 21.8182 22.4363 23.5455C22.4363 24.4546 22.8999 25.3637 23.5363 25.9091C20.4999 27.091 19.0272 30.4546 20.2272 33.3637C20.3181 33.5455 20.4999 33.7273 20.7817 33.7273H30.3454C30.6181 33.7273 30.809 33.5455 30.8999 33.3637C31.1726 32.7273 31.3635 32 31.3635 31.2728C31.2726 28.8182 29.709 26.7273 27.5908 25.9091ZM25.5635 27.6364L26.209 29.1819L25.5635 29.8182L24.9181 29.1819L25.5635 27.6364ZM23.5453 23.5455C23.5453 22.4546 24.4635 21.5455 25.5726 21.5455C26.6817 21.5455 27.5999 22.4546 27.5999 23.5455C27.5999 24.6364 26.6817 25.5455 25.5726 25.5455C24.4635 25.5455 23.5453 24.6364 23.5453 23.5455ZM29.8908 32.5455H28.6999V31.1819C28.6999 30.9091 28.4272 30.6364 28.1453 30.6364C27.8635 30.6364 27.5908 30.9091 27.5908 31.1819V32.5455H23.5453V31.1819C23.5453 30.9091 23.2726 30.6364 22.9908 30.6364C22.709 30.6364 22.4363 30.9091 22.4363 31.1819V32.5455H21.2454C20.4181 29.9091 22.0726 27.2728 24.7363 26.7273L23.8181 29.091C23.7272 29.2728 23.8181 29.5455 23.909 29.7273L25.1999 31C25.3817 31.1819 25.7544 31.1819 26.0272 31L27.3181 29.7273C27.4999 29.5455 27.4999 29.3637 27.409 29.091L26.4908 26.7273C28.609 27.091 30.1726 29 30.1726 31.1819C30.1726 31.7273 30.0817 32.1819 29.8999 32.5455H29.8908Z"
        fill="#11B2BA" />
    <path
        d="M47.0819 0C44.5092 0 42.4819 2 42.4819 4.54545C42.4819 7.09091 44.5092 9.09091 47.0819 9.09091C49.6547 9.09091 51.6819 7.09091 51.6819 4.54545C51.6819 2 49.6547 0 47.0819 0ZM47.0819 8C45.1547 8 43.591 6.45455 43.591 4.54545C43.591 2.63636 45.1547 1.09091 47.0819 1.09091C49.0092 1.09091 50.5728 2.63636 50.5728 4.54545C50.5728 6.45455 49.0092 8 47.0819 8Z"
        fill="black" />
    <path
        d="M7.99988 9.63631C7.99988 7.72722 6.43625 6.18176 4.50898 6.18176C2.5817 6.18176 1.01807 7.72722 1.01807 9.63631C1.01807 11.5454 2.5817 13.0909 4.50898 13.0909C6.43625 13.0909 7.99988 11.5454 7.99988 9.63631ZM2.29988 9.63631C2.29988 8.36358 3.30898 7.36358 4.59988 7.36358C5.89079 7.36358 6.89988 8.36358 6.89988 9.63631C6.89988 10.909 5.89079 11.909 4.59988 11.909C3.30898 11.909 2.29988 10.909 2.29988 9.63631Z"
        fill="black" />
</svg>