<svg width="73" height="50" viewBox="0 0 73 50" fill="none" xmlns="http://www.w3.org/2000/svg">
    <path
        d="M11.9379 22.3676C11.8648 21.6383 11.2009 21.41 10.3623 21.3616L10.3636 20.3473L9.71389 20.3639L9.71268 21.3514C9.54186 21.3558 9.36728 21.3634 9.19379 21.3711L9.19517 20.377L8.54582 20.3935L8.5443 21.4075C8.40366 21.4138 8.26548 21.4198 8.1308 21.4233L8.13073 21.4202L7.23462 21.4426L7.23395 22.102C7.23395 22.102 7.71375 22.0811 7.70577 22.0897C7.9689 22.0831 8.05439 22.2261 8.0792 22.3507L8.07776 23.5062C8.0959 23.5058 8.11959 23.5059 8.14644 23.5087C8.12477 23.5093 8.10167 23.5098 8.07779 23.5106L8.07555 25.1293C8.06394 25.2083 8.01509 25.335 7.83121 25.34C7.83955 25.3467 7.35893 25.3519 7.35893 25.3519L7.22886 26.0925L8.07441 26.071C8.23176 26.0672 8.38657 26.0658 8.5386 26.0628L8.53757 27.0886L9.1866 27.0721L9.18784 26.0572C9.36606 26.0562 9.53847 26.0531 9.70688 26.0487L9.7053 27.059L10.3551 27.0424L10.3565 26.0184C11.449 25.9311 12.2138 25.6502 12.3099 24.673C12.3876 23.8863 11.9995 23.546 11.3797 23.4202C11.7566 23.2284 11.9926 22.9013 11.9381 22.3676L11.9379 22.3675L11.9379 22.3676ZM11.0261 24.5841C11.0254 25.3507 9.64417 25.2986 9.20383 25.3102L9.20575 23.9511C9.6462 23.94 11.0271 23.7845 11.0261 24.5841L11.0261 24.5841ZM10.7263 22.6742C10.7252 23.3716 9.57331 23.3196 9.20653 23.3289L9.20816 22.0963C9.57494 22.0869 10.7272 21.9468 10.7264 22.6742L10.7263 22.6742Z"
        fill="#11B2BA" />
    <path
        d="M60.0212 5.90552C60.5139 5.90552 60.918 6.29922 60.918 6.79134C60.918 7.28347 60.5139 7.67717 60.0212 7.67717C59.5285 7.67717 59.1245 7.28347 59.1245 6.79134C59.1245 6.29922 59.5285 5.90552 60.0212 5.90552Z"
        fill="black" />
    <path
        d="M56.0796 48.2283C56.5723 48.2283 56.9763 48.622 56.9763 49.1142C56.9763 49.6063 56.5723 50 56.0796 50C55.5869 50 55.1829 49.6063 55.1829 49.1142C55.1829 48.622 55.5869 48.2283 56.0796 48.2283Z"
        fill="black" />
    <path
        d="M34.4006 2.95276C34.8933 2.95276 35.2974 3.34646 35.2974 3.83859C35.2974 4.33071 34.8933 4.72441 34.4006 4.72441C33.9079 4.72441 33.5039 4.33071 33.5039 3.83859C33.5039 3.34646 33.9079 2.95276 34.4006 2.95276Z"
        fill="black" />
    <path
        d="M23.561 33.4645C24.0537 33.4645 24.4578 33.8582 24.4578 34.3504C24.4578 34.8425 24.0537 35.2362 23.561 35.2362C23.0683 35.2362 22.6643 34.8425 22.6643 34.3504C22.6643 33.8582 23.0683 33.4645 23.561 33.4645Z"
        fill="black" />
    <path
        d="M18.634 0C19.1267 0 19.5307 0.393701 19.5307 0.885827C19.5307 1.37795 19.1267 1.77165 18.634 1.77165C18.1413 1.77165 17.7373 1.37795 17.7373 0.885827C17.7373 0.393701 18.1413 0 18.634 0Z"
        fill="black" />
    <path
        d="M41.2983 43.3071C41.791 43.3071 42.1951 43.7008 42.1951 44.1929C42.1951 44.685 41.791 45.0787 41.2983 45.0787C40.8056 45.0787 40.4016 44.685 40.4016 44.1929C40.4016 43.7008 40.8056 43.3071 41.2983 43.3071Z"
        fill="black" />
    <path
        d="M15.6777 41.3386C16.1704 41.3386 16.5745 41.7323 16.5745 42.2244C16.5745 42.7165 16.1704 43.1102 15.6777 43.1102C15.185 43.1102 14.781 42.7165 14.781 42.2244C14.781 41.7323 15.185 41.3386 15.6777 41.3386Z"
        fill="black" />
    <path
        d="M64.3039 23.2284C64.0674 23.1497 63.823 23.0709 63.5865 22.9922L63.35 22.9134V21.8898C63.9097 21.9686 64.4695 22.2835 64.5483 22.3623L65.108 21.3386C64.8715 21.1812 64.6271 21.1024 64.3906 21.0237C64.0753 20.9449 63.7521 20.8662 63.4367 20.7875V20.0001H62.877V20.7875C62.1597 20.8662 61.5999 21.1812 61.2846 21.8111C61.2058 22.0473 61.1269 22.2835 61.1269 22.5197C61.1269 23.0709 61.3634 23.4646 61.9232 23.7796C62.3252 24.0158 62.7194 24.0945 62.9559 24.0945V25.1182C62.7982 25.1182 62.5538 25.0394 62.3962 24.9607C62.1597 24.8819 61.8364 24.7245 61.5999 24.567C61.5211 24.4882 61.4423 24.4882 61.4423 24.4095L60.8826 25.5119C61.4423 25.9056 62.1597 26.063 62.877 26.1418V27.0079H63.4367V26.1418C63.6732 26.1418 63.9176 26.063 64.1541 26.063C64.3906 25.9843 64.5562 25.9056 64.7138 25.7481C64.8715 25.5906 65.037 25.4331 65.1159 25.2756C65.1947 25.0394 65.2735 24.8032 65.2735 24.567C65.2735 24.3308 65.2735 24.0945 65.1947 23.9371C65.037 23.7008 64.7927 23.4646 64.3197 23.2284H64.3039ZM63.0268 22.8347C62.8691 22.756 62.7115 22.6772 62.6248 22.6772C62.5459 22.5985 62.4671 22.5197 62.4671 22.3623C62.4671 22.126 62.6248 21.9686 63.0268 21.8898V22.8347ZM63.3421 25.1182V24.252C63.4998 24.3308 63.6654 24.4095 63.7442 24.4882C63.823 24.567 63.9019 24.6457 63.9019 24.8032C63.9807 24.9607 63.7442 25.1182 63.3421 25.1182Z"
        fill="#11B2BA" />
    <path
        d="M63.1055 16.6929C59.2742 16.6929 56.1682 19.7637 56.1682 23.5433C56.1682 27.3228 59.2821 30.3936 63.1055 30.3936C66.9289 30.3936 70.0428 27.3228 70.0428 23.5433C70.1216 19.7637 66.9289 16.6929 63.1055 16.6929ZM63.1055 29.4488C59.8339 29.4488 57.1221 26.7716 57.1221 23.5433C57.1221 20.3149 59.8339 17.6377 63.1055 17.6377C66.377 17.6377 69.0889 20.3149 69.0889 23.5433C69.0889 26.7716 66.4559 29.4488 63.1055 29.4488Z"
        fill="black" />
    <path
        d="M63.1054 13.7795C62.8689 13.7795 62.6245 14.0158 62.6245 14.252C62.6245 14.4882 62.861 14.7244 63.1054 14.7244C68.0482 14.7244 72.0371 18.6614 72.0371 23.5433C72.0371 23.7795 72.2736 24.0157 72.518 24.0157C72.7624 24.0157 72.9989 23.7795 72.9989 23.5433C73.0777 18.189 68.6158 13.7795 63.1133 13.7795H63.1054Z"
        fill="black" />
    <path
        d="M63.1057 32.4409C58.1628 32.4409 54.1739 28.5039 54.1739 23.622C54.1739 23.3858 53.9374 23.1496 53.693 23.1496C53.4487 23.1496 53.2122 23.3858 53.2122 23.622C53.2122 29.0551 57.682 33.4645 63.1766 33.4645C63.4131 33.4645 63.6575 33.2283 63.6575 32.9921C63.6575 32.6771 63.421 32.4409 63.0978 32.4409H63.1057Z"
        fill="black" />
    <path
        d="M9.88912 30.5512C13.6915 30.5512 16.7741 27.4803 16.7741 23.7008C16.7741 19.9213 13.6837 16.8504 9.88912 16.8504C6.09456 16.8504 3.00415 19.9213 3.00415 23.7008C3.00415 27.4803 6.08674 30.5512 9.88912 30.5512ZM9.88912 17.7953C13.136 17.7953 15.8274 20.4725 15.8274 23.7008C15.8274 26.9292 13.136 29.6063 9.88912 29.6063C6.64223 29.6063 3.95083 26.9292 3.95083 23.7008C3.95083 20.4725 6.64223 17.7953 9.88912 17.7953Z"
        fill="black" />
    <path
        d="M9.88922 14.8032C14.7948 14.8032 18.7536 18.7402 18.7536 23.6221C18.7536 23.8583 18.9883 24.0945 19.2309 24.0945C19.4734 24.0945 19.7081 23.8583 19.7081 23.6221C19.7081 18.189 15.2798 13.7795 9.81881 13.7795C9.58409 13.7795 9.34155 14.0158 9.34155 14.252C9.41979 14.5669 9.66233 14.8032 9.89705 14.8032H9.88922Z"
        fill="black" />
    <path
        d="M0 23.622C0 29.0551 4.42829 33.4645 9.89715 33.4645C10.1319 33.4645 10.3744 33.2283 10.3744 32.9921C10.3744 32.7558 10.1397 32.5196 9.89715 32.5196C4.9916 32.5196 1.03275 28.5826 1.03275 23.7007C1.03275 23.4645 0.798031 23.2283 0.555492 23.2283C0.242539 23.1495 0 23.3858 0 23.622Z"
        fill="black" />
    <path
        d="M48.7283 11.6142C51.1229 11.6142 53.1134 9.64567 53.1134 7.28347C53.1134 4.92126 51.1229 2.95276 48.7283 2.95276C46.3338 2.95276 44.3433 4.92126 44.3433 7.28347C44.3433 9.64567 46.3338 11.6142 48.7283 11.6142ZM48.7283 4.23229C50.4232 4.23229 51.8225 5.61024 51.8225 7.28347C51.8225 8.9567 50.4232 10.3346 48.7283 10.3346C47.0334 10.3346 45.6341 8.9567 45.6341 7.28347C45.6341 5.61024 47.0334 4.23229 48.7283 4.23229Z"
        fill="black" />
    <path
        d="M25.4629 40.3543C23.3739 40.3543 21.679 42.0275 21.679 44.0945C21.679 46.1614 23.3739 47.8346 25.4629 47.8346C27.552 47.8346 29.2469 46.1614 29.2469 44.0945C29.2469 42.0275 27.552 40.3543 25.4629 40.3543ZM25.4629 46.5551C24.0636 46.5551 22.9698 45.4724 22.9698 44.0945C22.9698 42.7165 24.0636 41.6338 25.4629 41.6338C26.8622 41.6338 27.956 42.7165 27.956 44.0945C27.956 45.4724 26.8622 46.5551 25.4629 46.5551Z"
        fill="black" />
    <path
        d="M50.7484 34.4488C49.3884 34.4488 48.2849 35.5496 48.2849 36.9094C48.2849 38.2692 49.3884 39.3701 50.7484 39.3701C52.1085 39.3701 53.212 38.2692 53.212 36.9094C53.212 35.5496 52.1085 34.4488 50.7484 34.4488ZM50.7484 38.5283C49.8374 38.5283 49.1253 37.816 49.1253 36.9094C49.1253 36.0029 49.8374 35.2906 50.7484 35.2906C51.6594 35.2906 52.3715 36.0029 52.3715 36.9094C52.3715 37.816 51.6594 38.5283 50.7484 38.5283Z"
        fill="black" />
    <path
        d="M22.1718 7.87402C20.8117 7.87402 19.7083 8.97483 19.7083 10.3347C19.7083 11.6945 20.8117 12.7953 22.1718 12.7953C23.5318 12.7953 24.6353 11.6945 24.6353 10.3347C24.6353 8.97483 23.5318 7.87402 22.1718 7.87402ZM22.1718 11.9535C21.2608 11.9535 20.5487 11.2412 20.5487 10.3347C20.5487 9.42811 21.2608 8.71582 22.1718 8.71582C23.0828 8.71582 23.7949 9.42811 23.7949 10.3347C23.7949 11.2412 23.0828 11.9535 22.1718 11.9535Z"
        fill="black" />
    <path
        d="M36.4598 35.187C30.6164 35.187 25.8667 30.4429 25.8667 24.6063C25.8667 18.7697 30.6164 14.0256 36.4598 14.0256C42.3033 14.0256 47.053 18.7697 47.053 24.6063C47.053 30.4429 42.3033 35.187 36.4598 35.187ZM36.4598 15.502C31.4343 15.502 27.3448 19.5866 27.3448 24.6063C27.3448 29.626 31.4343 33.7106 36.4598 33.7106C41.4854 33.7106 45.5749 29.626 45.5749 24.6063C45.5749 19.5866 41.4854 15.502 36.4598 15.502Z"
        fill="#11B2BA" />
    <path
        d="M35.0607 28.1299C34.8636 28.1299 34.6764 28.0512 34.5384 27.9134L31.7497 25.128C31.464 24.8425 31.464 24.3701 31.7497 24.0847C32.0355 23.7992 32.5085 23.7992 32.7943 24.0847L35.0607 26.3484L40.1257 21.2894C40.4115 21.004 40.8845 21.004 41.1702 21.2894C41.456 21.5748 41.456 22.0473 41.1702 22.3327L35.583 27.9134C35.445 28.0512 35.2578 28.1299 35.0607 28.1299Z"
        fill="#11B2BA" />
</svg>