<svg width="50" height="50" viewBox="0 0 50 50" fill="none" xmlns="http://www.w3.org/2000/svg">
    <g id="Group 1277">
        <path id="Vector"
            d="M2.96247 34.3058C3.43979 34.3058 3.83119 34.6876 3.83119 35.165C3.83119 35.6423 3.43979 36.0241 2.96247 36.0241C2.48515 36.0241 2.09375 35.6423 2.09375 35.165C2.09375 34.6876 2.48515 34.3058 2.96247 34.3058Z"
            fill="black" />
        <path id="Vector_2"
            d="M15.5245 13.3802C16.0018 13.3802 16.3932 13.762 16.3932 14.2394C16.3932 14.7167 16.0018 15.0985 15.5245 15.0985C15.0472 15.0985 14.6558 14.7167 14.6558 14.2394C14.6558 13.762 15.0472 13.3802 15.5245 13.3802Z"
            fill="black" />
        <path id="Vector_3"
            d="M39.8192 7.44617C40.2965 7.44617 40.6879 7.82802 40.6879 8.30534C40.6879 8.78266 40.2965 9.16451 39.8192 9.16451C39.3418 9.16451 38.9504 8.78266 38.9504 8.30534C38.9504 7.82802 39.3418 7.44617 39.8192 7.44617Z"
            fill="black" />
        <path id="Vector_4"
            d="M24.8434 12.2193V11.1692C25.1299 11.1692 25.426 11.0738 25.7126 11.0738C25.9991 10.9783 26.1997 10.8829 26.3907 10.6919C26.5817 10.501 26.7728 10.3101 26.8778 10.1191C26.9733 9.83276 27.0688 9.54637 27.0688 9.25998C27.0688 8.49627 26.6868 7.92348 25.9131 7.54163C25.6266 7.44617 25.3305 7.3507 25.044 7.25524L24.7574 7.15978V5.91875C25.4356 6.01421 26.1137 6.39607 26.2092 6.49153L26.8874 5.2505C26.6008 5.05958 26.3047 4.96411 26.0182 4.86865C25.6361 4.77319 25.2445 4.67772 24.8625 4.58226V3.62762H24.1843V4.58226C23.3151 4.67772 22.637 5.05958 22.2549 5.82329C22.1594 6.10968 22.0639 6.39607 22.0639 6.68246C22.0639 7.3507 22.3505 7.82802 23.0286 8.20988C23.5157 8.49627 23.9933 8.59173 24.2798 8.59173V9.83276C24.0888 9.83276 23.7927 9.73729 23.6017 9.64183C23.3151 9.54637 22.9235 9.35544 22.637 9.16451C22.5415 9.06905 22.446 9.06905 22.446 8.97358L21.7678 10.3101C22.446 10.7874 23.3151 10.9783 24.1843 11.0738V12.1239L24.8625 12.2193H24.8434ZM24.7479 8.78266C24.9389 8.87812 25.1299 8.97358 25.235 9.06905C25.34 9.16451 25.426 9.25997 25.426 9.4509C25.426 9.73729 25.235 9.92822 24.7479 9.92822V8.78266ZM23.7832 6.87339C23.6877 6.77792 23.5921 6.68246 23.5921 6.49153C23.5921 6.20514 23.7832 6.01421 24.2703 5.91875V7.06431C24.0793 6.96885 23.8882 6.87339 23.7832 6.87339Z"
            fill="black" />
        <path id="Vector_5"
            d="M15.5245 47.9075C16.0018 47.9075 16.3932 48.2893 16.3932 48.7666C16.3932 49.244 16.0018 49.6258 15.5245 49.6258C15.0472 49.6258 14.6558 49.244 14.6558 48.7666C14.6558 48.2893 15.0472 47.9075 15.5245 47.9075Z"
            fill="black" />
        <path id="Vector_6"
            d="M10.2901 5.00995C10.7674 5.00995 11.1588 5.3918 11.1588 5.86912C11.1588 6.34644 10.7674 6.72829 10.2901 6.72829C9.81279 6.72829 9.42139 6.34644 9.42139 5.86912C9.42139 5.3918 9.81279 5.00995 10.2901 5.00995Z"
            fill="black" />
        <path id="Vector_7"
            d="M47.9761 25.9355C48.4535 25.9355 48.8449 26.3174 48.8449 26.7947C48.8449 27.272 48.4535 27.6539 47.9761 27.6539C47.4988 27.6539 47.1074 27.272 47.1074 26.7947C47.1074 26.3174 47.4988 25.9355 47.9761 25.9355Z"
            fill="black" />
        <path id="Vector_8"
            d="M10.4202 25.7751C10.8975 25.7751 11.289 26.157 11.289 26.6343C11.289 27.1116 10.8975 27.4935 10.4202 27.4935C9.94291 27.4935 9.55151 27.1116 9.55151 26.6343C9.55151 26.157 9.94291 25.7751 10.4202 25.7751Z"
            fill="black" />
        <path id="Vector_9"
            d="M25.9927 39.5372C26.4701 39.5372 26.8615 39.919 26.8615 40.3963C26.8615 40.8737 26.4701 41.2555 25.9927 41.2555C25.5154 41.2555 25.124 40.8737 25.124 40.3963C25.124 39.919 25.5154 39.5372 25.9927 39.5372Z"
            fill="black" />
        <path id="Vector_10"
            d="M9.09644 40.1902C9.09644 38.8499 10.2224 37.7308 11.5956 37.7308C12.9688 37.7308 14.0947 38.8499 14.0947 40.1902C14.0947 41.5305 12.9688 42.6496 11.5956 42.6496C10.2224 42.6496 9.09644 41.5305 9.09644 40.1902Z"
            stroke="#11B2BA" />
        <path id="Vector_11"
            d="M25.624 47.3843C25.624 46.2265 26.5832 45.2686 27.7411 45.2686C28.899 45.2686 29.8582 46.2265 29.8582 47.3843C29.8582 48.5421 28.899 49.5 27.7411 49.5C26.5832 49.5 25.624 48.5421 25.624 47.3843Z"
            stroke="black" />
        <path id="Vector_12"
            d="M17.6953 7.65162L17.6955 7.64436V7.63708C17.6955 3.72522 20.9197 0.5 24.8351 0.5C28.7504 0.5 31.9746 3.72522 31.9746 7.63708C31.9746 11.549 28.7504 14.7742 24.8351 14.7742C20.7896 14.7742 17.5821 11.5441 17.6953 7.65162Z"
            stroke="#11B2BA" />
        <path id="Vector_13"
            d="M39.2329 18.0541C39.2329 16.3308 40.6465 14.9265 42.4006 14.9265C44.1548 14.9265 45.5684 16.3308 45.5684 18.0541C45.5684 19.7773 44.1548 21.1817 42.4006 21.1817C40.6465 21.1817 39.2329 19.7773 39.2329 18.0541Z"
            stroke="black" />
        <g id="Group 1275">
            <path id="Vector_14"
                d="M9.0514 18.1534C9.0514 20.4807 7.10746 22.4265 4.7757 22.4265C2.34393 22.4265 0.5 20.4881 0.5 18.1534C0.5 15.826 2.44394 13.8802 4.7757 13.8802C7.10746 13.8802 9.0514 15.826 9.0514 18.1534Z"
                stroke="#11B2BA" />
            <path id="Vector_15"
                d="M4.82138 18.3964H5.93175C5.95542 18.3964 5.9666 18.3964 5.96831 18.3599C5.97738 18.2272 5.97738 18.0937 5.96831 17.9608C5.96831 17.9349 5.95739 17.9243 5.93359 17.9243H3.72377C3.69642 17.9243 3.68905 17.9349 3.68905 17.9651V18.3471C3.68905 18.3964 3.68905 18.3964 3.73284 18.3964H4.82138ZM5.84431 17.4778C5.84746 17.4681 5.84746 17.4575 5.84431 17.4479C5.82576 17.4004 5.8038 17.3552 5.77829 17.3127C5.7399 17.24 5.69466 17.1731 5.64311 17.113C5.61879 17.0767 5.59065 17.0441 5.55909 17.0164C5.40103 16.8583 5.21311 16.7465 5.01113 16.6902C4.90922 16.6633 4.80508 16.6505 4.70067 16.6516H3.71995C3.6926 16.6516 3.68892 16.6644 3.68892 16.6924V17.4542C3.68892 17.4863 3.68892 17.495 3.72364 17.495H5.83116C5.83116 17.495 5.84943 17.4907 5.85312 17.4778H5.84417H5.84431ZM5.84431 18.8428C5.81327 18.8388 5.78198 18.8388 5.75094 18.8428H3.72561C3.69826 18.8428 3.68905 18.8428 3.68905 18.8858V19.6306C3.68905 19.6649 3.68905 19.6736 3.72561 19.6736H4.66069C4.7054 19.6776 4.75011 19.6739 4.7939 19.6629C4.9296 19.6515 5.06307 19.6169 5.19037 19.5598C5.23665 19.541 5.28136 19.5164 5.32357 19.4869H5.33633C5.55554 19.3529 5.73358 19.1424 5.84588 18.8841C5.84588 18.8841 5.85864 18.8516 5.84431 18.8431V18.8428ZM3.32204 20.0597V20.0469V19.5469V19.3773V18.8729C3.32204 18.845 3.32204 18.8408 3.29285 18.8408H2.89651C2.87455 18.8408 2.86548 18.8408 2.86548 18.8065V18.3987H3.28917C3.31284 18.3987 3.32204 18.3987 3.32204 18.3622V17.9587C3.32204 17.9329 3.32204 17.9266 3.29285 17.9266H2.89651C2.87455 17.9266 2.86548 17.9266 2.86548 17.8923V17.5146C2.86548 17.491 2.86548 17.4846 2.89467 17.4846H3.28732C3.31468 17.4846 3.32204 17.4846 3.32204 17.4439V16.287C3.32204 16.2527 3.32204 16.2441 3.3586 16.2441H4.72828C4.82769 16.2487 4.92645 16.2615 5.02415 16.2827C5.22548 16.3264 5.41891 16.411 5.59577 16.5317C5.71307 16.6128 5.82103 16.7108 5.91715 16.8236C5.98948 16.9118 6.0547 17.0073 6.11256 17.109C6.17003 17.2121 6.21776 17.3222 6.25524 17.4374C6.25984 17.4673 6.2843 17.4876 6.30981 17.4825H6.63671C6.67866 17.4825 6.67866 17.4825 6.6805 17.5298V17.8818C6.6805 17.9161 6.66959 17.9248 6.64026 17.9248H6.38818C6.36267 17.9248 6.35531 17.9248 6.35715 17.9634C6.36714 18.0941 6.36714 18.2253 6.35715 18.356C6.35715 18.3925 6.35715 18.3968 6.39199 18.3968H6.68037C6.69313 18.4162 6.68037 18.4355 6.68037 18.4549C6.68221 18.4798 6.68221 18.505 6.68037 18.5299V18.7897C6.68037 18.8261 6.6713 18.8369 6.64381 18.8369H6.29863C6.27457 18.8315 6.25116 18.8496 6.24564 18.8777C6.16345 19.1288 6.03195 19.354 5.86206 19.5345C5.79999 19.6002 5.73477 19.662 5.66665 19.719C5.59354 19.7684 5.5224 19.8199 5.44744 19.8607C5.3095 19.9336 5.16485 19.9874 5.01639 20.0216C4.87543 20.0512 4.73249 20.0647 4.58902 20.0624H3.32151V20.0602L3.32204 20.0597Z"
                fill="black" />
        </g>
        <g id="Group 1276">
            <path id="Vector_16"
                d="M38.5223 37.9334L38.5225 37.9261V37.9187C38.5225 34.9546 40.9962 32.5 44.0112 32.5C47.0262 32.5 49.4999 34.9546 49.4999 37.9187C49.4999 40.8829 47.0262 43.3375 44.0112 43.3375C40.8921 43.3375 38.4356 40.878 38.5223 37.9334Z"
                stroke="#11B2BA" />
            <path id="Shape"
                d="M46.0774 36.5372C46.0082 35.8071 45.3853 35.5621 44.5974 35.4875V34.482H43.9884V35.4688C43.828 35.4688 43.6642 35.4688 43.5015 35.4688V34.482H42.8971V35.4945H41.6616V36.1535C41.6616 36.1535 42.1115 36.1453 42.1046 36.1535C42.1857 36.1445 42.2671 36.1676 42.3317 36.2181C42.3962 36.2686 42.4389 36.3424 42.4507 36.4241V39.1955C42.4489 39.2243 42.4415 39.2525 42.4288 39.2783C42.4161 39.3042 42.3985 39.3272 42.3768 39.346C42.3556 39.3652 42.3308 39.3798 42.3038 39.389C42.2768 39.3982 42.2483 39.4019 42.2199 39.3996C42.228 39.4066 41.777 39.3996 41.777 39.3996L41.6616 40.1357H42.8855V41.1644H43.4946V40.1508H43.9814V41.1598H44.5917V40.1427C45.6206 40.0797 46.3382 39.8231 46.4281 38.8491C46.5008 38.0653 46.1363 37.7153 45.5537 37.5742C45.9079 37.3981 46.1271 37.0715 46.0774 36.5372ZM45.2238 38.7278C45.2238 39.493 43.9272 39.4055 43.5142 39.4055V38.0478C43.9272 38.0489 45.2238 37.9288 45.2238 38.7278ZM44.9412 36.8148C44.9412 37.5147 43.8592 37.4296 43.5154 37.4296V36.1955C43.8592 36.1955 44.9412 36.0858 44.9412 36.8148Z"
                fill="black" />
        </g>
        <g id="Group 230">
            <ellipse id="Ellipse 70" cx="25.311" cy="28.1618" rx="7.16355" ry="7.15977" fill="#11B2BA" />
            <g id="Group 40">
                <g id="Group 13">
                    <path id="Vector_17"
                        d="M25.5009 30.2313L25.4729 30.2654V32.0062L25.5009 32.0877L27.7719 28.8911L25.5009 30.2313Z"
                        fill="white" />
                    <path id="Vector_18" d="M25.5011 32.0877V30.2313L23.2314 28.8911L25.5011 32.0877Z" fill="white" />
                    <g id="Group 10">
                        <path id="Vector_19" d="M25.5007 29.8024L27.7703 28.4615L25.5007 27.4304V29.8024Z" fill="white"
                            fill-opacity="0.4" />
                        <path id="Vector_20" d="M23.2314 28.4614L25.5011 29.8022V27.4303L23.2314 28.4614Z" fill="white"
                            fill-opacity="0.4" />
                    </g>
                    <path id="Subtract"
                        d="M25.5011 24.6974L25.5014 24.697V24.6977L27.7706 28.4611L25.5014 29.8018L25.5011 29.802V29.8019L27.7704 28.4612L25.5011 27.4303V27.43L25.5008 27.4302L25.5007 27.4301V27.4302L23.2317 28.461L23.2317 28.461L25.5009 24.6978L25.501 24.6972L25.5011 24.6974ZM25.501 29.802L25.5011 29.802L25.501 29.802L25.501 29.802L25.501 29.802Z"
                        fill="white" />
                </g>
            </g>
        </g>
        <line id="Line 1" y1="-0.5" x2="8.43874" y2="-0.5"
            transform="matrix(0.868356 0.495941 -0.496337 0.86813 9.42139 21.7504)" stroke="black" />
        <line id="Line 2" x1="25.3337" y1="16.2288" x2="25.3337" y2="20.0474" stroke="black" />
        <line id="Line 3" y1="-0.5" x2="4.68109" y2="-0.5"
            transform="matrix(-0.894522 -0.447025 0.447403 -0.894333 37.2046 34.0925)" stroke="black" />
    </g>
</svg>