<svg width="434" height="400" viewBox="0 0 434 400" fill="none" xmlns="http://www.w3.org/2000/svg">
    <g clip-path="url(#clip0_3000_3470)">
        <path
            d="M376.924 43.3228L378.044 45.4566L376.371 46.0947C376.428 45.1589 376.605 44.2089 376.924 43.3298V43.3228Z"
            fill="#E1FBA3" />
        <path
            d="M384.694 38.0341C383.134 37.8711 381.05 38.6438 379.66 39.6079L381.936 43.975L378.03 45.4495L376.91 43.3156C376.591 44.1947 376.413 45.1447 376.357 46.0805L371.763 47.8244C371.713 44.4145 372.408 40.8982 374.124 37.9845L370.395 30.881L373.117 27.0599L377.037 34.5674C378.129 33.6458 379.37 32.9085 380.71 32.3769C380.887 32.306 384.119 31.356 384.141 31.5261C384.318 33.6813 384.453 35.8648 384.694 38.0199V38.0341Z"
            afill="#A3C151" />
        <path
            d="M388.798 57.076L393.789 66.6111C394.413 64.6899 394.541 62.5985 394.207 60.6773C393.952 59.2666 393.187 57.8841 391.84 57.2674C390.833 56.8066 389.798 56.7995 388.805 57.0831L388.798 57.076ZM376.399 47.8811C376.668 50.4049 378.108 53.106 381.099 52.2694C381.248 52.2269 381.39 52.1773 381.539 52.1205L378.037 45.4566L381.943 43.982L385.147 50.1001C385.58 49.8449 386.019 49.618 386.487 49.4337C388.791 48.5334 391.315 48.5404 393.584 49.7456C398.617 52.4254 399.659 58.9263 399.305 64.222C399.106 67.1924 398.454 70.2124 397.029 72.8355L400.907 80.258L398.411 84.2422L394.285 76.3801C391.662 78.7976 388.132 80.1304 384.538 80.18C384.552 79.5987 384.807 72.9206 384.772 72.9206C386.026 73.0056 387.77 72.7008 388.961 72.2329C389.833 71.8784 390.627 71.3609 391.308 70.7158L385.282 59.2524C384.97 59.5005 384.651 59.7415 384.311 59.9542C381.567 61.6698 378.292 61.3579 375.903 59.2028C373.606 57.1185 372.45 53.9354 372.018 50.9225C371.876 49.9229 371.791 48.8949 371.784 47.8528L376.378 46.1088C376.335 46.7114 376.357 47.3069 376.413 47.8953L376.399 47.8811Z"
            fill="#718E2A" />
        <path
            d="M376.399 47.8812C376.343 47.2928 376.329 46.6973 376.364 46.0947L378.037 45.4566L381.539 52.1206C381.39 52.1773 381.249 52.2269 381.1 52.2695C378.101 53.1131 376.669 50.405 376.399 47.8812Z"
            fill="#D0F78E" />
        <path
            d="M388.798 57.076C389.798 56.7995 390.833 56.8066 391.833 57.2603C393.18 57.8842 393.945 59.2595 394.2 60.6703C394.534 62.5986 394.406 64.6899 393.782 66.604L388.791 57.0689L388.798 57.076Z"
            fill="#D1F88F" />
        <path
            d="M385.275 59.2382L391.301 70.7016C390.62 71.3468 389.834 71.8714 388.954 72.2188C387.763 72.6866 386.019 72.9844 384.765 72.9064C384.8 72.9064 384.545 79.5845 384.531 80.1659C388.125 80.1162 391.663 78.7834 394.278 76.366L398.404 84.228L400.9 80.2438L397.022 72.8213C398.454 70.1983 399.106 67.1783 399.298 64.2078C399.652 58.905 398.603 52.4112 393.577 49.7315C391.308 48.5334 388.784 48.5263 386.48 49.4196C386.012 49.6039 385.573 49.8378 385.14 50.086L381.936 43.9679L407.252 34.3619C408.096 35.5883 408.882 36.8502 409.641 38.1688C422.451 60.3583 419.431 86.0783 402.899 95.6347C402.835 95.6772 402.771 95.7056 402.701 95.7481C402.693 95.7481 402.694 95.7552 402.686 95.7552C387.154 98.8816 368.424 88.6518 357.563 69.8509C354.862 65.1649 352.863 60.3158 351.544 55.4951L371.763 47.8245C371.77 48.8666 371.862 49.9016 371.997 50.8941C372.429 53.9071 373.592 57.0902 375.882 59.1744C378.271 61.3296 381.546 61.6415 384.29 59.9259C384.63 59.7132 384.949 59.4651 385.261 59.2241L385.275 59.2382Z"
            fill="#D1F88F" />
        <path
            d="M417.446 35.2976C430.257 57.4872 427.237 83.2071 410.705 92.7493C408.181 94.2026 405.501 95.2022 402.708 95.7552C402.772 95.7127 402.835 95.6843 402.906 95.6418C419.446 86.0854 422.466 60.3654 409.648 38.1759C408.89 36.8644 408.096 35.5954 407.259 34.3689L415.015 31.4269C415.873 32.6675 416.681 33.9578 417.446 35.2905V35.2976Z"
            fill="#C0F663" />
        <path
            d="M423.933 32.5328C439.53 59.536 435.581 91.0196 415.114 102.83C404.586 108.906 391.755 108.601 379.639 103.199C376.513 101.802 373.443 100.073 370.459 98.0167C367.828 96.2018 365.276 94.146 362.83 91.8419C357.932 87.2339 353.494 81.683 349.822 75.3168C346.709 69.936 344.384 64.378 342.796 58.8271L351.544 55.5093C352.856 60.33 354.862 65.1791 357.563 69.8651C368.424 88.6659 387.154 98.8958 402.687 95.7694C402.694 95.7694 402.694 95.7623 402.701 95.7623C405.494 95.2093 408.174 94.2097 410.697 92.7564C427.237 83.2072 430.257 57.4872 417.439 35.3047C416.674 33.972 415.866 32.6817 415.008 31.4411L421.693 28.9031C422.459 30.087 423.203 31.2922 423.919 32.5399L423.933 32.5328Z"
            fill="#C0F663" />
        <path
            d="M379.639 103.199C376.57 105.191 372.224 108.005 370.104 109.395C366.524 107.85 363.015 105.857 359.64 103.447C362.597 101.944 367.566 99.4629 370.459 98.0096C373.436 100.065 376.513 101.795 379.639 103.192V103.199Z"
            fill="#C2F863" />
        <path
            d="M405.097 108.814C394.711 114.804 382.078 114.599 370.104 109.395C372.224 108.006 376.57 105.191 379.639 103.199C391.748 108.608 404.587 108.906 415.114 102.83L406.203 108.147L405.09 108.814H405.097Z"
            fill="#4D7B2E" />
        <path
            d="M370.465 98.0096C367.573 99.4629 362.603 101.944 359.647 103.447C357.06 101.604 354.55 99.5196 352.161 97.2085C354.791 95.8686 359.676 93.4228 362.844 91.8348C365.283 94.1388 367.842 96.1947 370.473 98.0096H370.465Z"
            fill="#4D7B2E" />
        <path
            d="M342.803 58.8199C344.384 64.3638 346.717 69.9289 349.829 75.3097C353.501 81.6758 357.939 87.2339 362.838 91.8348C359.669 93.4157 354.784 95.8686 352.154 97.2085C347.518 92.7281 343.314 87.3827 339.797 81.3001C324.201 54.2899 328.15 22.8134 348.616 11.0026L358.641 5.01923C342.25 14.4764 336.451 36.5383 342.796 58.827L342.803 58.8199Z"
            fill="#C2F863" />
        <path
            d="M370.395 30.8952L374.124 37.9987C372.408 40.9124 371.713 44.4287 371.763 47.8386L351.544 55.5092C346.638 37.5308 351.275 19.9422 364.305 12.4134C364.376 12.3708 364.461 12.3212 364.532 12.2858C364.539 12.2858 364.546 12.2858 364.553 12.2787C379.001 9.39333 396.207 18.0352 407.245 34.3831L381.929 43.9891L379.653 39.6221C381.043 38.658 383.127 37.8852 384.687 38.0483C384.439 35.8931 384.311 33.7096 384.134 31.5545C384.119 31.3843 380.887 32.3272 380.702 32.4052C379.363 32.9369 378.122 33.6742 377.03 34.5958L373.11 27.0882L370.388 30.9094L370.395 30.8952Z"
            fill="#E1FBA3" />
        <path
            d="M415.015 31.434L407.259 34.376C396.221 18.0281 379.015 9.38625 364.567 12.2716C380.1 3.52339 401.878 12.0518 415.015 31.434Z"
            fill="#D6FA7F" />
        <path
            d="M421.707 28.896L415.022 31.434C401.885 12.0447 380.107 3.52338 364.574 12.2716C364.567 12.2787 364.56 12.2787 364.553 12.2787C364.482 12.3212 364.397 12.3708 364.326 12.4063C351.296 19.9351 346.652 37.5237 351.565 55.5021L342.817 58.8199C336.472 36.5383 342.271 14.4693 358.662 5.01213C378.186 -6.25986 405.692 4.43081 421.721 28.8889L421.707 28.896Z"
            fill="#D6FA7F" />
        <path
            d="M364.546 12.2787C364.475 12.3213 364.39 12.3709 364.319 12.4063C351.289 19.9352 346.646 37.5237 351.558 55.5022C352.87 60.3229 354.876 65.172 357.577 69.858C368.438 88.6589 387.168 98.8887 402.701 95.7623"
            stroke="#010202" />
        <path
            d="M402.708 95.7552C405.501 95.2023 408.181 94.2027 410.704 92.7494C427.244 83.2001 430.264 57.4801 417.446 35.2977C416.681 33.9649 415.872 32.6746 415.015 31.434C401.878 12.0447 380.1 3.5234 364.567 12.2716"
            stroke="#010202" />
        <path
            d="M387.26 63.0168L385.275 59.2382C384.963 59.4864 384.644 59.7274 384.304 59.9401C381.56 61.6557 378.285 61.3438 375.896 59.1886C373.599 57.1043 372.444 53.9213 372.011 50.9083C371.869 49.9087 371.784 48.8808 371.777 47.8386C371.728 44.4287 372.422 40.9124 374.138 37.9987L370.409 30.8952L373.131 27.0741L377.052 34.5816C378.143 33.66 379.384 32.9227 380.724 32.391C380.901 32.3201 384.134 31.3702 384.155 31.5403C384.332 33.6955 384.467 35.879 384.708 38.0341C383.148 37.8711 381.064 38.6438 379.675 39.608L381.95 43.975L385.155 50.093C385.587 49.8378 386.027 49.611 386.495 49.4266C388.799 48.5263 391.322 48.5334 393.591 49.7386C398.624 52.4183 399.666 58.9192 399.312 64.2149C399.114 67.1853 398.461 70.2054 397.036 72.8284L400.914 80.2509L398.419 84.2351L394.293 76.3731C391.67 78.7905 388.139 80.1233 384.545 80.1729C384.559 79.5916 384.814 72.9135 384.779 72.9135C386.034 72.9986 387.778 72.6937 388.969 72.2258C389.841 71.8714 390.635 71.3538 391.315 70.7087L387.274 63.0239L387.26 63.0168Z"
            stroke="#010202" />
        <path
            d="M364.546 12.2787C364.546 12.2787 364.56 12.2787 364.567 12.2716C379.015 9.38625 396.221 18.0281 407.259 34.376C408.103 35.6025 408.89 36.8644 409.648 38.183C422.458 60.3725 419.438 86.0925 402.906 95.6489C402.842 95.6914 402.779 95.7198 402.708 95.7623C402.701 95.7623 402.701 95.7694 402.693 95.7694"
            stroke="#010202" />
        <path
            d="M415.114 102.83C435.581 91.0125 439.529 59.536 423.933 32.5328C423.217 31.2922 422.473 30.0799 421.707 28.896C405.678 4.43792 378.172 -6.25275 358.648 5.01924C342.257 14.4764 336.458 36.5383 342.803 58.8271C344.384 64.3709 346.716 69.936 349.829 75.3168C353.501 81.683 357.939 87.241 362.837 91.8419C365.276 94.146 367.835 96.2019 370.465 98.0167C373.443 100.073 376.52 101.802 379.646 103.199C391.755 108.608 404.593 108.906 415.121 102.83H415.114Z"
            stroke="#010202" />
        <path
            d="M376.569 44.5846C376.662 44.1522 376.775 43.7339 376.924 43.3228L378.044 45.4566L381.546 52.1206C381.397 52.1773 381.255 52.2269 381.107 52.2695C378.108 53.1131 376.676 50.405 376.406 47.8812C376.35 47.2928 376.335 46.6973 376.371 46.0947C376.399 45.5913 376.47 45.088 376.569 44.5917V44.5846Z"
            stroke="#010202" />
        <path
            d="M348.616 11.0026C328.15 22.8205 324.201 54.2899 339.797 81.3001C343.307 87.3827 347.518 92.721 352.154 97.2085C354.543 99.5196 357.053 101.604 359.64 103.447C363.015 105.857 366.524 107.85 370.104 109.395C382.078 114.599 394.711 114.811 405.097 108.814"
            stroke="#010202" />
        <path d="M358.648 5.01923L348.616 11.0026" stroke="#010202" />
        <path d="M415.114 102.83L406.203 108.147L405.097 108.814" stroke="#010202" stroke-width="1.0634"
            stroke-miterlimit="10" />
        <path
            d="M394.122 65.3209C394.441 63.7825 394.463 62.1803 394.2 60.6774C393.945 59.2666 393.18 57.8842 391.833 57.2674C390.826 56.8066 389.791 56.7995 388.798 57.0831L393.789 66.6182C393.924 66.1928 394.037 65.7604 394.13 65.3279L394.122 65.3209Z"
            stroke="#010202" />
        <path d="M352.154 97.2085C354.784 95.8687 359.669 93.4228 362.838 91.8348" stroke="#010202" />
        <path d="M359.64 103.447C362.597 101.944 367.566 99.4629 370.459 98.0096" stroke="#010202" stroke-width="1.0634"
            stroke-miterlimit="10" />
        <path d="M370.104 109.395C372.224 108.006 376.57 105.191 379.639 103.199" stroke="#010202" stroke-width="1.0634"
            stroke-miterlimit="10" />
        <path d="M323.91 267.352L318.395 291.285L307.108 285.89L323.91 267.352Z" fill="#AA9FEE" />
        <path d="M323.91 267.352L332.602 298.063L318.395 291.285L323.91 267.352Z" fill="#D1CAFF" />
        <path d="M332.602 298.063L336.21 310.845L317.608 295.397L317.438 295.447L318.395 291.285L332.602 298.063Z"
            fill="#B9B0FF" />
        <path d="M336.21 310.845L311.568 320.89L317.438 295.447L317.608 295.397L336.21 310.845Z" fill="#6A62AA" />
        <path d="M307.108 285.89L318.395 291.285L317.438 295.447L293.348 301.076L307.108 285.89Z" fill="#7F72E0" />
        <path d="M292.809 306.152L310.32 325.449L305.329 344.795L292.809 306.152Z" fill="#7F72E0" />
        <path d="M317.438 295.447L311.568 320.89L293.348 301.076L317.438 295.447Z" fill="#7F72E0" />
        <path d="M334.253 315.715L305.329 344.795L310.32 325.449L334.253 315.715Z" fill="#6A62AA" />
        <path
            d="M292.852 360.051C293.866 360.541 294.88 360.994 295.929 361.398C291.675 360.817 287.528 359.584 283.551 357.648C258.887 345.646 250.898 311.277 265.686 280.899C267.692 276.773 270.017 272.931 272.605 269.408L280.829 273.328C278.673 276.426 276.71 279.758 274.994 283.303C260.206 313.687 268.203 348.049 292.859 360.051H292.852Z"
            fill="#B9B0FF" />
        <path
            d="M332.602 298.063L359.952 311.128C358.754 315.566 357.102 319.997 354.983 324.35C342.569 349.829 318.09 364.426 295.957 361.391H295.936C294.886 360.994 293.873 360.534 292.859 360.044C268.195 348.042 260.206 313.673 274.994 283.296C276.717 279.751 278.673 276.419 280.828 273.321L307.108 285.883L293.348 301.068L311.568 320.883L336.217 310.838L332.602 298.056V298.063ZM305.329 344.795L334.253 315.715L310.32 325.449L292.809 306.144L305.329 344.795Z"
            fill="#A39CF7" />
        <path
            d="M337.855 365.787C320.21 378.143 299.282 382.319 280.864 375.613L275.838 373.493C244.326 358.144 234.096 314.233 253.003 275.391C255.08 271.137 257.413 267.125 259.972 263.36L272.612 269.401C270.024 272.924 267.699 276.766 265.693 280.892C250.905 311.277 258.901 345.639 283.558 357.641C287.535 359.576 291.689 360.81 295.936 361.391H295.957C318.083 364.426 342.562 349.829 354.983 324.35C357.102 319.997 358.754 315.559 359.952 311.128L372.571 317.161C371.16 321.791 369.346 326.399 367.134 330.936C364.567 336.217 361.59 341.13 358.286 345.646C355.507 349.453 352.48 352.976 349.283 356.181C345.681 359.782 341.846 363.001 337.862 365.794L337.855 365.787Z"
            fill="#B9B0FF" />
        <path
            d="M374.273 353.636L374.613 353.898C371.777 357.669 368.693 361.157 365.432 364.341L365.39 364.298L349.403 356.308L349.276 356.181C352.48 352.976 355.5 349.453 358.279 345.646L374.265 353.636H374.273Z"
            fill="#212121" />
        <path
            d="M280.864 375.613C299.289 382.319 320.209 378.143 337.855 365.787L353.643 373.677L353.756 373.847C334.714 386.651 312.099 390.039 292.93 380.71L280.857 375.613H280.864Z"
            fill="#212121" />
        <path
            d="M365.39 364.291L365.432 364.333C361.753 367.899 357.839 371.082 353.756 373.84L353.643 373.67L337.855 365.78C341.846 362.986 345.674 359.768 349.276 356.167L349.403 356.294L365.39 364.284V364.291Z"
            fill="#B9B0FF" />
        <path
            d="M356.301 237.903L361.398 240.058C392.925 255.392 403.14 299.317 384.233 338.16C381.461 343.838 378.221 349.106 374.613 353.891L374.273 353.629L358.286 345.639C361.59 341.123 364.567 336.21 367.134 330.929C369.346 326.391 371.16 321.783 372.571 317.154C383.354 282.211 372.139 246.375 344.299 232.834L356.294 237.896H356.308L356.301 237.903Z"
            fill="#B9B0FF" />
        <path
            d="M344.299 232.841C372.139 246.389 383.361 282.218 372.571 317.161L359.952 311.128C367.134 284.586 358.229 257.888 337.117 247.601C336.104 247.112 335.069 246.658 334.027 246.254H334.012C313.262 238.193 288.237 248.033 272.605 269.401L259.965 263.36C280.75 232.784 316.239 219.173 344.299 232.841Z"
            fill="#D1CAFF" />
        <path
            d="M334.012 246.261C314.963 243.652 294.156 254.102 280.828 273.328L272.605 269.408C288.237 248.041 313.262 238.201 334.012 246.261Z"
            fill="#D1CAFF" />
        <path
            d="M337.111 247.608C358.223 257.895 367.127 284.593 359.945 311.135L332.595 298.07L323.91 267.359L307.109 285.897L280.829 273.335C294.157 254.116 314.964 243.659 334.013 246.268H334.027C335.062 246.665 336.104 247.126 337.118 247.615L337.111 247.608Z"
            fill="#C2BCFB" />
        <path
            d="M358.286 345.639C361.59 341.123 364.567 336.21 367.133 330.929C369.345 326.391 371.16 321.783 372.571 317.154C383.354 282.211 372.139 246.375 344.299 232.834C316.239 219.166 280.75 232.777 259.964 263.353C257.412 267.118 255.073 271.13 252.996 275.384C234.096 314.226 244.318 358.144 275.83 373.486C277.482 374.294 279.162 375.003 280.857 375.605C299.282 382.312 320.202 378.136 337.848 365.78C341.839 362.986 345.667 359.768 349.268 356.167C352.473 352.962 355.493 349.439 358.272 345.632L358.286 345.639Z"
            stroke="#010202" />
        <path
            d="M334.012 246.261C313.262 238.201 288.237 248.041 272.605 269.408C270.017 272.931 267.692 276.773 265.686 280.899C250.897 311.284 258.894 345.646 283.551 357.648C287.528 359.584 291.682 360.817 295.929 361.398"
            stroke="#010202" />
        <path
            d="M295.957 361.398C318.083 364.433 342.562 349.836 354.983 324.357C357.102 320.004 358.754 315.566 359.952 311.135C367.134 284.593 358.229 257.895 337.118 247.608C336.104 247.119 335.069 246.665 334.027 246.261"
            stroke="#010202" />
        <path
            d="M295.957 361.398H295.936C294.886 361.001 293.873 360.541 292.859 360.051C268.195 348.049 260.206 313.68 274.994 283.303C276.717 279.758 278.673 276.426 280.828 273.328C294.156 254.109 314.963 243.652 334.012 246.261H334.027"
            stroke="#010202" />
        <path
            d="M292.937 380.71C312.099 390.032 334.721 386.651 353.763 373.847C357.846 371.09 361.753 367.906 365.439 364.34C368.7 361.157 371.777 357.669 374.62 353.898C378.235 349.113 381.475 343.845 384.24 338.167C403.14 299.325 392.924 255.399 361.405 240.065C359.732 239.243 358.031 238.527 356.308 237.91"
            stroke="#010202" />
        <path d="M361.398 240.058L356.301 237.903H356.287L344.299 232.841" stroke="#010202" stroke-width="1.0634"
            stroke-miterlimit="10" />
        <path d="M275.831 373.493L280.864 375.613L292.937 380.71" stroke="#010202" stroke-width="1.0634"
            stroke-miterlimit="10" />
        <path
            d="M323.91 267.352L307.108 285.89L293.348 301.076L311.568 320.89L336.21 310.845L332.602 298.063L323.91 267.352Z"
            stroke="#010202" />
        <path d="M336.21 310.845L317.608 295.397L317.438 295.447L293.348 301.076" stroke="#010202" stroke-width="1.0634"
            stroke-miterlimit="10" />
        <path d="M311.568 320.89L317.438 295.447L318.395 291.285L323.91 267.352" stroke="#010202" stroke-width="1.0634"
            stroke-miterlimit="10" />
        <path d="M310.32 325.449L292.809 306.152L305.329 344.795L334.253 315.715L310.32 325.449Z" stroke="#010202" />
        <path d="M310.32 325.449L305.329 344.795" stroke="#010202" />
        <path d="M358.286 345.639L374.273 353.636" stroke="#010202" />
        <path d="M349.403 356.301L365.39 364.291" stroke="#010202" />
        <path d="M337.663 365.687L337.855 365.787L353.643 373.677" stroke="#010202" stroke-width="1.0634"
            stroke-miterlimit="10" />
        <path
            d="M165.975 349.623C169.796 361.051 167.946 373.231 160.927 383.014C147.025 402.389 124.892 398.348 124.892 398.348C124.892 398.348 107.921 396.817 99.2716 382.021L87.7515 358.79C94.2807 369.764 107.325 376.747 120.036 376.945C132.613 377.144 145.175 370.657 152.051 360.122C158.283 350.566 159.545 337.94 155.348 327.384C159.02 334.658 163.394 341.882 165.975 349.623Z"
            fill="#005568" />
        <path
            d="M136.115 340.719C136.115 342.548 135.774 344.306 135.165 345.93C135.037 346.284 134.895 346.631 134.725 346.972C134.541 347.355 134.342 347.752 134.129 348.12L133.974 348.035C123.403 345.107 117.647 355.677 117.647 355.677V355.713C116.123 355.465 114.662 354.997 113.329 354.338C112.932 354.153 112.55 353.955 112.174 353.728C107.63 351.062 104.588 346.22 104.588 340.712C104.588 335.778 107.219 331.07 111.266 328.27C116.576 324.598 124.006 324.57 129.344 328.199C133.456 330.992 136.122 335.721 136.122 340.712L136.115 340.719Z"
            fill="#005568" />
        <path
            d="M87.7088 358.719C86.6241 356.904 85.7096 354.99 84.9723 353.005C78.8046 336.473 86.7588 317.509 101.98 309.165C112.798 303.231 126.523 303.054 137.582 308.526C144.444 311.922 150.293 317.409 153.873 324.187C154.419 325.229 154.915 326.299 155.348 327.391C159.545 337.947 158.283 350.58 152.051 360.13C145.175 370.664 132.612 377.151 120.036 376.952C107.325 376.754 94.2806 369.764 87.7513 358.797L87.7159 358.726L87.7088 358.719ZM135.165 345.93C135.781 344.306 136.115 342.548 136.115 340.719C136.115 335.728 133.449 331 129.337 328.206C123.999 324.584 116.569 324.605 111.259 328.277C107.211 331.078 104.581 335.785 104.581 340.719C104.581 346.227 107.623 351.062 112.167 353.735C112.543 353.962 112.925 354.16 113.322 354.345C114.655 354.997 116.116 355.472 117.64 355.72C118.512 355.876 119.419 355.947 120.341 355.947C126.26 355.947 131.429 352.799 134.115 348.134C134.115 348.134 134.115 348.134 134.115 348.127C134.328 347.759 134.527 347.362 134.711 346.979C134.881 346.639 135.023 346.298 135.15 345.937L135.165 345.93Z"
            fill="#00FFFF" />
        <path
            d="M182.153 211.396C192.361 212.367 202.619 212.693 212.863 213.119C222.243 213.509 231.707 213.764 241.001 215.26C246.474 216.146 252.904 217.84 256.293 222.618C259.476 227.099 259.263 233.047 256.654 237.619L256.129 237.577C256.129 237.577 200.436 234.968 180.82 231.678C168.066 229.537 157.078 224.05 148.528 214.232C140.517 205.051 135.044 193.928 130.153 182.861C130.323 183.202 130.493 183.535 130.677 183.861L130.698 183.896C131.96 186.257 133.421 188.497 135.051 190.61C137.412 193.666 140.141 196.423 143.211 198.805C145.501 200.585 147.904 202.073 150.393 203.321C151.031 203.64 151.662 203.952 152.328 204.243C161.721 208.525 172.015 209.943 182.153 211.254L182.138 211.389L182.153 211.396Z"
            fill="#005568" />
        <path
            d="M124.176 284.338C120.851 277.894 117.477 271.485 114.067 265.097C114.159 265.275 114.265 265.438 114.372 265.594C116.222 268.557 118.93 271.031 122.262 272.633C122.475 272.74 122.687 272.832 122.9 272.931C124.524 273.647 126.296 274.172 128.196 274.448C128.373 274.477 128.543 274.498 128.713 274.519C139.808 275.923 150.96 276.88 162.111 277.745C185.116 279.524 208.128 282.105 231.175 283.125C242.1 283.608 252.861 283.962 263.19 279.716C268.096 277.695 272.612 275.001 276.66 271.733C281.481 267.876 285.621 263.219 288.939 258.015C295.078 248.402 298.389 236.953 297.928 225.241C297.751 220.747 296.9 216.394 295.489 212.289L295.596 212.254C301.083 221.604 306.811 232.721 308.243 243.588C311.426 267.834 297.29 290.42 275.37 300.324C260.979 306.811 246.764 305.329 231.608 304.159C200.62 301.785 169.682 299.169 138.745 296.276C138.745 296.276 130.153 295.915 124.176 284.331V284.338Z"
            fill="#005568" />
        <path
            d="M176.843 171.597V171.66C176.517 171.604 176.198 171.533 175.893 171.462C168.867 169.796 163.6 164.699 163.345 157.184C162.884 143.821 177.856 142.722 187.781 143.218C188.299 143.239 188.824 143.268 189.327 143.303C206.788 144.402 224.235 145.77 241.66 147.294C242.83 147.401 243.993 147.5 245.169 147.606C268.309 149.648 291.441 151.881 314.567 154.143C320.025 154.674 325.505 155.036 330.985 155.185C349.297 155.681 369.175 152.264 383.092 139.44C397.689 125.984 403.317 104.319 397.121 85.4403L397.192 85.419C397.192 85.419 408.514 103.114 409.79 117.548C411.158 133.073 405.161 148.535 394.541 159.8C383.219 171.809 366.255 177.92 349.907 177.332C329.631 176.595 309.356 174.581 289.173 172.688C258.965 169.86 228.736 167.428 198.5 164.961C198.5 164.961 181.04 163.274 176.843 171.611V171.597Z"
            fill="#005568" />
        <path
            d="M357.379 93.4441C360.42 97.329 360.47 103.22 358.655 107.644C358.315 108.481 357.882 109.31 357.372 110.118L357.003 109.891C347.39 109.126 337.777 108.36 328.178 107.58C311.759 106.247 295.021 105.694 278.73 103.256C270.84 102.065 266.083 98.7824 262.609 91.6363C262.588 91.6009 256.647 79.4002 253.492 72.9277C257.682 78.4432 264.92 80.8748 271.846 81.6688C281.367 82.7534 290.959 83.0157 300.523 83.4482V83.4695C315.481 84.5612 330.489 85.2631 345.348 87.4324C349.779 88.0846 354.536 89.8073 357.386 93.4441H357.379Z"
            fill="#005568" />
        <path
            d="M246.048 75.0828C247.636 79.301 245.892 86.0783 244.453 88.6234C243.028 91.1684 238.165 98.8958 226.383 98.8107C214.6 98.7327 210.389 90.1263 210.389 90.1263L198.961 65.5123H198.982C201.903 71.9777 208.624 76.5078 216.458 76.5078C226.992 76.5078 235.514 68.3196 235.514 58.2244C235.514 55.5376 234.911 52.9784 233.819 50.6743L246.041 75.0828H246.048Z"
            fill="#005568" />
        <path
            d="M233.486 49.9796L233.827 50.6743C234.926 52.9784 235.521 55.5376 235.521 58.2244C235.521 68.3196 227 76.5078 216.465 76.5078C208.631 76.5078 201.911 71.9777 198.99 65.5052C197.976 63.272 197.416 60.805 197.416 58.2244C197.416 48.1151 205.944 39.9341 216.465 39.9341C223.88 39.9341 230.303 43.9891 233.451 49.9229L233.486 49.9796Z"
            fill="#00FFFF" />
        <path
            d="M383.092 139.432C369.168 152.257 349.29 155.674 330.978 155.178C325.505 155.036 320.018 154.667 314.559 154.143C291.441 151.881 268.309 149.648 245.169 147.606C243.993 147.5 242.83 147.401 241.66 147.294C224.228 145.77 206.788 144.402 189.327 143.303C188.816 143.261 188.299 143.239 187.781 143.218C177.856 142.722 162.877 143.814 163.345 157.184C163.6 164.699 168.86 169.789 175.893 171.455C176.205 171.526 176.517 171.597 176.836 171.66C180.316 172.341 184.01 172.341 187.526 172.632C206.114 174.142 224.724 175.503 243.269 177.509C247.764 177.991 252.301 178.438 256.746 179.288C274.434 182.649 289.711 195.502 295.496 212.289C296.907 216.394 297.758 220.747 297.935 225.241C298.396 236.953 295.085 248.402 288.946 258.022C285.628 263.219 281.488 267.876 276.667 271.74C272.619 275.008 268.103 277.702 263.197 279.723C252.875 283.962 242.107 283.608 231.182 283.133C208.128 282.105 185.123 279.524 162.118 277.745C150.967 276.88 139.815 275.923 128.72 274.519C128.55 274.498 128.38 274.477 128.203 274.448C126.303 274.165 124.531 273.647 122.907 272.931C122.695 272.832 122.482 272.74 122.269 272.633C118.93 271.024 116.229 268.557 114.379 265.594C114.272 265.438 114.166 265.275 114.074 265.097H114.067C114.024 265.012 113.975 264.92 113.932 264.835C113.84 264.665 113.748 264.502 113.656 264.325C113.642 264.296 113.627 264.268 113.613 264.24C113.315 263.694 113.067 263.134 112.84 262.566C111.373 258.859 111.167 254.704 112.302 250.869L112.316 250.812C113.039 249.146 113.634 247.325 114.613 245.786C118.115 240.306 125.183 235.946 131.882 236.506C144.48 237.541 157.078 238.576 169.661 239.689C192.439 241.703 215.252 244.794 238.137 245.262C242.206 245.347 246.417 245.127 250.21 243.503C252.989 242.305 255.194 240.171 256.654 237.619C259.263 233.047 259.476 227.099 256.292 222.618C252.904 217.84 246.474 216.146 241.001 215.26C231.707 213.764 222.243 213.509 212.863 213.119C202.619 212.686 192.361 212.36 182.153 211.389L182.167 211.254H182.16C172.022 209.943 161.728 208.525 152.335 204.243C151.676 203.952 151.038 203.64 150.4 203.321C147.911 202.073 145.508 200.592 143.218 198.805C140.148 196.423 137.419 193.666 135.058 190.61C133.428 188.497 131.967 186.257 130.705 183.897L130.677 183.861C130.5 183.535 130.323 183.202 130.153 182.861C129.479 181.507 128.891 180.104 128.288 178.707C128.026 178.012 127.771 177.332 127.522 176.644L127.508 176.63C127.168 175.602 126.821 174.567 126.537 173.518V173.497C126.537 173.497 126.516 173.461 126.516 173.447C123.949 163.905 124.155 153.909 126.856 144.622C129.139 136.753 133.215 129.387 138.915 123.255C139.801 122.305 140.708 121.39 141.658 120.511C141.914 120.277 142.169 120.036 142.431 119.816C149.074 113.861 157.156 109.565 165.776 107.304C166.173 107.197 166.57 107.105 166.96 107.006C172.298 105.737 177.204 105.468 182.677 105.567C194.396 105.787 206.107 106.304 217.805 107.134C240.795 108.764 263.729 111.004 286.727 112.833C289.548 113.06 292.37 113.28 295.191 113.507C309.299 114.634 323.414 115.754 337.536 116.874C341.747 117.207 346.603 117.64 350.637 116.066C353.373 114.996 355.755 112.692 357.372 110.118C357.882 109.31 358.315 108.473 358.655 107.644C360.47 103.22 360.42 97.329 357.379 93.4441C354.529 89.8002 349.772 88.0846 345.341 87.4324C330.489 85.263 315.474 84.5612 300.523 83.4695V83.4482C290.952 83.0157 281.36 82.7463 271.839 81.6617C264.92 80.8748 257.675 78.4361 253.485 72.9277C253.393 72.7363 253.308 72.5519 253.223 72.3747C253.209 72.3392 253.194 72.318 253.173 72.2967C252.769 71.4673 252.429 70.7512 252.159 70.2054C252.131 70.1487 252.096 70.0919 252.074 70.0281C250.706 66.4197 250.749 62.315 251.691 58.5293C252.854 53.9071 255.428 49.5188 259.327 46.8036C259.497 46.676 259.66 46.5555 259.83 46.4491C265.7 42.6776 273.222 43.103 280.183 43.6701C291.136 44.5563 302.104 45.4353 313.064 46.3286C315.516 46.5129 330.78 47.7606 333.233 47.9591C346.433 49.0367 360.08 50.2277 371.876 56.0835C372.302 56.5017 372.848 56.7995 373.472 56.9271C373.62 56.998 373.776 57.076 373.925 57.1752C374.06 57.2461 374.188 57.317 374.315 57.3879C384.807 63.3287 392.917 73.2609 396.859 84.6392C396.951 84.9015 397.036 85.1638 397.114 85.4332C403.317 104.312 397.682 125.977 383.092 139.432Z"
            fill="#00FFFF" />
        <path
            d="M313.064 46.3286C315.517 46.52 330.787 47.7677 333.24 47.9662C346.44 49.0367 360.087 50.2277 371.884 56.0906C372.415 56.3529 372.954 56.6365 373.472 56.9271C373.628 56.998 373.776 57.0831 373.932 57.1752C374.067 57.2461 374.195 57.317 374.322 57.3879C384.807 63.3288 392.925 73.2609 396.866 84.6392C396.958 84.9015 397.043 85.1567 397.121 85.4332C403.318 104.312 397.689 125.977 383.092 139.432C369.175 152.257 349.297 155.674 330.985 155.178C325.505 155.029 320.018 154.667 314.567 154.136C291.441 151.874 268.316 149.641 245.169 147.599C244 147.493 242.83 147.394 241.66 147.287C224.228 145.763 206.788 144.395 189.327 143.296C188.824 143.261 188.299 143.232 187.781 143.211C177.856 142.715 162.884 143.814 163.345 157.177C163.6 164.692 168.867 169.782 175.893 171.455C176.205 171.526 176.517 171.597 176.836 171.653C180.316 172.334 184.01 172.334 187.526 172.625C206.114 174.142 224.724 175.496 243.262 177.502C247.757 177.991 252.294 178.431 256.739 179.281C274.434 182.649 289.704 195.502 295.489 212.289C296.907 216.394 297.751 220.747 297.928 225.241C298.389 236.953 295.085 248.402 288.939 258.015C285.621 263.219 281.481 267.876 276.66 271.733C272.612 275.001 268.096 277.695 263.19 279.716C252.868 283.955 242.1 283.6 231.175 283.125C208.121 282.098 185.116 279.524 162.111 277.745C150.96 276.88 139.815 275.923 128.713 274.519C128.543 274.498 128.373 274.477 128.196 274.448C126.296 274.165 124.524 273.647 122.9 272.931C122.687 272.839 122.475 272.74 122.262 272.633C118.93 271.024 116.222 268.557 114.372 265.594C114.265 265.438 114.159 265.275 114.067 265.097"
            stroke="#010202" />
        <path
            d="M252.074 70.0282C250.699 66.4197 250.749 62.315 251.691 58.5293C252.847 53.9 255.42 49.5117 259.327 46.8036C259.497 46.676 259.653 46.5555 259.83 46.4491C265.693 42.6776 273.222 43.103 280.183 43.663C291.136 44.5492 302.103 45.4283 313.064 46.3215C313.312 46.3428 313.553 46.3641 313.801 46.3853"
            stroke="#010202" />
        <path
            d="M253.173 72.2967C253.138 72.2329 253.088 72.162 253.053 72.0911C252.698 71.4815 252.408 70.8576 252.159 70.2054"
            stroke="#010202" />
        <path
            d="M301.99 83.5191C301.501 83.4978 301.012 83.4694 300.516 83.4553C290.945 83.0228 281.353 82.7534 271.839 81.6758C264.913 80.8818 257.675 78.4502 253.485 72.9347C253.357 72.7646 253.23 72.6015 253.116 72.4314"
            stroke="#010202" />
        <path
            d="M126.516 173.44C121.787 155.83 126.494 136.625 138.922 123.255C139.801 122.305 140.715 121.397 141.658 120.518C148.45 114.209 156.815 109.657 165.776 107.311C166.173 107.204 166.57 107.112 166.96 107.013C172.298 105.744 177.211 105.475 182.677 105.574C194.396 105.787 206.107 106.311 217.805 107.134C240.802 108.764 263.729 111.004 286.727 112.84C289.548 113.067 292.37 113.287 295.191 113.514C309.306 114.641 323.421 115.761 337.536 116.881C341.754 117.222 346.603 117.654 350.637 116.073C353.373 115.003 355.762 112.699 357.372 110.125C357.882 109.317 358.307 108.481 358.655 107.651C360.47 103.227 360.42 97.3432 357.379 93.4512C354.529 89.8144 349.772 88.0917 345.341 87.4394C330.482 85.2701 315.474 84.5683 300.515 83.4765"
            stroke="#010202" />
        <path d="M126.538 173.498C126.538 173.498 126.516 173.462 126.516 173.447" stroke="#010202" />
        <path d="M127.508 176.637C127.168 175.609 126.828 174.574 126.544 173.525" stroke="#010202" />
        <path d="M127.523 176.652L127.508 176.637" stroke="#010202" />
        <path d="M128.288 178.7C128.033 178.012 127.771 177.332 127.522 176.644" stroke="#010202" stroke-width="1.0634"
            stroke-miterlimit="10" />
        <path
            d="M130.677 183.868C130.493 183.542 130.322 183.209 130.152 182.869C129.479 181.507 128.89 180.111 128.288 178.714"
            stroke="#010202" />
        <path
            d="M182.159 211.254C172.022 209.943 161.721 208.525 152.335 204.243C151.675 203.952 151.037 203.64 150.399 203.321C147.911 202.073 145.508 200.585 143.218 198.805C140.148 196.423 137.412 193.666 135.058 190.61C133.428 188.497 131.967 186.257 130.705 183.896"
            stroke="#010202" />
        <path
            d="M112.316 250.812C113.039 249.146 113.635 247.324 114.62 245.793C118.122 240.306 125.19 235.953 131.889 236.513C144.48 237.555 157.078 238.583 169.668 239.696C192.446 241.71 215.26 244.808 238.144 245.269C242.213 245.354 246.424 245.134 250.21 243.503C252.989 242.305 255.201 240.178 256.654 237.626C259.263 233.054 259.476 227.099 256.293 222.625C252.897 217.847 246.474 216.153 241.001 215.267C231.707 213.771 222.25 213.516 212.863 213.126C202.619 212.7 192.368 212.374 182.153 211.403"
            stroke="#010202" />
        <path
            d="M113.613 264.24C113.315 263.694 113.067 263.141 112.847 262.574C111.38 258.859 111.167 254.712 112.302 250.876"
            stroke="#010202" />
        <path d="M113.932 264.842C113.84 264.672 113.741 264.509 113.663 264.332" stroke="#010202" stroke-width="1.0634"
            stroke-miterlimit="10" />
        <path
            d="M233.451 49.9229C230.303 43.9891 223.88 39.9341 216.465 39.9341C205.944 39.9341 197.416 48.1222 197.416 58.2244C197.416 60.805 197.976 63.272 198.99 65.5052C201.91 71.9777 208.631 76.5078 216.465 76.5078C226.999 76.5078 235.521 68.3196 235.521 58.2244C235.521 55.5376 234.918 52.9784 233.826 50.6743C233.72 50.4404 233.6 50.1994 233.486 49.9796"
            stroke="#010202" />
        <path
            d="M134.13 348.113C134.342 347.744 134.541 347.347 134.725 346.965C134.895 346.624 135.037 346.284 135.165 345.923C135.781 344.299 136.115 342.541 136.115 340.712C136.115 335.721 133.449 330.992 129.337 328.199C123.999 324.577 116.569 324.598 111.259 328.27C107.211 331.07 104.581 335.778 104.581 340.712C104.581 346.22 107.623 351.055 112.167 353.728C112.543 353.955 112.925 354.153 113.322 354.337C114.655 354.99 116.116 355.465 117.64 355.713C118.512 355.869 119.419 355.94 120.341 355.94C126.26 355.94 131.428 352.792 134.115 348.127C134.115 348.127 134.115 348.127 134.115 348.12L134.13 348.113Z"
            stroke="#010202" />
        <path
            d="M87.7442 358.79C94.2735 369.764 107.318 376.747 120.029 376.945C132.605 377.144 145.168 370.657 152.044 360.122C158.276 350.566 159.538 337.94 155.341 327.384C154.915 326.292 154.419 325.222 153.866 324.18C150.286 317.409 144.437 311.922 137.575 308.519C126.516 303.046 112.791 303.224 101.972 309.157C86.7517 317.509 78.7975 336.465 84.9652 352.998C85.7025 354.983 86.6241 356.897 87.7017 358.712"
            stroke="#010202" />
        <path
            d="M251.564 68.9931C251.564 68.9931 251.755 69.3759 252.074 70.0352C252.096 70.099 252.131 70.1557 252.152 70.2125C252.422 70.7583 252.769 71.4744 253.166 72.3038C253.187 72.3251 253.202 72.3463 253.216 72.3818C253.301 72.559 253.393 72.7433 253.485 72.9277C256.647 79.4002 262.581 91.608 262.602 91.6363C266.083 98.7823 270.833 102.065 278.723 103.256C295.014 105.694 311.745 106.247 328.171 107.58C337.77 108.36 347.39 109.126 356.996 109.891"
            stroke="#010202" />
        <path
            d="M397.192 85.4119C397.192 85.4119 408.514 103.107 409.79 117.541C411.158 133.066 405.161 148.528 394.541 159.793C383.219 171.802 366.255 177.913 349.907 177.325C329.631 176.587 309.356 174.574 289.173 172.681C258.965 169.853 228.736 167.421 198.5 164.954C198.5 164.954 181.039 163.267 176.843 171.604"
            stroke="#010202" />
        <path
            d="M129.997 182.507C130.046 182.628 130.103 182.748 130.153 182.869C135.044 193.935 140.517 205.058 148.528 214.239C157.078 224.057 168.066 229.537 180.82 231.685C200.436 234.975 256.129 237.584 256.129 237.584"
            stroke="#010202" />
        <path
            d="M295.595 212.254C301.083 221.604 306.811 232.721 308.243 243.588C311.426 267.834 297.29 290.42 275.37 300.324C260.978 306.811 246.764 305.329 231.607 304.159C200.62 301.785 169.682 299.169 138.745 296.276C138.745 296.276 130.152 295.915 124.176 284.331C120.851 277.886 117.477 271.478 114.067 265.09C114.024 265.005 113.975 264.92 113.932 264.835C113.84 264.665 113.748 264.495 113.663 264.325C113.648 264.296 113.627 264.261 113.613 264.232"
            stroke="#010202" />
        <path
            d="M198.961 65.5123L210.389 90.1263C210.389 90.1263 214.6 98.7256 226.383 98.8107C238.165 98.8958 243.028 91.1684 244.453 88.6234C245.892 86.0712 247.643 79.301 246.048 75.0828L233.826 50.6744L233.486 49.9796L233.451 49.9229"
            stroke="#010202" />
        <path
            d="M153.795 324.321L155.291 327.292C155.291 327.292 155.319 327.356 155.341 327.384C159.013 334.658 163.387 341.882 165.968 349.623C169.789 361.051 167.938 373.231 160.92 383.014C147.018 402.389 124.885 398.348 124.885 398.348C124.885 398.348 107.913 396.817 99.2644 382.021L87.7443 358.79L87.7088 358.719L85.3977 354.075"
            stroke="#010202" />
        <path d="M117.647 355.67C117.647 355.67 123.403 345.1 133.974 348.028" stroke="#010202" stroke-width="1.0634"
            stroke-miterlimit="10" />
        <path
            d="M373.868 56.9838C373.727 56.9767 373.599 56.9484 373.471 56.9271C372.848 56.7995 372.302 56.5018 371.883 56.0906C371.791 56.0126 371.706 55.9275 371.635 55.8354"
            stroke="#010202" />
        <path
            d="M112.365 250.522L112.316 250.812L112.302 250.876V250.898C112.302 250.898 112.295 250.947 112.295 250.968C112.28 250.99 112.28 251.018 112.273 251.032L111.649 254.669V254.704"
            stroke="#010202" />
        <path d="M128.288 178.7V178.715" stroke="#010202" />
        <path d="M126.537 173.497V173.518" stroke="#010202" />
        <path d="M214.451 281.885L214.423 281.992" stroke="#010202" />
        <path d="M182.167 211.254H182.174" stroke="#010202" />
        <path
            d="M165.436 132.91C165.436 140.198 153.618 146.111 139.035 146.111C134.64 146.111 130.5 145.572 126.856 144.622C129.138 136.753 133.215 129.387 138.915 123.255C139.801 122.305 140.708 121.39 141.658 120.511C141.913 120.277 142.169 120.036 142.431 119.816C155.411 120.646 165.436 126.19 165.436 132.91Z"
            fill="#005568" />
        <path
            d="M87.7939 269.025C88.0208 270.117 88.1838 271.208 88.2902 272.293C86.9858 268.465 84.9653 265.005 82.3635 261.992L84.8306 260.837C86.1847 263.368 87.1913 266.111 87.7939 269.025Z"
            fill="#E1AA00" />
        <path
            d="M41.8267 268.805L43.9322 267.621L40.6144 261.907L43.5848 259.993L47.009 265.898L48.7387 264.927C50.3622 264.013 52.248 263.609 54.0841 263.921C55.112 264.098 56.2038 264.495 57.2176 265.275C57.7989 265.714 58.3518 266.281 58.8623 266.997C60.188 268.869 60.5921 270.662 60.5637 272.173L56.1187 274.243C56.0478 272.853 55.5941 271.258 54.4315 269.606C53.921 268.89 53.3681 268.323 52.7867 267.883C52.7584 267.862 52.7229 267.841 52.6946 267.82L42.6632 273.449L45.8959 279.021L41.7062 280.977L38.6436 275.703L34.4822 278.042L32.2419 274.186L38.7499 270.535L35.4676 264.878L38.438 262.963L41.8267 268.805Z"
            fill="#CF9E00" />
        <path
            d="M59.1885 276.334C59.3587 276.27 61.5493 275.483 63.8958 276.454C65.2782 277.029 66.7599 278.283 67.9792 280.8C68.6031 282.098 68.8725 283.296 68.8867 284.402C68.9363 288.131 66.1786 290.746 64.8883 291.76L62.3503 293.185L65.5193 298.658L62.5488 300.572L59.2665 294.915L57.1681 296.113L60.3653 301.629L57.3949 303.543L54.0842 297.829L52.1205 298.935L47.952 301.267L45.7188 297.41L49.8803 295.078L45.173 286.961L42.9398 283.104L41.7063 280.977L45.8961 279.021L46.9595 280.85L56.0621 275.738C56.0905 275.497 56.1188 275.242 56.1259 274.987C56.1259 274.746 56.1259 274.498 56.1189 274.243L60.5638 272.173C60.5638 272.555 60.5284 272.917 60.4788 273.257C60.2165 275.115 59.3019 276.199 59.1885 276.334ZM62.8891 287.769C63.9454 287.173 64.4417 285.919 64.0801 284.756C63.9454 284.324 63.7682 283.87 63.5484 283.409C62.9246 282.112 62.2227 281.148 61.5067 280.446C60.7836 279.737 60.0463 279.283 59.3374 279.014L49.1926 284.706L53.8999 292.817L62.8891 287.769Z"
            fill="#AD7200" />
        <path
            d="M56.1259 274.987C56.1188 275.242 56.0904 275.497 56.0621 275.738L46.9594 280.85L45.896 279.021L56.1188 274.243C56.133 274.498 56.1329 274.746 56.1259 274.987Z"
            fill="#F7E691" />
        <path
            d="M64.0799 284.756C64.4415 285.919 63.9452 287.173 62.8889 287.769L53.8997 292.817L49.1924 284.706L59.3372 279.014C60.0461 279.283 60.7834 279.737 61.5065 280.446C62.2225 281.148 62.9244 282.112 63.5482 283.409C63.768 283.87 63.9452 284.324 64.0799 284.756Z"
            fill="#F7E691" />
        <path
            d="M68.8865 284.402C68.8723 283.296 68.603 282.098 67.9791 280.8C66.7597 278.283 65.2781 277.029 63.8957 276.454C61.5491 275.483 59.3585 276.27 59.1884 276.334C59.3018 276.199 60.2163 275.115 60.4786 273.257C60.5282 272.917 60.5637 272.555 60.5637 272.172L82.3633 261.992C84.9651 265.005 86.9855 268.465 88.2899 272.293C89.9843 289.768 76.4295 306.52 56.5582 310.639C39.0051 314.276 22.0475 306.91 14.625 293.618L41.7061 280.977L42.9397 283.104L45.1728 286.961L49.8801 295.078L45.7187 297.41L47.9518 301.267L52.1203 298.935L54.0841 297.829L57.3948 303.543L60.3652 301.629L57.1679 296.113L59.2663 294.915L62.5487 300.572L65.5191 298.658L62.3502 293.185L64.8882 291.76C66.1784 290.746 68.9361 288.131 68.8865 284.409V284.402Z"
            fill="#F7E691" />
        <path
            d="M100.349 275.745C103.021 288.655 98.8955 301.572 90.204 311.504L87.7086 302.77L87.6589 302.727C96.003 293.199 100.143 280.921 98.1015 268.536C98.1015 268.529 98.0944 268.529 98.0944 268.521C98.0164 267.997 97.9172 267.479 97.8108 266.955L98.7182 270.095L100.349 275.745Z"
            fill="#AD7200" />
        <path
            d="M84.0648 316.984L84.2775 317.239C82.4342 318.749 80.4634 320.153 78.3721 321.422L75.6852 312.979L75.5647 312.787C77.6773 311.525 79.6694 310.122 81.5339 308.612L81.6048 308.697L84.0648 316.984Z"
            fill="#AD7200" />
        <path
            d="M87.7087 302.77L90.2041 311.504C88.4176 313.553 86.4326 315.474 84.2775 317.239L84.0648 316.984L81.6048 308.697L81.5339 308.612C83.7671 306.804 85.8159 304.833 87.6591 302.727L87.7087 302.77Z"
            fill="#E1AA00" />
        <path
            d="M5.42333 297.914C14.7741 314.737 36.2051 324.066 58.3875 319.465C64.6757 318.161 70.4606 315.857 75.5649 312.787L75.6854 312.979L78.3723 321.422C73.2042 324.577 67.32 326.937 60.9255 328.263C35.9499 333.438 11.9384 320.968 5.02633 300.041L4.99798 299.941L4.10472 296.779L4.08346 296.68L2.80029 292.122C3.04133 292.809 3.30363 293.483 3.58721 294.149C3.58721 294.156 3.58721 294.164 3.59429 294.171C4.13308 295.461 4.74985 296.709 5.42333 297.914Z"
            fill="#E1AA00" />
        <path
            d="M98.1016 268.536C100.143 280.921 96.0031 293.199 87.659 302.727C85.8158 304.833 83.767 306.804 81.5339 308.612C79.6694 310.122 77.6773 311.525 75.5647 312.787C70.4604 315.857 64.6755 318.161 58.3873 319.465C36.2048 324.066 14.7739 314.737 5.4231 297.914L14.625 293.618C22.0475 306.91 39.0051 314.276 56.5582 310.639C76.4296 306.52 89.9843 289.768 88.29 272.293C88.1836 271.208 88.0206 270.117 87.7937 269.025C87.1911 266.111 86.1844 263.368 84.8304 260.837L94.0323 256.541C95.755 259.759 97.0382 263.24 97.8109 266.948C97.9172 267.479 98.0165 267.997 98.0945 268.521C98.0945 268.521 98.1016 268.522 98.1016 268.536Z"
            fill="#E1AA00" />
        <path
            d="M56.1186 274.243L45.8958 279.021L42.6631 273.449L52.6944 267.82C52.6944 267.82 52.7583 267.862 52.7866 267.883C53.3679 268.323 53.9209 268.89 54.4313 269.606C55.594 271.258 56.0477 272.853 56.1186 274.243Z"
            fill="#FAEE91" />
        <path
            d="M32.2421 274.186L34.4823 278.042L38.6437 275.703L41.7063 280.977L14.6252 293.618C13.7177 292.001 12.9521 290.293 12.3495 288.506C10.6693 271.038 24.2241 254.307 44.0883 250.189C59.1885 247.055 73.8492 252.074 82.3634 261.992L60.5638 272.173C60.5922 270.662 60.1881 268.869 58.8624 266.997C58.352 266.281 57.799 265.714 57.2177 265.275C56.2039 264.495 55.1122 264.098 54.0842 263.921C52.2481 263.609 50.3623 264.013 48.7389 264.927L47.0091 265.898L43.585 259.993L40.6145 261.907L43.9323 267.621L41.8268 268.805L38.4381 262.963L35.4677 264.878L38.7501 270.535L32.2421 274.186Z"
            fill="#FAEE91" />
        <path
            d="M84.8304 260.837L82.3634 261.992C73.8491 252.074 59.1884 247.055 44.0882 250.189C24.224 254.307 10.6693 271.038 12.3494 288.499C11.9453 287.322 11.6121 286.11 11.3569 284.869C7.50033 266.267 21.4875 247.636 42.5924 243.262C60.3936 239.576 77.571 247.197 84.8304 260.837Z"
            fill="#EDC500" />
        <path
            d="M94.0326 256.541L84.8307 260.837C77.5712 247.197 60.3938 239.576 42.5926 243.262C21.4877 247.636 7.50054 266.267 11.3571 284.869C11.6123 286.11 11.9455 287.322 12.3496 288.499C12.9522 290.293 13.7179 292.001 14.6253 293.618L5.42338 297.914C4.74989 296.709 4.13312 295.461 3.59434 294.171C3.58725 294.164 3.58725 294.156 3.58725 294.149C3.30367 293.483 3.04137 292.809 2.80033 292.122L1.33994 286.947C-3.52332 263.467 14.1219 239.959 40.7635 234.436C63.2012 229.786 84.8519 239.37 94.0326 256.541Z"
            fill="#EDC500" />
        <path d="M43.9323 267.621L40.6145 261.907" stroke="#010202" />
        <path d="M98.0944 268.521C98.0164 267.997 97.9171 267.479 97.8108 266.955" stroke="#010202" />
        <path
            d="M3.59424 294.171C4.13303 295.461 4.74979 296.709 5.42328 297.914C14.7741 314.737 36.205 324.066 58.3875 319.465C64.6757 318.161 70.4605 315.857 75.5648 312.787C77.6774 311.525 79.6695 310.122 81.534 308.612C83.7672 306.804 85.816 304.833 87.6592 302.727C96.0033 293.199 100.143 280.921 98.1017 268.536"
            stroke="#010202" />
        <path
            d="M97.8112 266.948C97.0384 263.24 95.7553 259.759 94.0326 256.541C84.8519 239.37 63.2012 229.786 40.7635 234.436C14.1219 239.959 -3.52332 263.467 1.33994 286.947C1.70858 288.726 2.19774 290.449 2.80033 292.122C3.04137 292.809 3.30367 293.483 3.58725 294.149"
            stroke="#010202" />
        <path
            d="M12.3494 288.499C11.9453 287.322 11.6121 286.11 11.3569 284.869C7.50033 266.267 21.4875 247.636 42.5924 243.262C60.3936 239.576 77.571 247.197 84.8305 260.837C86.1845 263.368 87.1912 266.111 87.7938 269.025C88.0206 270.117 88.1837 271.208 88.29 272.293C89.9844 289.768 76.4296 306.52 56.5583 310.639C39.0052 314.276 22.0476 306.91 14.6251 293.618C13.7177 292.001 12.952 290.293 12.3494 288.506"
            stroke="#010202" />
        <path d="M54.0844 297.829L53.9707 297.637" stroke="#010202" />
        <path
            d="M12.3495 288.506C10.6693 271.038 24.2241 254.307 44.0883 250.189C59.1885 247.055 73.8492 252.074 82.3634 261.992C84.9652 265.005 86.9857 268.465 88.2901 272.293"
            stroke="#010202" />
        <path d="M3.59412 294.171C3.59412 294.171 3.58691 294.157 3.58691 294.149" stroke="#010202" />
        <path d="M98.1022 268.537C98.1022 268.537 98.0945 268.529 98.0945 268.521" stroke="#010202" />
        <path
            d="M5.02637 300.041C11.9384 320.968 35.9499 333.438 60.9255 328.263C67.3201 326.937 73.2042 324.577 78.3723 321.422C80.4636 320.153 82.4345 318.749 84.2777 317.239C86.4328 315.474 88.4178 313.553 90.2043 311.504C98.8958 301.572 103.022 288.655 100.349 275.745C99.945 273.796 99.3992 271.917 98.7186 270.102"
            stroke="#010202" />
        <path d="M4.10474 296.779C4.35995 297.85 4.6577 298.913 4.99799 299.941" stroke="#010202" stroke-width="1.0634"
            stroke-miterlimit="10" />
        <path d="M97.8108 266.948V266.955L98.7182 270.095V270.102L100.349 275.745" stroke="#010202" />
        <path d="M1.3396 286.947L2.8 292.122L4.08316 296.68L4.10443 296.779L4.99768 299.941L5.02604 300.041"
            stroke="#010202" />
        <path d="M32.2424 274.186L32.1641 274.051" stroke="#010202" />
        <path d="M41.8267 268.805L41.8621 268.869" stroke="#010202" />
        <path d="M38.8918 270.783L38.75 270.535" stroke="#010202" />
        <path
            d="M43.9322 267.621L41.8267 268.805L38.438 262.963L35.4676 264.878L38.7499 270.535L32.2419 274.186L34.4822 278.042"
            stroke="#010202" />
        <path d="M38.6436 275.703L34.4822 278.042" stroke="#010202" />
        <path
            d="M45.8958 279.021L46.9592 280.85L56.0619 275.738C56.0902 275.497 56.1186 275.242 56.1257 274.987C56.1257 274.746 56.1257 274.498 56.1186 274.243C56.0477 272.853 55.594 271.258 54.4313 269.606C53.9209 268.89 53.3679 268.323 52.7866 267.883C52.7583 267.862 52.7228 267.841 52.6944 267.82L42.6631 273.449L45.8958 279.021Z"
            stroke="#010202" />
        <path
            d="M53.8997 292.817L49.1924 284.706L59.3372 279.014C60.0461 279.283 60.7834 279.737 61.5065 280.446C62.2225 281.148 62.9244 282.112 63.5482 283.409C63.768 283.87 63.9452 284.324 64.0799 284.756C64.4415 285.919 63.9452 287.173 62.8889 287.769L53.8997 292.817Z"
            stroke="#010202" />
        <path d="M54.0842 297.829L57.3949 303.543L60.3654 301.629L57.1681 296.113L57.161 296.099" stroke="#010202" />
        <path
            d="M38.6436 275.703L41.7061 280.977L42.9397 283.104L45.1728 286.961L49.8801 295.078L45.7187 297.41L47.9518 301.267"
            stroke="#010202" />
        <path d="M68.8867 284.402L68.9935 284.345" stroke="#010202" />
        <path
            d="M59.1885 276.334C59.3019 276.199 60.2164 275.115 60.4787 273.257C60.5284 272.917 60.5638 272.555 60.5638 272.173C60.5922 270.662 60.1881 268.869 58.8624 266.997C58.3519 266.281 57.799 265.714 57.2176 265.275C56.2039 264.495 55.1121 264.098 54.0842 263.921C52.248 263.609 50.3623 264.013 48.7388 264.927L47.0091 265.898L43.5849 259.993L40.6145 261.907L44.23 268.068"
            stroke="#010202" />
        <path
            d="M62.3503 293.185L64.8883 291.76C66.1785 290.746 68.9363 288.131 68.8867 284.409C68.8725 283.296 68.6031 282.098 67.9792 280.8C66.7599 278.283 65.2782 277.029 63.8958 276.454C61.5492 275.483 59.3586 276.27 59.1885 276.334C59.1814 276.334 59.1743 276.334 59.1743 276.334"
            stroke="#010202" />
        <path
            d="M56.7141 296.375L57.1678 296.113L59.2663 294.915L62.5486 300.572L65.519 298.658L62.3501 293.185L62.1162 292.795L62.0949 292.753"
            stroke="#010202" />
        <path d="M47.9519 301.267L52.1204 298.935L54.0842 297.829" stroke="#010202" stroke-width="1.0634"
            stroke-miterlimit="10" />
        <path d="M75.6853 312.979L78.3721 321.422L78.4147 321.542" stroke="#010202" stroke-width="1.0634"
            stroke-miterlimit="10" />
        <path d="M81.6047 308.697L84.0647 316.984" stroke="#010202" />
        <path d="M87.7087 302.77L90.2042 311.504L90.2609 311.702" stroke="#010202" stroke-width="1.0634"
            stroke-miterlimit="10" />
        <path
            d="M132.456 82.9094L132.555 83.1221L125.92 86.3264C125.409 86.1421 124.892 85.9578 124.36 85.7806H124.353L122.411 80.3431L132.449 82.9023L132.456 82.9094Z"
            fill="#DAFFBA" />
        <path
            d="M116.094 83.2284L118.264 89.7293C108.119 86.3761 100.462 82.6613 100.902 81.2434C101.299 80.017 107.708 80.9102 116.094 83.2355V83.2284Z"
            fill="#DAFFBA" />
        <path
            d="M124.75 86.9007L126.65 92.2177C124.474 91.6505 122.148 90.97 119.731 90.2043C119.362 90.0838 119.008 89.9775 118.653 89.8569L124.75 86.9078V86.9007Z"
            fill="#518C5D" />
        <path
            d="M126.657 92.2177L132.456 108.502L124.162 107.368L118.349 89.9987L118.646 89.8569C119.001 89.9775 119.362 90.0838 119.724 90.2043C122.141 90.97 124.46 91.6505 126.643 92.2177H126.65H126.657Z"
            fill="#518C5D" />
        <path
            d="M131.017 76.2526L132.456 82.9165L122.418 80.3573L124.36 85.7948L124.75 86.9078L118.653 89.8569C118.519 89.8144 118.391 89.7719 118.263 89.7293L116.094 83.2284L114.137 77.3868L102.674 74.0123L100.625 66.6395L131.024 76.2596L131.017 76.2526Z"
            fill="#518C5D" />
        <path
            d="M151.711 73.8635C162.791 83.909 168.023 95.3866 163.997 103.702C163.947 103.802 163.897 103.908 163.841 104C163.16 95.4929 156.064 85.5183 144.863 77.1742L151.711 73.8635Z"
            fill="#A4E479" />
        <path
            d="M125.927 86.3336C134.541 89.382 140.687 92.5154 140.283 93.7844C139.907 94.94 134.271 94.224 126.657 92.2177H126.65L124.75 86.9007L125.927 86.3336Z"
            fill="#CAFFA6" />
        <path
            d="M144.863 77.1742C156.064 85.5183 163.16 95.5 163.841 104C157.68 115.953 134.165 116.605 111.033 105.397C107.02 103.454 103.277 101.278 99.8669 98.9383L118.363 89.9987L124.176 107.367L132.471 108.502L126.672 92.2177C134.286 94.2239 139.921 94.9399 140.297 93.7844C140.694 92.5154 134.555 89.3749 125.941 86.3335L132.577 83.1292L144.877 77.1742H144.863Z"
            fill="#CAFFA6" />
        <path
            d="M151.711 73.8635L144.863 77.1742C140.765 74.1187 136.122 71.29 131.031 68.823C107.906 57.6219 84.3909 58.2741 78.2232 70.2196C78.0105 67.5752 78.4288 65.0656 79.5276 62.79C85.4543 50.5609 109.175 49.8024 132.499 61.0956C139.971 64.7112 146.493 69.1278 151.718 73.8635H151.711Z"
            fill="#C0EF97" />
        <path
            d="M144.863 77.1742L132.563 83.1292L132.463 82.9165L131.024 76.2526L100.625 66.6324L102.674 74.0052L114.138 77.3798L116.094 83.2213C107.708 80.8961 101.299 80.0028 100.902 81.2292C100.462 82.6471 108.119 86.369 118.264 89.7151L118.356 89.9845L99.8597 98.9241C87.1202 90.2397 78.9534 79.3648 78.2161 70.1983C84.3838 58.2528 107.892 57.6006 131.024 68.8017C136.114 71.2688 140.758 74.1045 144.855 77.1529L144.863 77.1742Z"
            fill="#DAFFBA" />
        <path
            d="M157.963 70.8363L151.711 73.8635C146.486 69.1278 139.964 64.7112 132.492 61.0956C109.168 49.8024 85.454 50.5538 79.5203 62.79C78.4214 65.0586 78.0031 67.5682 78.2158 70.2196C78.946 79.386 87.1129 90.261 99.8595 98.9454L93.7414 101.909L93.5854 102.129C73.1186 88.0704 62.0806 69.7517 68.0994 57.3241C75.4297 42.1814 105.276 41.4866 134.753 55.7645C143.664 60.089 151.526 65.2712 157.949 70.8363H157.963Z"
            fill="#C0EF97" />
        <path
            d="M122.914 116.477C118.072 114.932 113.131 112.961 108.204 110.572C102.936 108.02 98.0375 105.17 93.5925 102.114L93.7485 101.895L99.8666 98.9312C103.277 101.271 107.02 103.447 111.032 105.39C134.158 116.598 157.68 115.946 163.84 103.993C163.89 103.901 163.94 103.795 163.996 103.695C168.03 95.3795 162.798 83.9019 151.711 73.8564L157.963 70.8293C172.787 83.668 179.976 98.4563 174.864 109.019C174.864 109.019 174.815 109.133 174.708 109.324C174.63 109.466 174.567 109.608 174.489 109.742C169.937 118.03 158.311 121.702 143.749 120.674C140.29 120.426 136.66 119.916 132.931 119.136C129.663 118.455 126.31 117.569 122.921 116.47L122.914 116.477Z"
            fill="#A4E479" />
        <path
            d="M174.489 109.75C172.958 112.784 167.01 124.502 165.882 126.828C165.84 126.92 165.797 126.998 165.769 127.055C165.741 127.104 165.726 127.147 165.712 127.182C165.705 127.21 165.698 127.218 165.698 127.225C161.367 136.157 149.194 140.063 133.881 138.83V138.66L143.728 120.951L143.743 120.681C158.304 121.709 169.93 118.037 174.482 109.75H174.489Z"
            fill="#122C27" />
        <path
            d="M132.924 119.143L132.882 119.341L123.049 137.05L123.021 137.192C119.752 136.483 116.413 135.576 113.018 134.463L113.174 134.002L122.914 116.477C126.31 117.576 129.663 118.462 132.924 119.143Z"
            fill="#122C27" />
        <path
            d="M143.75 120.681L143.735 120.951L133.895 138.66V138.83C130.408 138.546 126.778 137.993 123.035 137.185L123.063 137.043L132.896 119.334L132.938 119.136C136.674 119.916 140.297 120.426 143.757 120.674L143.75 120.681Z"
            fill="#A4E479" />
        <path
            d="M122.914 116.477L113.173 134.002L113.017 134.456C108.417 132.953 103.723 131.06 99.0445 128.791C69.5601 114.506 51.6099 90.658 58.9474 75.5224L68.1068 57.317C62.0808 69.7446 73.126 88.0563 93.5928 102.121C98.0449 105.177 102.944 108.027 108.204 110.579C113.131 112.968 118.072 114.932 122.914 116.484V116.477Z"
            fill="#A4E479" />
        <path d="M124.984 87.1063L118.59 89.2189L118.852 90.658L126.274 92.3594L124.984 87.1063Z" fill="#06392F" />
        <path d="M124.02 107.36L132.669 108.431L126.756 92.6501L118.59 90.3603L124.02 107.36Z" fill="#06392F" />
        <path
            d="M174.709 109.331C174.631 109.473 174.567 109.615 174.489 109.749C169.937 118.037 158.311 121.709 143.75 120.681C140.29 120.433 136.66 119.923 132.931 119.143C129.663 118.462 126.31 117.576 122.921 116.477C118.079 114.932 113.138 112.961 108.211 110.572C102.944 108.02 98.0448 105.17 93.5998 102.114C73.133 88.0562 62.095 69.7375 68.1138 57.3099C75.4441 42.1672 105.29 41.4724 134.767 55.7503C143.679 60.0747 151.541 65.257 157.964 70.8221C172.787 83.6609 179.976 98.4491 174.865 109.012"
            stroke="#010202" />
        <path
            d="M163.841 104C157.68 115.953 134.165 116.605 111.033 105.397C107.02 103.454 103.277 101.278 99.8668 98.9383C87.1274 90.2539 78.9605 79.3789 78.2232 70.2125C78.0105 67.5682 78.4288 65.0586 79.5276 62.7829C85.4543 50.5538 109.175 49.7953 132.499 61.0885C139.971 64.7041 146.493 69.1207 151.718 73.8564C162.799 83.9019 168.03 95.3795 164.004 103.695C163.954 103.795 163.905 103.901 163.848 103.993L163.841 104Z"
            stroke="#010202" />
        <path
            d="M78.2231 70.2125C84.3908 58.267 107.899 57.6148 131.031 68.8159C136.121 71.2829 140.765 74.1187 144.863 77.1671C156.064 85.5112 163.16 95.4929 163.841 103.993"
            stroke="#010202" />
        <path d="M165.712 127.19C165.712 127.19 165.748 127.111 165.769 127.062" stroke="#010202" stroke-width="1.0634"
            stroke-miterlimit="10" />
        <path
            d="M58.9473 75.5223C51.6169 90.658 69.5599 114.506 99.0444 128.791C103.723 131.06 108.416 132.953 113.017 134.456C116.413 135.576 119.752 136.49 123.02 137.192C126.764 138 130.393 138.553 133.874 138.837C149.187 140.07 161.359 136.164 165.691 127.232"
            stroke="#010202" />
        <path
            d="M165.691 127.232C165.691 127.232 165.698 127.218 165.705 127.189C165.712 127.161 165.741 127.118 165.762 127.062C165.783 127.005 165.833 126.927 165.875 126.835C167.01 124.502 172.95 112.791 174.482 109.757C174.574 109.594 174.645 109.452 174.701 109.338C174.801 109.14 174.857 109.033 174.857 109.033"
            stroke="#010202" />
        <path d="M58.9475 75.5223L68.1069 57.317" stroke="#010202" />
        <path
            d="M126.65 92.2177L124.75 86.9007L124.36 85.7877L122.418 80.3502L132.456 82.9094L131.017 76.2525L100.618 66.6324L102.667 74.0052L114.137 77.3868L116.094 83.2284L118.263 89.7293L118.356 89.9987L124.162 107.367L132.456 108.502L126.657 92.2177"
            stroke="#010202" />
        <path
            d="M118.27 90.3673C115.144 89.3323 99.3774 83.9941 100.292 81.0449C101.036 78.7621 109.891 80.9457 115.541 82.5053L115.924 83.8381C107.402 81.4774 102.546 81.0307 101.575 81.449C102.241 82.5762 107.799 85.5608 118.051 88.9495L118.27 90.3673Z"
            fill="#518C5D" stroke="#010202" stroke-width="0.70893" stroke-miterlimit="10" />
        <path
            d="M138.142 94.9612C135.76 94.9612 123.992 91.6292 118.618 90.2114L118.306 88.8573C125.856 90.8494 135.406 93.9262 139.064 93.6497C139.319 93.6284 139.425 93.3165 139.227 93.1463C137.873 91.9766 133.47 89.6726 125.714 86.9361C125.204 86.7447 125.084 86.6738 124.559 86.4966L124.367 85.8018V85.1496L124.573 85.185C125.105 85.3623 125.629 85.5466 126.147 85.738C131.974 87.7939 141.644 91.608 140.893 93.9829C140.68 94.6422 139.758 94.9683 138.142 94.9683V94.9612Z"
            fill="#06392F" stroke="#010202" stroke-width="0.70893" stroke-miterlimit="10" />
        <path d="M123.028 137.192L132.924 119.143" stroke="#010202" />
        <path d="M113.024 134.456L122.914 116.477" stroke="#010202" />
        <path d="M133.881 138.83L143.75 120.681" stroke="#010202" />
    </g>
    <defs>
        <clipPath id="clip0_3000_3470">
            <rect width="434" height="399.227" fill="white" />
        </clipPath>
    </defs>
</svg>